<svg width="48" height="48" viewBox="0 0 48 48" fill="none" xmlns="http://www.w3.org/2000/svg">
<path d="M25 21.02V10.88C25 10.33 24.55 9.88 24 9.88C23.45 9.88 23 10.33 23 10.88V21.02C21.6 21.38 20.51 22.48 20.14 23.88H13C12.45 23.88 12 24.33 12 24.88C12 25.43 12.45 25.88 13 25.88H20.14C20.59 27.6 22.14 28.88 24 28.88C26.21 28.88 28 27.09 28 24.88C28 23.02 26.72 21.47 25 21.02ZM24 26.88C22.9 26.88 22 25.98 22 24.88C22 23.78 22.9 22.88 24 22.88C25.1 22.88 26 23.78 26 24.88C26 25.98 25.1 26.88 24 26.88Z" fill="#9DC622"/>
<path d="M24 3.88C24.55 3.88 25 3.43 25 2.88V1.88C25 1.33 24.55 0.880005 24 0.880005C23.45 0.880005 23 1.33 23 1.88V2.88C23 3.43 23.45 3.88 24 3.88Z" fill="#9DC622"/>
<path d="M24 43.88C23.45 43.88 23 44.33 23 44.88V45.88C23 46.43 23.45 46.88 24 46.88C24.55 46.88 25 46.43 25 45.88V44.88C25 44.33 24.55 43.88 24 43.88Z" fill="#9DC622"/>
<path d="M46 22.88H45C44.45 22.88 44 23.33 44 23.88C44 24.43 44.45 24.88 45 24.88H46C46.55 24.88 47 24.43 47 23.88C47 23.33 46.55 22.88 46 22.88Z" fill="#9DC622"/>
<path d="M3 22.88H2C1.45 22.88 1 23.33 1 23.88C1 24.43 1.45 24.88 2 24.88H3C3.55 24.88 4 24.43 4 23.88C4 23.33 3.55 22.88 3 22.88Z" fill="#9DC622"/>
<path d="M38.85 7.61999L38.14 8.32999C37.75 8.71999 37.75 9.34999 38.14 9.73999C38.34 9.93999 38.59 10.03 38.85 10.03C39.11 10.03 39.36 9.92999 39.56 9.73999L40.27 9.02999C40.66 8.63999 40.66 8.00999 40.27 7.61999C39.88 7.22999 39.24 7.21999 38.85 7.61999Z" fill="#9DC622"/>
<path d="M8.44 38.02L7.73 38.73C7.34 39.12 7.34 39.75 7.73 40.14C7.93 40.34 8.18 40.43 8.44 40.43C8.7 40.43 8.95 40.33 9.15 40.14L9.86 39.43C10.25 39.04 10.25 38.41 9.86 38.02C9.47 37.63 8.83 37.63 8.44 38.02Z" fill="#9DC622"/>
<path d="M39.56 38.02C39.17 37.63 38.54 37.63 38.15 38.02C37.76 38.41 37.76 39.04 38.15 39.43L38.86 40.14C39.06 40.34 39.31 40.43 39.57 40.43C39.83 40.43 40.08 40.33 40.28 40.14C40.67 39.75 40.67 39.12 40.28 38.73L39.56 38.02Z" fill="#9DC622"/>
<path d="M9.15001 7.62001C8.76001 7.23001 8.13001 7.23001 7.74001 7.62001C7.35001 8.01001 7.35001 8.64001 7.74001 9.03001L8.45001 9.74001C8.65001 9.94001 8.90001 10.03 9.16001 10.03C9.42001 10.03 9.67001 9.93001 9.87001 9.74001C10.26 9.35001 10.26 8.72001 9.87001 8.33001L9.15001 7.62001Z" fill="#9DC622"/>
<circle cx="24" cy="24" r="23" stroke="#9DC622" stroke-width="2"/>
</svg>
