<svg width="47" height="48" viewBox="0 0 47 48" fill="none" xmlns="http://www.w3.org/2000/svg">
<path d="M23.0057 48C20.9067 48 19.1677 46.696 18.5757 44.68C18.3277 43.834 17.7057 43.194 16.8697 42.922C16.0377 42.652 15.1617 42.805 14.4677 43.339C12.8097 44.621 10.6397 44.652 8.94366 43.422C7.23966 42.187 6.59466 40.107 7.29866 38.121C7.59366 37.289 7.46566 36.403 6.94666 35.689C6.43166 34.981 5.63566 34.572 4.75966 34.613C2.65866 34.654 0.890664 33.418 0.240664 31.422C-0.411336 29.421 0.287664 27.36 2.01966 26.169C2.74466 25.671 3.15966 24.881 3.15966 24C3.15966 23.119 2.74466 22.329 2.01966 21.831C0.287664 20.641 -0.411336 18.579 0.240664 16.578C0.890664 14.582 2.65366 13.343 4.75866 13.387C5.63566 13.417 6.43066 13.02 6.94566 12.311C7.46466 11.597 7.59266 10.711 7.29766 9.878C6.59266 7.894 7.23866 5.814 8.94266 4.578C10.6397 3.349 12.8077 3.381 14.4677 4.661C15.1617 5.196 16.0367 5.349 16.8697 5.078C17.7047 4.807 18.3267 4.166 18.5757 3.32C19.1677 1.304 20.9067 0 23.0057 0C25.1047 0 26.8437 1.304 27.4357 3.32C27.6837 4.166 28.3057 4.806 29.1417 5.078C29.9747 5.349 30.8497 5.196 31.5437 4.661C33.2027 3.382 35.3717 3.349 37.0677 4.578C38.7717 5.813 39.4167 7.893 38.7127 9.879C38.4177 10.711 38.5457 11.597 39.0647 12.311C39.5797 13.019 40.3677 13.415 41.2517 13.387C43.3587 13.342 45.1207 14.582 45.7707 16.578C46.4227 18.579 45.7237 20.64 43.9917 21.831C43.2677 22.329 42.8527 23.119 42.8527 24C42.8527 24.881 43.2677 25.671 43.9927 26.169C45.7247 27.359 46.4237 29.421 45.7717 31.422C45.1217 33.418 43.3487 34.64 41.2537 34.613C40.3737 34.586 39.5827 34.981 39.0667 35.689C38.5477 36.403 38.4197 37.289 38.7147 38.122C39.4197 40.106 38.7737 42.186 37.0697 43.422C35.3727 44.651 33.2047 44.62 31.5447 43.339C30.8507 42.804 29.9757 42.652 29.1427 42.922C28.3077 43.193 27.6857 43.834 27.4367 44.68C26.8437 46.696 25.1047 48 23.0057 48ZM16.0637 40.794C16.5407 40.794 17.0217 40.868 17.4877 41.02C18.9397 41.492 20.0637 42.649 20.4947 44.116C20.9027 45.505 22.0587 46 23.0057 46C23.9527 46 25.1087 45.505 25.5167 44.115C25.9477 42.648 27.0717 41.491 28.5237 41.019C29.9727 40.548 31.5577 40.825 32.7647 41.754C33.9057 42.636 35.1287 42.357 35.8937 41.802C36.6637 41.243 37.3137 40.159 36.8277 38.79C36.3167 37.348 36.5477 35.749 37.4477 34.512C38.3437 33.281 39.7857 32.578 41.3077 32.613C42.7387 32.66 43.5747 31.703 43.8687 30.802C44.1637 29.897 44.0527 28.637 42.8587 27.817C41.6017 26.954 40.8517 25.526 40.8517 24C40.8517 22.474 41.6017 21.046 42.8587 20.183C44.0527 19.363 44.1637 18.103 43.8687 17.198C43.5747 16.297 42.7457 15.341 41.3077 15.387C39.7827 15.425 38.3447 14.719 37.4477 13.488C36.5487 12.251 36.3167 10.652 36.8277 9.211C37.3137 7.841 36.6637 6.757 35.8937 6.198C35.1287 5.644 33.9047 5.364 32.7647 6.246C31.5577 7.176 29.9717 7.451 28.5237 6.981C27.0717 6.509 25.9477 5.352 25.5167 3.885C25.1087 2.495 23.9517 2 23.0057 2C22.0597 2 20.9027 2.495 20.4947 3.885C20.0637 5.352 18.9397 6.509 17.4877 6.981C16.0387 7.452 14.4537 7.176 13.2467 6.246C12.1057 5.364 10.8827 5.644 10.1177 6.198C9.34766 6.757 8.69766 7.841 9.18366 9.21C9.69466 10.652 9.46366 12.251 8.56366 13.488C7.66766 14.719 6.23066 15.418 4.70366 15.387C3.26666 15.341 2.43666 16.296 2.14266 17.198C1.84766 18.103 1.95866 19.363 3.15266 20.183C4.40966 21.046 5.15966 22.474 5.15966 24C5.15966 25.526 4.40966 26.954 3.15266 27.817C1.95866 28.637 1.84766 29.897 2.14266 30.802C2.43566 31.703 3.25966 32.664 4.70366 32.613C6.23066 32.578 7.66666 33.282 8.56366 34.512C9.46266 35.749 9.69466 37.348 9.18366 38.789C8.69766 40.159 9.34766 41.243 10.1177 41.802C10.8827 42.356 12.1057 42.636 13.2467 41.754C14.0647 41.124 15.0577 40.794 16.0637 40.794Z" fill="#9DC622"/>
<path d="M23.0056 39C14.7346 39 8.00562 32.271 8.00562 24C8.00562 15.729 14.7346 9 23.0056 9C31.2766 9 38.0056 15.729 38.0056 24C38.0056 32.271 31.2766 39 23.0056 39ZM23.0056 11C15.8376 11 10.0056 16.832 10.0056 24C10.0056 31.168 15.8376 37 23.0056 37C30.1736 37 36.0056 31.168 36.0056 24C36.0056 16.832 30.1736 11 23.0056 11Z" fill="#9DC622"/>
<path d="M28.0056 32C27.8806 32 27.7547 31.977 27.6347 31.929L23.0056 30.077L18.3766 31.929C18.0356 32.065 17.6476 32.003 17.3656 31.769C17.0836 31.535 16.9526 31.165 17.0246 30.804L17.9197 26.329L14.2976 22.707C14.0316 22.441 13.9377 22.049 14.0537 21.691C14.1697 21.334 14.4766 21.071 14.8476 21.012L19.8586 20.217L22.1037 15.565C22.4367 14.874 23.5716 14.874 23.9046 15.565L26.1496 20.217L31.1607 21.012C31.5317 21.071 31.8387 21.333 31.9547 21.691C32.0707 22.048 31.9767 22.441 31.7106 22.707L28.0886 26.329L28.9836 30.804C29.0556 31.164 28.9246 31.534 28.6426 31.769C28.4626 31.921 28.2356 32 28.0056 32ZM23.0056 28C23.1316 28 23.2576 28.023 23.3766 28.071L26.6627 29.385L26.0246 26.196C25.9586 25.868 26.0617 25.529 26.2977 25.293L28.9106 22.681L25.3206 22.111C24.9976 22.06 24.7186 21.853 24.5766 21.558L23.0046 18.301L21.4326 21.558C21.2906 21.853 21.0126 22.06 20.6886 22.111L17.0986 22.681L19.7117 25.293C19.9487 25.529 20.0506 25.868 19.9846 26.196L19.3467 29.385L22.6326 28.071C22.7536 28.023 22.8796 28 23.0056 28Z" fill="#9DC622"/>
</svg>
