<svg width="169" height="51" viewBox="0 0 169 51" fill="none" xmlns="http://www.w3.org/2000/svg">
<path d="M16.0741 7.88526C15.8631 7.88493 15.6581 7.95503 15.4924 8.08445C8.91445 13.0561 5.79354 21.3268 7.4689 29.3515C8.71054 35.2988 12.4216 40.3374 17.5303 43.3533C20.5434 45.1318 25.6254 46.9971 28.4222 48.5143L32.787 50.8793C32.895 50.94 33.0141 50.9787 33.1374 50.9934C33.2607 51.0081 33.3857 50.9985 33.5052 50.9649C33.6247 50.9313 33.7362 50.8745 33.8333 50.7978C33.9304 50.7212 34.0111 50.6261 34.0707 50.5183C34.1304 50.4105 34.1678 50.2922 34.1808 50.1699C34.1938 50.0477 34.1821 49.9239 34.1464 49.8062C34.1107 49.6884 34.0517 49.579 33.9728 49.484C33.894 49.3891 33.7968 49.3106 33.6871 49.2532L29.3222 46.8881C26.2678 45.2313 21.1897 43.3517 18.4925 41.7597C13.8289 39.0067 10.4362 34.4117 9.3019 28.9785C7.77137 21.6477 10.6177 14.1002 16.6266 9.55851C16.785 9.44278 16.9026 9.28058 16.9626 9.09493C17.0226 8.90928 17.0219 8.70977 16.9608 8.5245C16.8996 8.33923 16.781 8.1777 16.6218 8.06295C16.4627 7.9482 16.271 7.88603 16.0741 7.88526Z" fill="#9DC622"/>
<path fill-rule="evenodd" clip-rule="evenodd" d="M8.59945 4.53151C8.42783 4.53063 8.25926 4.57642 8.11215 4.66393C7.96504 4.75144 7.84505 4.87727 7.76527 5.02769C7.76527 5.02769 7.33081 5.83448 6.90914 6.86031C6.48747 7.88613 6.03082 9.08622 6.08593 10.2467C6.15064 11.6113 6.84549 13.0508 7.48355 14.2632C8.12161 15.4756 8.7458 16.4182 8.7458 16.4182C8.8312 16.5459 8.94724 16.6508 9.08355 16.7233C9.21986 16.7958 9.37219 16.8338 9.52693 16.8338C9.68167 16.8338 9.834 16.7958 9.97031 16.7233C10.1066 16.6508 10.2227 16.5459 10.3081 16.4182C10.3081 16.4182 10.9262 15.5019 11.5191 14.3248C12.112 13.1476 12.7556 11.7563 12.6313 10.3698C12.5073 8.98294 11.6243 7.72747 10.8313 6.67198C10.0382 5.61667 9.26899 4.82125 9.26899 4.82125C9.1827 4.73099 9.07897 4.65894 8.96395 4.60915C8.84893 4.55936 8.72498 4.53294 8.59945 4.53151ZM8.82263 7.17902C9.04308 7.439 9.07112 7.43904 9.32753 7.78024C10.0444 8.7343 10.7153 9.97222 10.7654 10.5328C10.8156 11.0932 10.3757 12.4314 9.83975 13.4954C9.68361 13.8054 9.66694 13.7934 9.52144 14.0495C9.35236 13.7603 9.33528 13.7672 9.14459 13.4049C8.55426 12.2832 7.99267 10.8661 7.95918 10.1597C7.93534 9.65777 8.26427 8.49056 8.64701 7.55931C8.73433 7.34699 8.73913 7.36446 8.82263 7.17902Z" fill="#9DC622"/>
<path fill-rule="evenodd" clip-rule="evenodd" d="M1.79792 16.436C1.67305 16.437 1.54962 16.4626 1.43489 16.5114C1.32017 16.5602 1.21646 16.6313 1.12988 16.7203C1.04329 16.8094 0.975575 16.9149 0.930709 17.0302C0.885842 17.1456 0.864731 17.2686 0.868618 17.3922C0.868618 17.3922 0.895336 18.3041 1.04058 19.4023C1.18582 20.5004 1.3905 21.7703 2.01745 22.7524C2.75465 23.9073 4.07005 24.8172 5.22977 25.5593C6.3895 26.3014 7.40669 26.816 7.40669 26.816C7.54454 26.8858 7.69771 26.9208 7.85251 26.9177C8.00731 26.9145 8.15892 26.8733 8.29375 26.7979C8.42859 26.7226 8.54246 26.6153 8.62517 26.4858C8.70789 26.3562 8.75686 26.2084 8.76773 26.0555C8.76773 26.0555 8.84325 24.9568 8.77138 23.6434C8.69952 22.3299 8.56878 20.8043 7.7689 19.6594C6.96906 18.5144 5.57521 17.8532 4.359 17.3234C3.14279 16.7934 2.07598 16.4759 2.07598 16.4759C1.9858 16.4491 1.89206 16.436 1.79792 16.4369L1.79792 16.436ZM2.8626 18.7467C3.1839 18.8654 3.2087 18.8506 3.60166 19.022C4.70104 19.501 5.90532 20.2505 6.2286 20.7133C6.552 21.1762 6.83683 22.5538 6.90179 23.7412C6.92083 24.089 6.90051 24.087 6.90179 24.3822C6.60869 24.2116 6.59627 24.2246 6.24689 24.0019C5.1739 23.3154 3.97956 22.3613 3.598 21.7637C3.32675 21.3388 3.03102 20.1599 2.89919 19.1632C2.86911 18.9357 2.88257 18.9489 2.8626 18.7467H2.8626Z" fill="#9DC622"/>
<path fill-rule="evenodd" clip-rule="evenodd" d="M6.94205 31.6732C5.57766 31.3363 4.09281 31.7512 2.82602 32.1476C1.55924 32.5447 0.546661 33.006 0.546661 33.006C0.411922 33.0671 0.293747 33.1589 0.201848 33.274C0.109948 33.3891 0.0469459 33.5242 0.0180182 33.6681C-0.0109095 33.812 -0.00493734 33.9607 0.035444 34.1018C0.0758253 34.243 0.149463 34.3726 0.250308 34.4801C0.250308 34.4801 0.879559 35.1484 1.7211 35.8781C2.56264 36.6079 3.56241 37.4301 4.6883 37.7578C6.01224 38.1433 7.6103 37.9656 8.97628 37.7578C10.3423 37.5571 11.4459 37.2797 11.4459 37.2797C11.6775 37.222 11.878 37.0788 12.0066 36.8795C12.1351 36.6802 12.1819 36.4399 12.1374 36.2077C12.1094 36.0651 12.048 35.9312 11.9581 35.8165C11.9581 35.8165 11.282 34.9414 10.3519 34.002C9.42192 33.0626 8.30639 32.0029 6.94205 31.6659V31.6732ZM6.48837 33.4732C7.03999 33.6086 8.17579 34.4567 9.01652 35.3058C9.26123 35.553 9.24398 35.5644 9.44093 35.7839C9.10802 35.8488 9.10885 35.8692 8.69822 35.9286C7.43441 36.1142 5.90037 36.175 5.21515 35.9747C4.72806 35.8319 3.71793 35.1449 2.95408 34.4826C2.77886 34.3305 2.79722 34.3324 2.64675 34.1928C2.968 34.0704 2.97794 34.0426 3.38946 33.9139C4.53461 33.5551 5.93689 33.3358 6.48837 33.4721V33.4732Z" fill="#9DC622"/>
<path fill-rule="evenodd" clip-rule="evenodd" d="M13.857 41.2851C12.4806 41.5701 11.3214 42.5837 10.3557 43.4872C9.3899 44.3906 8.68364 45.2401 8.68364 45.2401C8.58895 45.3531 8.52272 45.4868 8.4904 45.6301C8.45808 45.7734 8.4606 45.9224 8.49776 46.0645C8.53491 46.2067 8.60563 46.3379 8.7041 46.4477C8.80257 46.5575 8.92597 46.6427 9.06415 46.6961C9.06415 46.6961 9.92473 47.0285 11.0033 47.3226C12.0818 47.6167 13.3435 47.9216 14.501 47.7319C15.8624 47.5082 17.2231 46.6614 18.3645 45.892C19.506 45.1227 20.3768 44.3962 20.3768 44.3962C20.4741 44.3157 20.5539 44.2164 20.6114 44.1044C20.6688 43.9925 20.7026 43.8701 20.7108 43.7448C20.719 43.6194 20.7014 43.494 20.6591 43.3756C20.6168 43.2572 20.5506 43.1485 20.4646 43.0562C20.3884 42.9745 20.2979 42.907 20.1975 42.857C20.1975 42.857 19.2053 42.3604 17.9548 41.9153C16.7042 41.4703 15.2336 41.0001 13.857 41.2851H13.857ZM14.2375 43.0996C14.7937 42.9847 16.1878 43.2592 17.3181 43.661C17.6494 43.7797 17.6392 43.7963 17.9145 43.9109C17.6433 44.1116 17.6533 44.1291 17.3108 44.36C16.2548 45.0719 14.8982 45.7872 14.1936 45.9029C13.6923 45.9845 12.4799 45.8009 11.5008 45.5335C11.2767 45.4723 11.2948 45.4631 11.0984 45.4038C11.3336 45.1562 11.3307 45.1275 11.6435 44.8349C12.5166 44.0183 13.6812 43.2155 14.2375 43.1003V43.0996Z" fill="#9DC622"/>
<path fill-rule="evenodd" clip-rule="evenodd" d="M23.4464 0.0078125C23.4168 0.012601 23.3875 0.0188074 23.3586 0.0263741C23.3586 0.0263741 22.2601 0.202592 20.9841 0.569753C19.7091 0.936544 18.2412 1.40913 17.2961 2.43848C16.3511 3.46931 16.0161 4.96316 15.7704 6.25583C15.5248 7.54849 15.4558 8.64982 15.4558 8.64982C15.4463 8.80272 15.4753 8.95549 15.54 9.09462C15.6048 9.23375 15.7034 9.35486 15.8269 9.44706C15.9505 9.53927 16.0952 9.59986 16.2482 9.62317C16.4011 9.64649 16.5575 9.63197 16.7034 9.58084C16.7034 9.58084 17.7785 9.20552 19.0267 8.62085C20.2749 8.03617 21.7024 7.30483 22.5866 6.25583C23.3385 5.36388 23.7054 4.13124 23.9952 3.06165C24.285 1.99187 24.4342 1.09129 24.4342 1.09129C24.4572 0.953323 24.4483 0.812043 24.4082 0.677954C24.3682 0.543865 24.2981 0.420483 24.2031 0.317022C24.1081 0.21356 23.9906 0.132668 23.8596 0.0804744C23.7286 0.0282811 23.5873 0.00613422 23.4464 0.015622L23.4464 0.0078125ZM22.2792 2.16277C22.2325 2.361 22.248 2.34988 22.1878 2.57203C21.9247 3.54297 21.4704 4.6743 21.145 5.06019C20.6874 5.60314 19.3803 6.39535 18.2254 6.93627C17.8502 7.11243 17.8392 7.09565 17.5266 7.22601C17.5671 6.93376 17.5458 6.93414 17.6108 6.5922C17.8328 5.42359 18.3007 4.09334 18.6827 3.67667C19.0647 3.26 20.3538 2.67198 21.5073 2.34024C21.9212 2.22156 21.9441 2.23823 22.2792 2.1622L22.2792 2.16277Z" fill="#9DC622"/>
<path d="M41.0264 7.88882C40.833 7.89641 40.6466 7.96314 40.493 8.07987C40.3395 8.1966 40.2262 8.35768 40.1688 8.54074C40.1115 8.7238 40.1128 8.91984 40.1727 9.10212C40.2326 9.28439 40.3481 9.44382 40.5032 9.55846C46.5122 14.1001 49.3585 21.6476 47.8279 28.9784C46.6936 34.4117 43.3009 39.0067 38.6373 41.7597C35.9401 43.3516 30.862 45.2312 27.8076 46.8881L23.4428 49.2531C23.333 49.3106 23.2358 49.389 23.157 49.484C23.0781 49.579 23.0191 49.6884 22.9834 49.8061C22.9477 49.9239 22.936 50.0476 22.949 50.1699C22.962 50.2921 22.9994 50.4104 23.0591 50.5182C23.1188 50.6261 23.1995 50.7212 23.2966 50.7978C23.3937 50.8744 23.5052 50.9313 23.6246 50.9649C23.7441 50.9984 23.8691 51.008 23.9924 50.9934C24.1157 50.9787 24.2348 50.9399 24.3428 50.8793L28.7076 48.5143C31.5045 46.997 36.5864 45.1317 39.5995 43.3532C44.7083 40.3373 48.4193 35.2987 49.6609 29.3515C51.3363 21.3268 48.2154 13.0561 41.6374 8.0844C41.4634 7.94996 41.247 7.88073 41.0264 7.88882Z" fill="#9DC622"/>
<path fill-rule="evenodd" clip-rule="evenodd" d="M48.5231 4.53157C48.3988 4.53397 48.2762 4.56081 48.1625 4.61057C48.0488 4.66033 47.9463 4.73192 47.8608 4.82131C47.8608 4.82131 47.0917 5.61673 46.2986 6.67204C45.5055 7.72754 44.6226 8.98301 44.4985 10.3699C44.3743 11.7564 45.0179 13.1477 45.6108 14.3249C46.2037 15.502 46.8218 16.4182 46.8218 16.4182C46.9072 16.546 47.0232 16.6509 47.1595 16.7234C47.2958 16.7959 47.4482 16.8338 47.6029 16.8338C47.7577 16.8338 47.91 16.7959 48.0463 16.7234C48.1826 16.6509 48.2986 16.546 48.384 16.4182C48.384 16.4182 49.0082 15.4757 49.6463 14.2633C50.2844 13.0509 50.9792 11.6113 51.0439 10.2467C51.099 9.08628 50.6424 7.8862 50.2207 6.86037C49.799 5.83455 49.3646 5.02775 49.3646 5.02775C49.2842 4.87623 49.1631 4.74954 49.0146 4.66196C48.866 4.57437 48.6959 4.52936 48.5231 4.53157ZM48.3072 7.17909C48.3907 7.36452 48.3955 7.34798 48.4828 7.55938C48.8656 8.49063 49.1945 9.65784 49.1707 10.1598C49.1372 10.8661 48.5756 12.2832 47.9852 13.4049C47.7946 13.7673 47.7775 13.7603 47.6084 14.0496C47.4629 13.7935 47.4462 13.8055 47.2901 13.4955C46.7541 12.4314 46.3142 11.0932 46.3644 10.5329C46.4146 9.97228 47.0854 8.73437 47.8023 7.7803C48.0587 7.4391 48.0868 7.43907 48.3072 7.17909Z" fill="#9DC622"/>
<path fill-rule="evenodd" clip-rule="evenodd" d="M55.3245 16.4362C55.2328 16.436 55.1416 16.4491 55.0538 16.4752C55.0538 16.4752 53.9869 16.7929 52.7707 17.3229C51.5545 17.8527 50.1607 18.5136 49.3608 19.6587C48.561 20.8036 48.4302 22.3294 48.3584 23.6429C48.2865 24.9563 48.3621 26.055 48.3621 26.055C48.373 26.2079 48.4219 26.3557 48.5047 26.4853C48.5874 26.6149 48.7012 26.7221 48.8361 26.7974C48.9709 26.8728 49.1225 26.9138 49.2773 26.917C49.4321 26.9201 49.5853 26.8854 49.7231 26.8156C49.7231 26.8156 50.7403 26.3009 51.9001 25.5588C53.0598 24.8167 54.3752 23.9068 55.1124 22.7519C55.7393 21.7699 55.944 20.4999 56.0892 19.4018C56.2345 18.3036 56.2612 17.3917 56.2612 17.3917C56.2651 17.2675 56.2438 17.1438 56.1985 17.0279C56.1531 16.9121 56.0848 16.8065 55.9974 16.7174C55.91 16.6282 55.8055 16.5573 55.6899 16.5089C55.5743 16.4605 55.4501 16.4355 55.3246 16.4355L55.3245 16.4362ZM54.2671 18.7469C54.2472 18.949 54.2606 18.9359 54.2306 19.1634C54.0987 20.1601 53.803 21.339 53.5317 21.7639C53.1502 22.3615 51.9558 23.3156 50.8829 24.0021C50.5335 24.2257 50.5211 24.2125 50.2279 24.3824C50.2292 24.0872 50.2089 24.0892 50.2279 23.7413C50.2929 22.554 50.5777 21.1764 50.9011 20.7135C51.2244 20.2507 52.4287 19.5012 53.5281 19.0222C53.921 18.8516 53.9458 18.8645 54.2671 18.7469Z" fill="#9DC622"/>
<path fill-rule="evenodd" clip-rule="evenodd" d="M50.1878 31.6729C48.8234 32.0098 47.7079 33.0695 46.7779 34.0089C45.8478 34.9483 45.1717 35.8234 45.1717 35.8234C45.0818 35.9382 45.0204 36.0721 44.9924 36.2146C44.9479 36.4468 44.9947 36.6872 45.1232 36.8864C45.2518 37.0857 45.4523 37.2289 45.6839 37.2866C45.6839 37.2866 46.7876 37.5641 48.1535 37.7647C49.5195 37.9653 51.1176 38.143 52.4415 37.7647C53.5674 37.437 54.5672 36.6149 55.4087 35.885C56.2503 35.1553 56.8795 34.487 56.8795 34.487C56.9804 34.3795 57.054 34.2497 57.0944 34.1085C57.1348 33.9674 57.1407 33.8189 57.1118 33.675C57.0829 33.5311 57.0199 33.396 56.928 33.2809C56.8361 33.1658 56.7179 33.074 56.5832 33.0129C56.5832 33.0129 55.5706 32.5516 54.3038 32.1546C53.037 31.7575 51.5522 31.3432 50.1878 31.6801L50.1878 31.6729ZM50.6414 33.4729C51.1929 33.3375 52.5952 33.5565 53.7403 33.9147C54.1519 34.0446 54.1618 34.0723 54.4831 34.1936C54.3326 34.3327 54.3509 34.3308 54.1757 34.4834C53.4119 35.1457 52.4018 35.8337 51.9147 35.9755C51.2294 36.1751 49.6954 36.1146 48.4316 35.9291C48.021 35.8679 48.0218 35.8478 47.6889 35.7847C47.8858 35.5652 47.8686 35.5538 48.1133 35.3066C48.954 34.4575 50.0898 33.6101 50.6414 33.474V33.4729Z" fill="#9DC622"/>
<path fill-rule="evenodd" clip-rule="evenodd" d="M43.2727 41.2851C41.8961 41.0001 40.4255 41.4704 39.175 41.9153C37.9245 42.3603 36.9322 42.857 36.9322 42.857C36.8318 42.9069 36.7414 42.9744 36.6651 43.0562C36.5791 43.1485 36.5129 43.2572 36.4706 43.3755C36.4283 43.4939 36.4107 43.6194 36.4189 43.7447C36.4271 43.8701 36.461 43.9924 36.5184 44.1044C36.5758 44.2164 36.6556 44.3157 36.7529 44.3962C36.7529 44.3962 37.6238 45.1226 38.7652 45.892C39.9066 46.6614 41.2674 47.5082 42.6288 47.7319C43.7862 47.9216 45.048 47.6169 46.1265 47.3226C47.205 47.0285 48.0656 46.696 48.0656 46.696C48.2038 46.6427 48.3272 46.5575 48.4256 46.4477C48.5241 46.3379 48.5948 46.2066 48.632 46.0645C48.6691 45.9223 48.6717 45.7734 48.6393 45.6301C48.607 45.4868 48.5408 45.3531 48.4461 45.2401C48.4461 45.2401 47.7398 44.3906 46.7741 43.4871C45.8083 42.5837 44.6491 41.5701 43.2727 41.2851H43.2727ZM42.8886 43.0996C42.8898 43.0996 42.8911 43.0996 42.8923 43.0996C43.4487 43.2146 44.6133 44.0178 45.4863 44.8344C45.7991 45.1271 45.7962 45.1555 46.0315 45.4031C45.835 45.4643 45.8531 45.4718 45.629 45.533C44.65 45.8 43.4375 45.9846 42.9362 45.9024C42.2316 45.7874 40.8751 45.0712 39.819 44.3593C39.4765 44.1284 39.4866 44.1111 39.2153 43.9104C39.4906 43.7973 39.4804 43.7788 39.8117 43.6605C40.9421 43.2583 42.3325 42.9838 42.8886 43.0992L42.8886 43.0996Z" fill="#9DC622"/>
<path fill-rule="evenodd" clip-rule="evenodd" d="M33.5809 0.00781714C33.4485 0.0132911 33.3188 0.0465294 33.2004 0.105266C33.082 0.164002 32.9775 0.246943 32.8938 0.348603C32.8101 0.450264 32.7492 0.568358 32.715 0.695049C32.6808 0.82174 32.6741 0.954175 32.6955 1.0836C32.6955 1.0836 32.8447 1.98396 33.1345 3.05373C33.4243 4.12332 33.7912 5.35619 34.5431 6.24813C35.4273 7.29714 36.8548 8.02848 38.103 8.61315C39.3512 9.19783 40.4263 9.57292 40.4263 9.57292C40.5722 9.62405 40.7285 9.63857 40.8815 9.61525C41.0344 9.59194 41.1792 9.53158 41.3027 9.43937C41.4263 9.34717 41.5249 9.22605 41.5897 9.08693C41.6544 8.9478 41.6834 8.79503 41.6739 8.64213C41.6739 8.64213 41.6049 7.5408 41.3592 6.24813C41.1136 4.95547 40.7785 3.46162 39.8336 2.43078C38.8885 1.40144 37.4206 0.928739 36.1456 0.561949C34.8696 0.194973 33.7711 0.0185693 33.7711 0.0185693C33.7085 0.00598144 33.6448 -0.000250178 33.5809 7.68584e-06V0.00781714ZM34.8504 2.16277C35.1855 2.2388 35.2084 2.22213 35.6224 2.34081C36.7759 2.67255 38.065 3.26046 38.4469 3.67713C38.829 4.0938 39.2969 5.42427 39.5189 6.59288C39.5839 6.93482 39.5626 6.93445 39.6031 7.22669C39.2905 7.09689 39.2795 7.11159 38.9043 6.93672C37.7494 6.39581 36.4423 5.60382 35.9846 5.06087C35.6593 4.67498 35.2049 3.54354 34.9419 2.5726C34.8817 2.35045 34.8972 2.36157 34.8504 2.16334L34.8504 2.16277Z" fill="#9DC622"/>
<path d="M28.7329 9.27588C19.9281 9.27588 12.7702 16.3296 12.7702 25.0064C12.7702 33.6832 19.9281 40.7369 28.7329 40.7369C37.5378 40.7369 44.6957 33.6832 44.6957 25.0064C44.6957 16.3296 37.5378 9.27588 28.7329 9.27588ZM28.7329 11.1265C36.5229 11.1265 42.8177 17.3299 42.8177 25.0064C42.8177 32.6831 36.5229 38.8863 28.7329 38.8863C20.943 38.8863 14.6482 32.6831 14.6482 25.0064C14.6482 17.3299 20.943 11.1265 28.7329 11.1265Z" fill="#9DC622"/>
<path fill-rule="evenodd" clip-rule="evenodd" d="M28.7329 25.8311C29.2897 25.8311 29.7411 26.2759 29.7411 26.8246V39.409C29.7411 39.9577 29.2897 40.4025 28.7329 40.4025C28.1761 40.4025 27.7248 39.9577 27.7248 39.409V26.8246C27.7248 26.2759 28.1761 25.8311 28.7329 25.8311Z" fill="#9DC622"/>
<path fill-rule="evenodd" clip-rule="evenodd" d="M35.4541 17.8831C35.8539 17.8831 36.2159 18.1158 36.3769 18.4764L40.0735 26.7557C40.1298 26.8818 40.1589 27.018 40.1589 27.1558C40.1589 29.7294 38.2843 32.1233 35.4541 32.1233C32.6239 32.1233 30.7493 29.7294 30.7493 27.1558C30.7493 27.018 30.7783 26.8818 30.8346 26.7557L34.5313 18.4764C34.6923 18.1158 35.0543 17.8831 35.4541 17.8831ZM32.771 27.3527C32.8587 28.9591 34.0155 30.1363 35.4541 30.1363C36.8927 30.1363 38.0494 28.9591 38.1372 27.3527L35.4541 21.3434L32.771 27.3527Z" fill="#9DC622"/>
<path fill-rule="evenodd" clip-rule="evenodd" d="M22.0118 17.8831C22.4115 17.8831 22.7735 18.1158 22.9345 18.4764L26.6312 26.7557C26.6875 26.8818 26.7166 27.018 26.7166 27.1558C26.7166 29.7294 24.8419 32.1233 22.0118 32.1233C19.1816 32.1233 17.3069 29.7294 17.3069 27.1558C17.3069 27.018 17.336 26.8818 17.3923 26.7557L21.089 18.4764C21.25 18.1158 21.612 17.8831 22.0118 17.8831ZM19.3286 27.3527C19.4164 28.9591 20.5732 30.1363 22.0118 30.1363C23.4503 30.1363 24.6071 28.9591 24.6949 27.3527L22.0118 21.3434L19.3286 27.3527Z" fill="#9DC622"/>
<path fill-rule="evenodd" clip-rule="evenodd" d="M38.8147 28.4804H32.0935V26.4934H38.8147V28.4804Z" fill="#9DC622"/>
<path fill-rule="evenodd" clip-rule="evenodd" d="M25.3723 28.4804H18.6512V26.4934H25.3723V28.4804Z" fill="#9DC622"/>
<path fill-rule="evenodd" clip-rule="evenodd" d="M30.0771 18.2142C30.0771 17.6655 30.5285 17.2207 31.0853 17.2207H37.8065C38.3633 17.2207 38.8147 17.6655 38.8147 18.2142C38.8147 18.7629 38.3633 19.2077 37.8065 19.2077H31.0853C30.5285 19.2077 30.0771 18.7629 30.0771 18.2142Z" fill="#9DC622"/>
<path fill-rule="evenodd" clip-rule="evenodd" d="M18.6512 18.2142C18.6512 17.6655 19.1026 17.2207 19.6594 17.2207H26.3805C26.9373 17.2207 27.3887 17.6655 27.3887 18.2142C27.3887 18.7629 26.9373 19.2077 26.3805 19.2077H19.6594C19.1026 19.2077 18.6512 18.7629 18.6512 18.2142Z" fill="#9DC622"/>
<path fill-rule="evenodd" clip-rule="evenodd" d="M28.7329 17.2207C28.1583 17.2207 27.6892 17.6811 27.6892 18.2531C27.6892 18.8251 28.1583 19.2856 28.7329 19.2856C29.3075 19.2856 29.7767 18.8251 29.7767 18.2531C29.7767 17.6811 29.3075 17.2207 28.7329 17.2207ZM25.6728 18.2531C25.6728 16.5873 27.041 15.2336 28.7329 15.2336C30.4248 15.2336 31.793 16.5873 31.793 18.2531C31.793 19.9189 30.4248 21.2726 28.7329 21.2726C27.041 21.2726 25.6728 19.9189 25.6728 18.2531Z" fill="#9DC622"/>
<path d="M29.7588 23.4935C29.7588 24.0529 29.2995 24.5064 28.7329 24.5064C28.1662 24.5064 27.7069 24.0529 27.7069 23.4935C27.7069 22.934 28.1662 22.4805 28.7329 22.4805C29.2995 22.4805 29.7588 22.934 29.7588 23.4935Z" fill="#9DC622"/>
<path d="M75.97 7.5564V9.41922H70.8976V22.014H68.7868V9.41922H63.7144V7.5564H75.97Z" fill="#202020"/>
<path d="M80.4182 12.4929C82.1755 12.4929 83.5197 12.9068 84.4508 13.7348C85.389 14.5627 85.8581 15.7597 85.8581 17.3259C85.8581 18.0434 85.7356 18.7023 85.4905 19.3025C85.2525 19.8959 84.9129 20.4099 84.4719 20.8445C84.0378 21.2723 83.5197 21.6069 82.9176 21.8484C82.3225 22.083 81.6679 22.2003 80.9538 22.2003C80.6387 22.2003 80.3306 22.1658 80.0296 22.0968C79.7285 22.0347 79.389 21.9277 79.0109 21.776V26.8884H77.0996V12.4929H80.4182ZM79.0109 14.1901V20.0891C79.606 20.3719 80.2081 20.5134 80.8172 20.5134C81.2653 20.5134 81.6749 20.434 82.0459 20.2753C82.424 20.1098 82.7496 19.8855 83.0226 19.6027C83.2957 19.3198 83.5092 18.9817 83.6632 18.5885C83.8172 18.1952 83.8943 17.7674 83.8943 17.3052C83.8943 16.8153 83.8137 16.3772 83.6527 15.9909C83.4917 15.6045 83.2676 15.2802 82.9806 15.018C82.7006 14.749 82.368 14.5454 81.9829 14.4075C81.6049 14.2626 81.1953 14.1901 80.7542 14.1901H79.0109Z" fill="#202020"/>
<path d="M89.6333 17.5432C89.9413 19.4474 91.023 20.3995 92.8783 20.3995C93.4734 20.3995 94.044 20.2995 94.5901 20.0994C95.1362 19.8993 95.6928 19.6199 96.2599 19.2611V21.0826C95.9659 21.2758 95.6753 21.4413 95.3883 21.5793C95.1082 21.7173 94.8142 21.8346 94.5061 21.9312C94.2051 22.0209 93.883 22.0864 93.5399 22.1278C93.1969 22.1761 92.8188 22.2003 92.4058 22.2003C91.6566 22.2003 90.9915 22.0623 90.4104 21.7863C89.8293 21.5034 89.3392 21.1274 88.9402 20.6583C88.5411 20.1891 88.2365 19.651 88.0265 19.0438C87.8235 18.4298 87.722 17.795 87.722 17.1396C87.722 16.4152 87.8305 15.7563 88.0475 15.1629C88.2715 14.5696 88.5831 14.0625 88.9822 13.6416C89.3812 13.2139 89.8573 12.8861 90.4104 12.6585C90.9635 12.4239 91.5726 12.3066 92.2377 12.3066C92.8818 12.3066 93.4594 12.417 93.9705 12.6378C94.4886 12.8516 94.9297 13.1759 95.2937 13.6106C95.6578 14.0452 95.9379 14.5903 96.1339 15.2457C96.3299 15.9012 96.4279 16.667 96.4279 17.5432H89.6333ZM94.5376 16.291C94.5096 15.5665 94.2961 14.9939 93.897 14.573C93.4979 14.1522 92.9588 13.9417 92.2797 13.9417C91.5376 13.9417 90.9495 14.1453 90.5154 14.5523C90.0884 14.9594 89.8083 15.5389 89.6753 16.291H94.5376Z" fill="#202020"/>
<path d="M102.855 14.1901V22.014H100.933V14.1901H97.5411V12.4929H106.247V14.1901H102.855Z" fill="#202020"/>
<path d="M109.246 17.5432C109.554 19.4474 110.635 20.3995 112.491 20.3995C113.086 20.3995 113.656 20.2995 114.202 20.0994C114.749 19.8993 115.305 19.6199 115.872 19.2611V21.0826C115.578 21.2758 115.288 21.4413 115.001 21.5793C114.721 21.7173 114.426 21.8346 114.118 21.9312C113.817 22.0209 113.495 22.0864 113.152 22.1278C112.809 22.1761 112.431 22.2003 112.018 22.2003C111.269 22.2003 110.604 22.0623 110.023 21.7863C109.442 21.5034 108.952 21.1274 108.552 20.6583C108.153 20.1891 107.849 19.651 107.639 19.0438C107.436 18.4298 107.334 17.795 107.334 17.1396C107.334 16.4152 107.443 15.7563 107.66 15.1629C107.884 14.5696 108.195 14.0625 108.594 13.6416C108.994 13.2139 109.47 12.8861 110.023 12.6585C110.576 12.4239 111.185 12.3066 111.85 12.3066C112.494 12.3066 113.072 12.417 113.583 12.6378C114.101 12.8516 114.542 13.1759 114.906 13.6106C115.27 14.0452 115.55 14.5903 115.746 15.2457C115.942 15.9012 116.04 16.667 116.04 17.5432H109.246ZM114.15 16.291C114.122 15.5665 113.908 14.9939 113.509 14.573C113.11 14.1522 112.571 13.9417 111.892 13.9417C111.15 13.9417 110.562 14.1453 110.128 14.5523C109.701 14.9594 109.421 15.5389 109.288 16.291H114.15Z" fill="#202020"/>
<path d="M125.024 15.9081L119.458 22.2003H118.377V12.4929H120.288V18.9817L125.906 12.4929H126.936V22.014H125.024V15.9081ZM121.107 8.38432C121.198 8.80518 121.394 9.13635 121.695 9.37783C121.933 9.5917 122.29 9.69864 122.766 9.69864C123.187 9.69864 123.519 9.59515 123.764 9.38817C124.009 9.17429 124.184 8.83968 124.289 8.38432H125.759C125.598 9.27433 125.255 9.95392 124.73 10.4231C124.212 10.8853 123.551 11.1165 122.745 11.1165C121.905 11.1165 121.223 10.8853 120.698 10.4231C120.173 9.95392 119.829 9.27433 119.668 8.38432H121.107Z" fill="#202020"/>
<path d="M136.944 21.6518C136.783 21.7277 136.59 21.8001 136.366 21.8691C136.142 21.9312 135.901 21.9864 135.642 22.0347C135.383 22.0899 135.117 22.1313 134.844 22.1589C134.577 22.1865 134.318 22.2003 134.066 22.2003C133.345 22.2003 132.684 22.083 132.082 21.8484C131.479 21.6138 130.961 21.2861 130.527 20.8652C130.1 20.4444 129.764 19.9442 129.519 19.3646C129.281 18.7782 129.162 18.1366 129.162 17.4397C129.162 16.6532 129.274 15.946 129.498 15.3182C129.722 14.6834 130.041 14.1453 130.454 13.7037C130.867 13.2553 131.367 12.9103 131.956 12.6688C132.544 12.4273 133.205 12.3066 133.94 12.3066C134.22 12.3066 134.479 12.3238 134.717 12.3583C134.956 12.3859 135.183 12.4273 135.4 12.4825C135.624 12.5377 135.845 12.6067 136.062 12.6895C136.279 12.7723 136.503 12.8654 136.734 12.9689V14.9766C136.461 14.7973 136.205 14.6489 135.967 14.5316C135.736 14.4075 135.512 14.3109 135.295 14.2419C135.085 14.166 134.879 14.1142 134.675 14.0866C134.479 14.059 134.276 14.0452 134.066 14.0452C133.632 14.0452 133.233 14.1246 132.869 14.2833C132.505 14.435 132.194 14.6524 131.935 14.9353C131.675 15.2181 131.472 15.5562 131.325 15.9495C131.185 16.3427 131.115 16.7808 131.115 17.2638C131.115 17.7605 131.192 18.2055 131.346 18.5988C131.5 18.9852 131.721 19.3129 132.008 19.582C132.295 19.851 132.638 20.058 133.037 20.2029C133.443 20.3478 133.895 20.4202 134.392 20.4202C134.798 20.4202 135.204 20.3685 135.61 20.265C136.016 20.1615 136.461 20.0028 136.944 19.7889V21.6518Z" fill="#202020"/>
<path d="M141.627 16.3324C142.047 16.3324 142.408 16.222 142.709 16.0012C143.01 15.7804 143.28 15.4527 143.518 15.018L144.095 13.9624C144.256 13.6727 144.414 13.4346 144.568 13.2484C144.729 13.0552 144.897 12.9034 145.072 12.793C145.254 12.6826 145.453 12.6067 145.67 12.5653C145.887 12.517 146.136 12.4929 146.416 12.4929H146.826V14.1901H146.395C146.171 14.1901 145.996 14.2488 145.87 14.3661C145.744 14.4833 145.625 14.6386 145.513 14.8318L145.019 15.7011C144.9 15.915 144.781 16.0943 144.662 16.2392C144.543 16.3841 144.421 16.5083 144.295 16.6118C144.169 16.7084 144.036 16.7912 143.896 16.8602C143.756 16.9292 143.602 16.9947 143.434 17.0568C143.672 17.1258 143.889 17.2189 144.085 17.3362C144.281 17.4466 144.466 17.5915 144.641 17.7709C144.823 17.9434 145.002 18.1572 145.177 18.4125C145.352 18.6678 145.537 18.9714 145.733 19.3232L147.193 22.014H145.093L143.78 19.4267C143.472 18.8334 143.126 18.416 142.74 18.1745C142.355 17.933 141.977 17.8123 141.606 17.8123H141.365V22.014H139.453V12.4929H141.365V16.3324H141.627Z" fill="#202020"/>
<path d="M155.789 15.9081L150.223 22.2003H149.141V12.4929H151.052V18.9817L156.671 12.4929H157.7V22.014H155.789V15.9081Z" fill="#202020"/>
<path d="M167.089 15.9081L161.523 22.2003H160.441V12.4929H162.352V18.9817L167.971 12.4929H169V22.014H167.089V15.9081ZM163.172 8.38432C163.263 8.80518 163.459 9.13635 163.76 9.37783C163.998 9.5917 164.355 9.69864 164.831 9.69864C165.251 9.69864 165.583 9.59515 165.828 9.38817C166.073 9.17429 166.249 8.83968 166.354 8.38432H167.824C167.663 9.27433 167.32 9.95392 166.795 10.4231C166.277 10.8853 165.615 11.1165 164.81 11.1165C163.97 11.1165 163.287 10.8853 162.762 10.4231C162.237 9.95392 161.894 9.27433 161.733 8.38432H163.172Z" fill="#202020"/>
<path d="M74.3406 40.1972C74.1795 40.2731 73.987 40.3456 73.763 40.4146C73.5389 40.4766 73.2974 40.5318 73.0383 40.5801C72.7793 40.6353 72.5132 40.6767 72.2402 40.7043C71.9742 40.7319 71.7151 40.7457 71.4631 40.7457C70.7419 40.7457 70.0803 40.6284 69.4782 40.3939C68.8761 40.1593 68.358 39.8316 67.924 39.4107C67.4969 38.9898 67.1608 38.4896 66.9158 37.9101C66.6777 37.3236 66.5587 36.682 66.5587 35.9852C66.5587 35.1986 66.6707 34.4915 66.8948 33.8636C67.1188 33.2289 67.4374 32.6907 67.8504 32.2492C68.2635 31.8007 68.7641 31.4557 69.3522 31.2143C69.9403 30.9728 70.6019 30.8521 71.337 30.8521C71.6171 30.8521 71.8761 30.8693 72.1142 30.9038C72.3522 30.9314 72.5798 30.9728 72.7968 31.028C73.0208 31.0832 73.2414 31.1522 73.4584 31.235C73.6754 31.3178 73.8995 31.4109 74.1305 31.5144V33.5221C73.8575 33.3427 73.6019 33.1944 73.3639 33.0771C73.1328 32.9529 72.9088 32.8563 72.6918 32.7873C72.4817 32.7114 72.2752 32.6597 72.0722 32.6321C71.8761 32.6045 71.6731 32.5907 71.4631 32.5907C71.029 32.5907 70.6299 32.67 70.2659 32.8287C69.9018 32.9805 69.5902 33.1978 69.3312 33.4807C69.0722 33.7636 68.8691 34.1016 68.7221 34.4949C68.5821 34.8882 68.5121 35.3263 68.5121 35.8092C68.5121 36.306 68.5891 36.751 68.7431 37.1443C68.8971 37.5306 69.1177 37.8583 69.4047 38.1274C69.6918 38.3965 70.0348 38.6035 70.4339 38.7484C70.84 38.8932 71.2915 38.9657 71.7886 38.9657C72.1947 38.9657 72.6008 38.9139 73.0068 38.8105C73.4129 38.707 73.8575 38.5483 74.3406 38.3344V40.1972Z" fill="#202020"/>
<path d="M84.9575 31.0383L78.1208 45.4338H75.9889L79.276 38.5207L75.5373 31.0383H77.7112L80.3157 36.4095L82.8046 31.0383H84.9575Z" fill="#202020"/>
<path d="M94.751 42.7017H92.8607V40.5594H86.4336V42.7017H84.5328V38.8622H85.3309L89.2481 30.8521H90.3193L93.9634 38.8622H94.751V42.7017ZM91.9575 38.8622L89.6576 33.8636L87.3157 38.8622H91.9575Z" fill="#202020"/>
<path d="M96.7984 40.5594V31.0383H98.7098V34.2465H100.926C101.528 34.2465 102.042 34.3431 102.469 34.5363C102.903 34.7295 103.257 34.9779 103.53 35.2814C103.81 35.5781 104.017 35.9127 104.15 36.2853C104.283 36.6579 104.349 37.0235 104.349 37.3823C104.349 37.7549 104.283 38.1309 104.15 38.5103C104.017 38.8829 103.81 39.221 103.53 39.5245C103.257 39.8281 102.903 40.0765 102.469 40.2697C102.042 40.4628 101.528 40.5594 100.926 40.5594H96.7984ZM98.7098 35.9438V38.8622H100.411C100.712 38.8622 100.985 38.8346 101.23 38.7794C101.482 38.7173 101.696 38.6242 101.871 38.5C102.053 38.3758 102.193 38.2206 102.291 38.0343C102.389 37.8411 102.438 37.6169 102.438 37.3616C102.438 37.1063 102.389 36.889 102.291 36.7096C102.193 36.5302 102.053 36.3853 101.871 36.2749C101.696 36.1577 101.482 36.0749 101.23 36.0266C100.985 35.9714 100.712 35.9438 100.411 35.9438H98.7098Z" fill="#202020"/>
<path d="M106.938 38.5207C107.204 38.1274 107.484 37.7756 107.778 37.4651C108.072 37.1546 108.408 36.9131 108.786 36.7407C108.464 36.6234 108.173 36.4854 107.914 36.3267C107.655 36.1611 107.431 35.9679 107.242 35.7471C107.06 35.5264 106.92 35.2745 106.822 34.9917C106.724 34.7019 106.675 34.3742 106.675 34.0085C106.675 33.5532 106.784 33.1426 107.001 32.777C107.225 32.4113 107.515 32.1008 107.872 31.8456C108.236 31.5834 108.65 31.3833 109.112 31.2453C109.574 31.1073 110.046 31.0383 110.529 31.0383H114.121V40.5594H112.21V37.0822H111.664C111.411 37.0822 111.166 37.1063 110.928 37.1546C110.697 37.2029 110.473 37.2857 110.256 37.403C110.046 37.5134 109.84 37.6686 109.637 37.8687C109.434 38.0619 109.238 38.3034 109.049 38.5931L107.778 40.5594H105.52L106.938 38.5207ZM112.21 35.6023V32.7356H110.529C109.913 32.7356 109.444 32.8529 109.122 33.0874C108.8 33.3151 108.639 33.6566 108.639 34.112C108.639 34.2845 108.671 34.4604 108.734 34.6398C108.804 34.8123 108.912 34.971 109.059 35.1159C109.213 35.2607 109.409 35.378 109.647 35.4677C109.892 35.5574 110.186 35.6023 110.529 35.6023H112.21Z" fill="#202020"/>
</svg>
