<svg width="23" height="18" viewBox="0 0 23 18" fill="none" xmlns="http://www.w3.org/2000/svg">
<path fill-rule="evenodd" clip-rule="evenodd" d="M23 2.1375C22.1536 2.48906 21.2341 2.74219 20.2855 2.84063C21.2633 2.27813 22.0076 1.39219 22.3579 0.3375C21.453 0.857813 20.4315 1.2375 19.3661 1.43438C18.5051 0.548438 17.2792 0 15.922 0C13.3096 0 11.2081 2.03906 11.2081 4.54219C11.2081 4.89375 11.2519 5.24531 11.3249 5.58281C7.41371 5.38594 3.92576 3.58594 1.60533 0.829687C1.1967 1.50469 0.963198 2.27813 0.963198 3.12188C0.963198 4.69688 1.79505 6.08906 3.06472 6.90469C2.29124 6.87656 1.56155 6.66563 0.93401 6.32812V6.38438C0.93401 8.59219 2.55393 10.4203 4.71383 10.8422C4.3198 10.9406 3.89657 10.9969 3.47335 10.9969C3.16688 10.9969 2.875 10.9688 2.58312 10.9266C3.18147 12.7266 4.91815 14.0344 6.99048 14.0766C5.37056 15.3 3.34201 16.0172 1.13832 16.0172C0.744289 16.0172 0.379442 16.0031 0 15.9609C2.08693 17.2547 4.56789 18 7.23858 18C15.9074 18 20.6504 11.0812 20.6504 5.07656C20.6504 4.87969 20.6504 4.68281 20.6358 4.48594C21.5552 3.83906 22.3579 3.0375 23 2.1375Z" fill="#9DC622"/>
</svg>
