<svg width="158" height="58" viewBox="0 0 158 58" fill="none" xmlns="http://www.w3.org/2000/svg">
<path d="M18.7812 0.4086V3.2211H11.2344V22.2367H8.09375V3.2211H0.546875V0.4086H18.7812ZM25.3994 7.86172C28.014 7.86172 30.014 8.48672 31.3994 9.73672C32.7952 10.9867 33.4931 12.794 33.4931 15.1586C33.4931 16.2419 33.3108 17.2367 32.9463 18.143C32.5921 19.0388 32.0869 19.8148 31.4306 20.4711C30.7848 21.1169 30.014 21.6221 29.1181 21.9867C28.2327 22.3409 27.2588 22.518 26.1963 22.518C25.7275 22.518 25.2692 22.4659 24.8213 22.3617C24.3733 22.268 23.8681 22.1065 23.3056 21.8773V29.5961H20.4619V7.86172H25.3994ZM23.3056 10.4242V19.3305C24.191 19.7576 25.0869 19.9711 25.9931 19.9711C26.6598 19.9711 27.2692 19.8513 27.8213 19.6117C28.3838 19.3617 28.8681 19.0232 29.2744 18.5961C29.6806 18.169 29.9983 17.6586 30.2275 17.0648C30.4567 16.4711 30.5713 15.8253 30.5713 15.1273C30.5713 14.3878 30.4515 13.7263 30.2119 13.143C29.9723 12.5596 29.639 12.0701 29.2119 11.6742C28.7952 11.268 28.3004 10.9607 27.7275 10.7523C27.165 10.5336 26.5556 10.4242 25.8994 10.4242H23.3056ZM39.11 15.4867C39.5683 18.3617 41.1777 19.7992 43.9381 19.7992C44.8235 19.7992 45.6725 19.6482 46.485 19.3461C47.2975 19.044 48.1256 18.6221 48.9694 18.0805V20.8305C48.5319 21.1221 48.0996 21.3721 47.6725 21.5805C47.2558 21.7888 46.8183 21.9659 46.36 22.1117C45.9121 22.2471 45.4329 22.3461 44.9225 22.4086C44.4121 22.4815 43.8496 22.518 43.235 22.518C42.1204 22.518 41.1308 22.3096 40.2663 21.893C39.4017 21.4659 38.6725 20.8982 38.0788 20.1898C37.485 19.4815 37.0319 18.669 36.7194 17.7523C36.4173 16.8253 36.2663 15.8669 36.2663 14.8773C36.2663 13.7836 36.4277 12.7888 36.7506 11.893C37.084 10.9971 37.5475 10.2315 38.1413 9.5961C38.735 8.95027 39.4433 8.45547 40.2663 8.11172C41.0892 7.75756 41.9954 7.58047 42.985 7.58047C43.9433 7.58047 44.8027 7.74714 45.5631 8.08047C46.334 8.40339 46.9902 8.89297 47.5319 9.54922C48.0735 10.2055 48.4902 11.0284 48.7819 12.018C49.0735 13.0076 49.2194 14.1638 49.2194 15.4867H39.11ZM46.4069 13.5961C46.3652 12.5023 46.0475 11.6378 45.4538 11.0023C44.86 10.3669 44.0579 10.0492 43.0475 10.0492C41.9433 10.0492 41.0683 10.3565 40.4225 10.9711C39.7871 11.5857 39.3704 12.4607 39.1725 13.5961H46.4069ZM58.7819 10.4242V22.2367H55.9225V10.4242H50.8756V7.86172H63.8288V10.4242H58.7819ZM68.29 15.4867C68.7483 18.3617 70.3577 19.7992 73.1181 19.7992C74.0035 19.7992 74.8525 19.6482 75.665 19.3461C76.4775 19.044 77.3056 18.6221 78.1494 18.0805V20.8305C77.7119 21.1221 77.2796 21.3721 76.8525 21.5805C76.4358 21.7888 75.9983 21.9659 75.54 22.1117C75.0921 22.2471 74.6129 22.3461 74.1025 22.4086C73.5921 22.4815 73.0296 22.518 72.415 22.518C71.3004 22.518 70.3108 22.3096 69.4463 21.893C68.5817 21.4659 67.8525 20.8982 67.2588 20.1898C66.665 19.4815 66.2119 18.669 65.8994 17.7523C65.5973 16.8253 65.4463 15.8669 65.4463 14.8773C65.4463 13.7836 65.6077 12.7888 65.9306 11.893C66.264 10.9971 66.7275 10.2315 67.3213 9.5961C67.915 8.95027 68.6233 8.45547 69.4463 8.11172C70.2692 7.75756 71.1754 7.58047 72.165 7.58047C73.1233 7.58047 73.9827 7.74714 74.7431 8.08047C75.514 8.40339 76.1702 8.89297 76.7119 9.54922C77.2535 10.2055 77.6702 11.0284 77.9619 12.018C78.2535 13.0076 78.3994 14.1638 78.3994 15.4867H68.29ZM75.5869 13.5961C75.5452 12.5023 75.2275 11.6378 74.6338 11.0023C74.04 10.3669 73.2379 10.0492 72.2275 10.0492C71.1233 10.0492 70.2483 10.3565 69.6025 10.9711C68.9671 11.5857 68.5504 12.4607 68.3525 13.5961H75.5869ZM91.7663 13.018L83.485 22.518H81.8756V7.86172H84.7194V17.6586L93.0788 7.86172H94.61V22.2367H91.7663V13.018ZM85.9381 1.6586C86.0735 2.29402 86.3652 2.79402 86.8131 3.1586C87.1673 3.48152 87.6985 3.64297 88.4069 3.64297C89.0319 3.64297 89.5267 3.48672 89.8913 3.17422C90.2558 2.85131 90.5163 2.3461 90.6725 1.6586H92.86C92.6204 3.00235 92.11 4.02839 91.3288 4.73672C90.5579 5.43464 89.5735 5.7836 88.3756 5.7836C87.1256 5.7836 86.11 5.43464 85.3288 4.73672C84.5475 4.02839 84.0371 3.00235 83.7975 1.6586H85.9381ZM109.501 21.6898C109.261 21.8044 108.975 21.9138 108.641 22.018C108.308 22.1117 107.949 22.1951 107.563 22.268C107.178 22.3513 106.782 22.4138 106.376 22.4555C105.98 22.4971 105.594 22.518 105.219 22.518C104.146 22.518 103.162 22.3409 102.266 21.9867C101.37 21.6326 100.6 21.1378 99.9538 20.5023C99.3183 19.8669 98.8183 19.1117 98.4538 18.2367C98.0996 17.3513 97.9225 16.3826 97.9225 15.3305C97.9225 14.143 98.0892 13.0753 98.4225 12.1273C98.7558 11.169 99.2298 10.3565 99.8444 9.68985C100.459 9.01277 101.204 8.49193 102.079 8.12735C102.954 7.76277 103.938 7.58047 105.032 7.58047C105.449 7.58047 105.834 7.60652 106.188 7.6586C106.542 7.70027 106.881 7.76277 107.204 7.8461C107.537 7.92943 107.865 8.0336 108.188 8.1586C108.511 8.2836 108.844 8.42422 109.188 8.58047V11.6117C108.782 11.3409 108.402 11.1169 108.048 10.9398C107.704 10.7523 107.37 10.6065 107.048 10.5023C106.735 10.3878 106.428 10.3096 106.126 10.268C105.834 10.2263 105.532 10.2055 105.219 10.2055C104.574 10.2055 103.98 10.3253 103.438 10.5648C102.896 10.794 102.433 11.1221 102.048 11.5492C101.662 11.9763 101.36 12.4867 101.141 13.0805C100.933 13.6742 100.829 14.3357 100.829 15.0648C100.829 15.8148 100.943 16.4867 101.173 17.0805C101.402 17.6638 101.73 18.1586 102.157 18.5648C102.584 18.9711 103.094 19.2836 103.688 19.5023C104.292 19.7211 104.964 19.8305 105.704 19.8305C106.308 19.8305 106.912 19.7523 107.516 19.5961C108.12 19.4398 108.782 19.2003 109.501 18.8773V21.6898ZM116.469 13.6586C117.094 13.6586 117.63 13.4919 118.078 13.1586C118.526 12.8253 118.927 12.3305 119.281 11.6742L120.141 10.0805C120.38 9.64297 120.615 9.2836 120.844 9.00235C121.083 8.71068 121.333 8.48152 121.594 8.31485C121.865 8.14818 122.161 8.0336 122.484 7.9711C122.807 7.89818 123.177 7.86172 123.594 7.86172H124.203V10.4242H123.562C123.229 10.4242 122.969 10.5128 122.781 10.6898C122.594 10.8669 122.417 11.1013 122.25 11.393L121.516 12.7055C121.339 13.0284 121.161 13.2992 120.984 13.518C120.807 13.7367 120.625 13.9242 120.438 14.0805C120.25 14.2263 120.052 14.3513 119.844 14.4555C119.635 14.5596 119.406 14.6586 119.156 14.7523C119.51 14.8565 119.833 14.9971 120.125 15.1742C120.417 15.3409 120.693 15.5596 120.953 15.8305C121.224 16.0909 121.49 16.4138 121.75 16.7992C122.01 17.1846 122.286 17.643 122.578 18.1742L124.75 22.2367H121.625L119.672 18.3305C119.214 17.4346 118.698 16.8044 118.125 16.4398C117.552 16.0753 116.99 15.893 116.438 15.893H116.078V22.2367H113.234V7.86172H116.078V13.6586H116.469ZM137.539 13.018L129.257 22.518H127.648V7.86172H130.492V17.6586L138.851 7.86172H140.382V22.2367H137.539V13.018ZM154.351 13.018L146.07 22.518H144.461V7.86172H147.304V17.6586L155.664 7.86172H157.195V22.2367H154.351V13.018ZM148.523 1.6586C148.659 2.29402 148.95 2.79402 149.398 3.1586C149.752 3.48152 150.284 3.64297 150.992 3.64297C151.617 3.64297 152.112 3.48672 152.476 3.17422C152.841 2.85131 153.101 2.3461 153.258 1.6586H155.445C155.205 3.00235 154.695 4.02839 153.914 4.73672C153.143 5.43464 152.159 5.7836 150.961 5.7836C149.711 5.7836 148.695 5.43464 147.914 4.73672C147.133 4.02839 146.622 3.00235 146.383 1.6586H148.523ZM16.3569 49.6898C16.1173 49.8044 15.8308 49.9138 15.4975 50.018C15.1642 50.1117 14.8048 50.1951 14.4194 50.268C14.034 50.3513 13.6381 50.4138 13.2319 50.4555C12.836 50.4971 12.4506 50.518 12.0756 50.518C11.0027 50.518 10.0183 50.3409 9.1225 49.9867C8.22667 49.6326 7.45583 49.1378 6.81 48.5023C6.17458 47.8669 5.67458 47.1117 5.31 46.2367C4.95583 45.3513 4.77875 44.3826 4.77875 43.3305C4.77875 42.143 4.94542 41.0753 5.27875 40.1273C5.61208 39.169 6.08604 38.3565 6.70062 37.6898C7.31521 37.0128 8.06 36.4919 8.935 36.1273C9.81 35.7628 10.7944 35.5805 11.8881 35.5805C12.3048 35.5805 12.6902 35.6065 13.0444 35.6586C13.3985 35.7003 13.7371 35.7628 14.06 35.8461C14.3933 35.9294 14.7215 36.0336 15.0444 36.1586C15.3673 36.2836 15.7006 36.4242 16.0444 36.5805V39.6117C15.6381 39.3409 15.2579 39.1169 14.9037 38.9398C14.56 38.7523 14.2267 38.6065 13.9037 38.5023C13.5912 38.3878 13.284 38.3096 12.9819 38.268C12.6902 38.2263 12.3881 38.2055 12.0756 38.2055C11.4298 38.2055 10.836 38.3253 10.2944 38.5648C9.75271 38.794 9.28917 39.1221 8.90375 39.5492C8.51833 39.9763 8.21625 40.4867 7.9975 41.0805C7.78917 41.6742 7.685 42.3357 7.685 43.0648C7.685 43.8148 7.79958 44.4867 8.02875 45.0805C8.25792 45.6638 8.58604 46.1586 9.01312 46.5648C9.44021 46.9711 9.95062 47.2836 10.5444 47.5023C11.1485 47.7211 11.8204 47.8305 12.56 47.8305C13.1642 47.8305 13.7683 47.7523 14.3725 47.5961C14.9767 47.4398 15.6381 47.2003 16.3569 46.8773V49.6898ZM32.1531 35.8617L21.9813 57.5961H18.8094L23.7 47.1586L18.1375 35.8617H21.3719L25.2469 43.9711L28.95 35.8617H32.1531ZM46.7244 53.4711H43.9119V50.2367H34.3494V53.4711H31.5212V47.6742H32.7087L38.5369 35.5805H40.1306L45.5525 47.6742H46.7244V53.4711ZM42.5681 47.6742L39.1462 40.1273L35.6619 47.6742H42.5681ZM49.7706 50.2367V35.8617H52.6144V40.7055H55.9113C56.8071 40.7055 57.5727 40.8513 58.2081 41.143C58.854 41.4346 59.38 41.8096 59.7863 42.268C60.2029 42.7159 60.5102 43.2211 60.7081 43.7836C60.906 44.3461 61.005 44.8982 61.005 45.4398C61.005 46.0023 60.906 46.5701 60.7081 47.143C60.5102 47.7055 60.2029 48.2159 59.7863 48.6742C59.38 49.1326 58.854 49.5076 58.2081 49.7992C57.5727 50.0909 56.8071 50.2367 55.9113 50.2367H49.7706ZM52.6144 43.268V47.6742H55.1456C55.5935 47.6742 55.9998 47.6326 56.3644 47.5492C56.7394 47.4555 57.0571 47.3148 57.3175 47.1273C57.5883 46.9398 57.7967 46.7055 57.9425 46.4242C58.0883 46.1326 58.1613 45.794 58.1613 45.4086C58.1613 45.0232 58.0883 44.6951 57.9425 44.4242C57.7967 44.1534 57.5883 43.9346 57.3175 43.768C57.0571 43.5909 56.7394 43.4659 56.3644 43.393C55.9998 43.3096 55.5935 43.268 55.1456 43.268H52.6144ZM64.8563 47.1586C65.2521 46.5648 65.6688 46.0336 66.1063 45.5648C66.5438 45.0961 67.0438 44.7315 67.6063 44.4711C67.1271 44.294 66.6948 44.0857 66.3094 43.8461C65.924 43.5961 65.5906 43.3044 65.3094 42.9711C65.0385 42.6378 64.8302 42.2576 64.6844 41.8305C64.5385 41.393 64.4656 40.8982 64.4656 40.3461C64.4656 39.6586 64.6271 39.0388 64.95 38.4867C65.2833 37.9346 65.7156 37.4659 66.2469 37.0805C66.7885 36.6846 67.4031 36.3826 68.0906 36.1742C68.7781 35.9659 69.4813 35.8617 70.2 35.8617H75.5438V50.2367H72.7V44.9867H71.8875C71.5125 44.9867 71.1479 45.0232 70.7938 45.0961C70.45 45.169 70.1167 45.294 69.7938 45.4711C69.4813 45.6378 69.174 45.8721 68.8719 46.1742C68.5698 46.4659 68.2781 46.8305 67.9969 47.268L66.1063 50.2367H62.7469L64.8563 47.1586ZM72.7 42.7523V38.4242H70.2C69.2833 38.4242 68.5854 38.6013 68.1063 38.9555C67.6271 39.2992 67.3875 39.8148 67.3875 40.5023C67.3875 40.7628 67.4344 41.0284 67.5281 41.2992C67.6323 41.5596 67.7938 41.7992 68.0125 42.018C68.2417 42.2367 68.5333 42.4138 68.8875 42.5492C69.2521 42.6846 69.6896 42.7523 70.2 42.7523H72.7Z" fill="#202020"/>
</svg>
