<svg width="49" height="38" viewBox="0 0 49 38" fill="none" xmlns="http://www.w3.org/2000/svg">
<path d="M34 19C34 21.76 36.24 24 39 24C41.76 24 44 21.76 44 19C44 16.24 41.76 14 39 14C36.24 14 34 16.24 34 19ZM42 19C42 20.65 40.65 22 39 22C37.35 22 36 20.65 36 19C36 17.35 37.35 16 39 16C40.65 16 42 17.35 42 19Z" fill="#9DC622"/>
<path d="M44.52 0H38.52H3.48C1.56 0 0 1.56 0 3.48V34.53C0 36.44 1.56 38 3.48 38H38.53H44.53C46.45 38 48.01 36.44 48.01 34.52V28V26V12V10V3.48C48 1.56 46.44 0 44.52 0ZM3.48 36C2.66 36 2 35.34 2 34.52V3.48C2 2.66 2.66 2 3.48 2H38.53C39.34 2 40 2.66 40 3.48V10H39C34.04 10 30 14.04 30 19C30 23.96 34.04 28 39 28H40V34.52C40 35.33 39.34 36 38.52 36H3.48ZM46 34.52C46 35.33 45.34 36 44.52 36H41.67C41.68 35.98 41.68 35.96 41.69 35.94C41.75 35.8 41.8 35.64 41.85 35.49C41.87 35.41 41.9 35.34 41.92 35.26C41.97 35.02 42 34.78 42 34.52V28H46V34.52ZM46 26H42H40H39C35.14 26 32 22.86 32 19C32 15.14 35.14 12 39 12H40H42H46V26ZM42 10V3.48C42 3.23 41.97 2.98 41.92 2.74C41.9 2.66 41.87 2.59 41.85 2.51C41.81 2.36 41.76 2.2 41.69 2.06C41.68 2.04 41.68 2.02 41.67 2H44.52C45.34 2 46 2.66 46 3.48V10H42Z" fill="#9DC622"/>
<path d="M21 34C21.5523 34 22 33.5523 22 33C22 32.4477 21.5523 32 21 32C20.4477 32 20 32.4477 20 33C20 33.5523 20.4477 34 21 34Z" fill="#9DC622"/>
<path d="M25 34C25.5523 34 26 33.5523 26 33C26 32.4477 25.5523 32 25 32C24.4477 32 24 32.4477 24 33C24 33.5523 24.4477 34 25 34Z" fill="#9DC622"/>
<path d="M17 34C17.5523 34 18 33.5523 18 33C18 32.4477 17.5523 32 17 32C16.4477 32 16 32.4477 16 33C16 33.5523 16.4477 34 17 34Z" fill="#9DC622"/>
<path d="M9 34C9.55228 34 10 33.5523 10 33C10 32.4477 9.55228 32 9 32C8.44772 32 8 32.4477 8 33C8 33.5523 8.44772 34 9 34Z" fill="#9DC622"/>
<path d="M5 34C5.55228 34 6 33.5523 6 33C6 32.4477 5.55228 32 5 32C4.44772 32 4 32.4477 4 33C4 33.5523 4.44772 34 5 34Z" fill="#9DC622"/>
<path d="M33 34C33.5523 34 34 33.5523 34 33C34 32.4477 33.5523 32 33 32C32.4477 32 32 32.4477 32 33C32 33.5523 32.4477 34 33 34Z" fill="#9DC622"/>
<path d="M37 34C37.5523 34 38 33.5523 38 33C38 32.4477 37.5523 32 37 32C36.4477 32 36 32.4477 36 33C36 33.5523 36.4477 34 37 34Z" fill="#9DC622"/>
<path d="M13 34C13.5523 34 14 33.5523 14 33C14 32.4477 13.5523 32 13 32C12.4477 32 12 32.4477 12 33C12 33.5523 12.4477 34 13 34Z" fill="#9DC622"/>
<path d="M29 34C29.5523 34 30 33.5523 30 33C30 32.4477 29.5523 32 29 32C28.4477 32 28 32.4477 28 33C28 33.5523 28.4477 34 29 34Z" fill="#9DC622"/>
<path d="M5 22C5.55228 22 6 21.5523 6 21C6 20.4477 5.55228 20 5 20C4.44772 20 4 20.4477 4 21C4 21.5523 4.44772 22 5 22Z" fill="#9DC622"/>
<path d="M5 18C5.55228 18 6 17.5523 6 17C6 16.4477 5.55228 16 5 16C4.44772 16 4 16.4477 4 17C4 17.5523 4.44772 18 5 18Z" fill="#9DC622"/>
<path d="M5 26C5.55228 26 6 25.5523 6 25C6 24.4477 5.55228 24 5 24C4.44772 24 4 24.4477 4 25C4 25.5523 4.44772 26 5 26Z" fill="#9DC622"/>
<path d="M5 30C5.55228 30 6 29.5523 6 29C6 28.4477 5.55228 28 5 28C4.44772 28 4 28.4477 4 29C4 29.5523 4.44772 30 5 30Z" fill="#9DC622"/>
<path d="M5 10C5.55228 10 6 9.55228 6 9C6 8.44772 5.55228 8 5 8C4.44772 8 4 8.44772 4 9C4 9.55228 4.44772 10 5 10Z" fill="#9DC622"/>
<path d="M5 14C5.55228 14 6 13.5523 6 13C6 12.4477 5.55228 12 5 12C4.44772 12 4 12.4477 4 13C4 13.5523 4.44772 14 5 14Z" fill="#9DC622"/>
<path d="M33 6C33.5523 6 34 5.55228 34 5C34 4.44772 33.5523 4 33 4C32.4477 4 32 4.44772 32 5C32 5.55228 32.4477 6 33 6Z" fill="#9DC622"/>
<path d="M29 6C29.5523 6 30 5.55228 30 5C30 4.44772 29.5523 4 29 4C28.4477 4 28 4.44772 28 5C28 5.55228 28.4477 6 29 6Z" fill="#9DC622"/>
<path d="M37 6C37.5523 6 38 5.55228 38 5C38 4.44772 37.5523 4 37 4C36.4477 4 36 4.44772 36 5C36 5.55228 36.4477 6 37 6Z" fill="#9DC622"/>
<path d="M25 6C25.5523 6 26 5.55228 26 5C26 4.44772 25.5523 4 25 4C24.4477 4 24 4.44772 24 5C24 5.55228 24.4477 6 25 6Z" fill="#9DC622"/>
<path d="M5 6C5.55228 6 6 5.55228 6 5C6 4.44772 5.55228 4 5 4C4.44772 4 4 4.44772 4 5C4 5.55228 4.44772 6 5 6Z" fill="#9DC622"/>
<path d="M13 6C13.5523 6 14 5.55228 14 5C14 4.44772 13.5523 4 13 4C12.4477 4 12 4.44772 12 5C12 5.55228 12.4477 6 13 6Z" fill="#9DC622"/>
<path d="M9 6C9.55228 6 10 5.55228 10 5C10 4.44772 9.55228 4 9 4C8.44772 4 8 4.44772 8 5C8 5.55228 8.44772 6 9 6Z" fill="#9DC622"/>
<path d="M21 6C21.5523 6 22 5.55228 22 5C22 4.44772 21.5523 4 21 4C20.4477 4 20 4.44772 20 5C20 5.55228 20.4477 6 21 6Z" fill="#9DC622"/>
<path d="M17 6C17.5523 6 18 5.55228 18 5C18 4.44772 17.5523 4 17 4C16.4477 4 16 4.44772 16 5C16 5.55228 16.4477 6 17 6Z" fill="#9DC622"/>
</svg>
