<svg width="42" height="60" viewBox="0 0 42 60" fill="none" xmlns="http://www.w3.org/2000/svg">
<path d="M15 36.9972C14.448 36.9972 14 36.5502 14 35.9972V24.9972C14 24.4442 14.448 23.9972 15 23.9972C15.552 23.9972 16 24.4442 16 24.9972V35.9972C16 36.5502 15.552 36.9972 15 36.9972Z" fill="#9DC622"/>
<path d="M27 36.9972C26.448 36.9972 26 36.5502 26 35.9972V24.9972C26 24.4442 26.448 23.9972 27 23.9972C27.552 23.9972 28 24.4442 28 24.9972V35.9972C28 36.5502 27.552 36.9972 27 36.9972Z" fill="#9DC622"/>
<path d="M21 50.9972C20.448 50.9972 20 50.5502 20 49.9972V35.9972C20 35.4442 20.448 34.9972 21 34.9972C21.552 34.9972 22 35.4442 22 35.9972V49.9972C22 50.5502 21.552 50.9972 21 50.9972Z" fill="#9DC622"/>
<path d="M25.079 50.9972H16.921C15.31 50.9972 14 49.6862 14 48.0762V36.4292C11.022 35.2392 9 32.3092 9 29.0582V20.9372C9 17.2392 11.542 14.1242 14.97 13.2452C13.715 11.8052 13 9.94524 13 7.99724C13 5.59924 14.062 3.34924 15.914 1.82124C17.766 0.296236 20.201 -0.311764 22.596 0.152236C25.816 0.777236 28.344 3.38124 28.886 6.62924C29.293 9.06724 28.596 11.4642 27.035 13.2452C30.46 14.1252 33 17.2402 33 20.9362V29.0572C33 32.3082 30.978 35.2382 28 36.4282V48.0752C28 49.6862 26.69 50.9972 25.079 50.9972ZM21.017 2.00024C19.619 2.00024 18.268 2.47324 17.187 3.36424C15.797 4.51024 15 6.19824 15 7.99724C15 9.95724 15.966 11.7982 17.584 12.9212C17.999 13.2112 18.175 13.7262 18.025 14.2032C17.875 14.6782 17.439 14.9972 16.939 14.9972C13.664 14.9972 11 17.6612 11 20.9362V29.0572C11 31.6802 12.76 34.0232 15.279 34.7562C15.706 34.8812 16 35.2722 16 35.7172V48.0762C16 48.5842 16.413 48.9972 16.921 48.9972H25.079C25.587 48.9972 26 48.5842 26 48.0762V35.7172C26 35.2732 26.294 34.8812 26.721 34.7572C29.24 34.0232 31 31.6812 31 29.0582V20.9372C31 17.6622 28.335 14.9982 25.061 14.9982H25.058C24.557 14.9982 24.121 14.6792 23.972 14.2022C23.822 13.7232 24 13.2102 24.414 12.9232C26.346 11.5832 27.304 9.29824 26.913 6.96024C26.514 4.56724 24.581 2.57624 22.214 2.11624C21.815 2.03824 21.414 2.00024 21.017 2.00024Z" fill="#9DC622"/>
<path d="M21 59.9973C11.626 59.9973 4 55.0623 4 48.9973C4 44.4343 8.221 40.4163 14.754 38.7613C15.054 38.6873 15.37 38.7523 15.614 38.9423C15.858 39.1323 16 39.4222 16 39.7302V48.0762C16 48.5842 16.413 48.9973 16.921 48.9973H25.079C25.587 48.9973 26 48.5842 26 48.0762V39.7302C26 39.4212 26.142 39.1303 26.386 38.9413C26.63 38.7523 26.947 38.6862 27.246 38.7602C33.779 40.4162 38 44.4333 38 48.9973C38 55.0623 30.374 59.9973 21 59.9973ZM14 41.0582C9.165 42.6162 6 45.7093 6 48.9973C6 53.9603 12.729 57.9973 21 57.9973C29.271 57.9973 36 53.9603 36 48.9973C36 45.7093 32.835 42.6152 28 41.0582V48.0772C28 49.6872 26.69 50.9983 25.079 50.9983H16.921C15.31 50.9983 14 49.6872 14 48.0772V41.0582Z" fill="#9DC622"/>
<path d="M9 49.9972H1C0.448 49.9972 0 49.5502 0 48.9972C0 48.4442 0.448 47.9972 1 47.9972H9C9.552 47.9972 10 48.4442 10 48.9972C10 49.5502 9.552 49.9972 9 49.9972Z" fill="#9DC622"/>
<path d="M41 49.9972H33C32.448 49.9972 32 49.5502 32 48.9972C32 48.4442 32.448 47.9972 33 47.9972H41C41.552 47.9972 42 48.4442 42 48.9972C42 49.5502 41.552 49.9972 41 49.9972Z" fill="#9DC622"/>
<path d="M21 59.9972C20.448 59.9972 20 59.5502 20 58.9972V54.9972C20 54.4442 20.448 53.9972 21 53.9972C21.552 53.9972 22 54.4442 22 54.9972V58.9972C22 59.5502 21.552 59.9972 21 59.9972Z" fill="#9DC622"/>
</svg>
