<svg width="54" height="60" viewBox="0 0 54 60" fill="none" xmlns="http://www.w3.org/2000/svg">
<path d="M43 28H23C22.448 28 22 27.552 22 27V13C22 12.448 22.448 12 23 12H43C43.552 12 44 12.448 44 13V27C44 27.552 43.552 28 43 28ZM24 26H42V14H24V26Z" fill="#9DC622"/>
<path d="M37 19H29C28.448 19 28 18.552 28 18C28 17.448 28.448 17 29 17H37C37.552 17 38 17.448 38 18C38 18.552 37.552 19 37 19Z" fill="#9DC622"/>
<path d="M39 23H27C26.448 23 26 22.552 26 22C26 21.448 26.448 21 27 21H39C39.552 21 40 21.448 40 22C40 22.552 39.552 23 39 23Z" fill="#9DC622"/>
<path d="M5 51C4.448 51 4 50.552 4 50V40C4 39.448 4.448 39 5 39C5.552 39 6 39.448 6 40V50C6 50.553 5.552 51 5 51Z" fill="#9DC622"/>
<path d="M5 45C2.243 45 0 42.757 0 40C0 37.243 2.243 35 5 35C7.757 35 10 37.243 10 40C10 40.552 9.552 41 9 41C8.448 41 8 40.552 8 40C8 38.346 6.654 37 5 37C3.346 37 2 38.346 2 40C2 41.654 3.346 43 5 43C5.552 43 6 43.448 6 44C6 44.552 5.552 45 5 45Z" fill="#9DC622"/>
<path d="M50.58 56H4V40.005H6V54H50.58C51.363 54 52 53.363 52 52.58V3.42403C52 2.64103 51.363 2.00403 50.58 2.00403H6.51C6.229 2.00403 6 2.23203 6 2.51403V11.996H4V2.51403C4 1.13003 5.126 0.00402832 6.51 0.00402832H50.58C52.466 0.00402832 54 1.53803 54 3.42403V52.58C54 54.466 52.466 56 50.58 56Z" fill="#9DC622"/>
<path d="M2.379 38C2.146 38 1.911 37.919 1.722 37.753C0.628 36.797 0 35.429 0 34C0 31.243 2.243 29 5 29C7.757 29 10 31.243 10 34C10 34.552 9.552 35 9 35C8.448 35 8 34.552 8 34C8 32.346 6.654 31 5 31C3.346 31 2 32.346 2 34C2 34.864 2.369 35.662 3.038 36.247C3.454 36.61 3.496 37.242 3.133 37.658C2.935 37.884 2.658 38 2.379 38Z" fill="#9DC622"/>
<path d="M2.379 32.0001C2.146 32.0001 1.911 31.9191 1.722 31.7531C0.628 30.7971 0 29.4291 0 28.0001C0 25.2431 2.243 23.0001 5 23.0001C7.757 23.0001 10 25.2431 10 28.0001C10 28.5521 9.552 29.0001 9 29.0001C8.448 29.0001 8 28.5521 8 28.0001C8 26.3461 6.654 25.0001 5 25.0001C3.346 25.0001 2 26.3461 2 28.0001C2 28.8641 2.369 29.6621 3.038 30.2471C3.454 30.6101 3.496 31.2421 3.133 31.6581C2.935 31.8841 2.658 32.0001 2.379 32.0001Z" fill="#9DC622"/>
<path d="M2.379 26C2.146 26 1.911 25.919 1.722 25.753C0.628 24.797 0 23.429 0 22C0 19.243 2.243 17 5 17C7.757 17 10 19.243 10 22C10 22.552 9.552 23 9 23C8.448 23 8 22.552 8 22C8 20.346 6.654 19 5 19C3.346 19 2 20.346 2 22C2 22.864 2.369 23.662 3.038 24.247C3.454 24.61 3.496 25.242 3.133 25.658C2.935 25.884 2.658 26 2.379 26Z" fill="#9DC622"/>
<path d="M2.379 20.0001C2.146 20.0001 1.911 19.9191 1.722 19.7531C0.628 18.7971 0 17.4291 0 16.0001C0 13.2431 2.243 11.0001 5 11.0001C7.757 11.0001 10 13.2431 10 16.0001C10 16.5521 9.552 17.0001 9 17.0001C8.448 17.0001 8 16.5521 8 16.0001C8 14.3461 6.654 13.0001 5 13.0001C3.346 13.0001 2 14.3461 2 16.0001C2 16.8641 2.369 17.6621 3.038 18.2471C3.454 18.6101 3.496 19.2421 3.133 19.6581C2.935 19.8841 2.658 20.0001 2.379 20.0001Z" fill="#9DC622"/>
<path d="M50.659 60H6.193C4.984 60 4 59.016 4 57.807V54H50.58C51.363 54 52 53.363 52 52.58H54V56.66C54 58.501 52.501 60 50.659 60ZM6 56V57.806C6 57.913 6.087 58 6.193 58H50.659C51.399 58 52 57.399 52 56.66V55.692C51.567 55.89 51.086 56 50.58 56H6Z" fill="#9DC622"/>
<path d="M13 56C12.448 56 12 55.552 12 55V1C12 0.448 12.448 0 13 0C13.552 0 14 0.448 14 1V55C14 55.552 13.552 56 13 56Z" fill="#9DC622"/>
</svg>
