<svg width="40" height="40" viewBox="0 0 40 40" fill="none" xmlns="http://www.w3.org/2000/svg">
<path d="M27.1463 27.1463C26.6538 27.6388 25.8563 27.6388 25.365 27.1463L19.9937 21.775L14.6975 27.0712C14.2087 27.56 13.4175 27.56 12.93 27.0712C12.4412 26.5825 12.4412 25.7912 12.93 25.3038L18.2263 20.0075L12.8938 14.675C12.4013 14.1825 12.4013 13.3851 12.8938 12.8938C13.3863 12.4025 14.1838 12.4025 14.675 12.8938L20.0076 18.2263L25.3038 12.9301C25.7926 12.4413 26.5838 12.4413 27.0713 12.9301C27.5601 13.4188 27.5601 14.2101 27.0713 14.6976L21.775 19.9938L27.1463 25.365C27.6388 25.8563 27.6388 26.655 27.1463 27.1463ZM20 40C8.95373 40 0 31.0463 0 20C0 8.95372 8.95373 -3.8147e-06 20 -3.8147e-06C31.045 -3.8147e-06 40 8.95503 40 20C40 31.045 31.0463 40 20 40ZM20 2.5C10.335 2.5 2.5 10.335 2.5 20C2.5 29.665 10.335 37.5 20 37.5C29.665 37.5 37.5 29.665 37.5 20C37.5 10.335 29.665 2.5 20 2.5Z" fill="black"/>
</svg>
