<svg width="22" height="22" viewBox="0 0 22 22" fill="none" xmlns="http://www.w3.org/2000/svg">
<path fill-rule="evenodd" clip-rule="evenodd" d="M20.7826 0H1.21745C0.544271 0 0 0.544271 0 1.21745V20.7826C0 21.4557 0.544271 22 1.21745 22H11.7448V13.4779H8.88021V10.1549H11.7448V7.70573C11.7448 4.86979 13.4922 3.32292 16.0273 3.32292C17.2305 3.32292 18.276 3.40885 18.5768 3.45182V6.41667L16.8294 6.43099C15.4401 6.43099 15.1823 7.07552 15.1823 8.03516V10.1549H18.4622L18.0326 13.4779H15.1823V22H20.7826C21.4557 22 22 21.4557 22 20.7826V1.21745C22 0.544271 21.4557 0 20.7826 0Z" fill="#9DC622"/>
</svg>
