<svg width="86" height="77" viewBox="0 0 86 77" fill="none" xmlns="http://www.w3.org/2000/svg">
<path d="M24.6658 11.9051C24.3517 11.9046 24.0467 12.0104 23.8002 12.2058C14.0133 19.7121 9.36986 32.1992 11.8625 44.3149C13.7099 53.2941 19.2313 60.9014 26.8323 65.4548C31.3153 68.14 38.8765 70.9563 43.0377 73.247L49.5319 76.8177C49.6926 76.9093 49.8698 76.9678 50.0532 76.9899C50.2367 77.0121 50.4227 76.9976 50.6004 76.9469C50.7781 76.8962 50.944 76.8104 51.0885 76.6947C51.233 76.5789 51.3531 76.4354 51.4418 76.2726C51.5306 76.1098 51.5863 75.9312 51.6056 75.7466C51.6249 75.562 51.6075 75.3752 51.5544 75.1974C51.5013 75.0196 51.4135 74.8545 51.2962 74.7111C51.1788 74.5677 51.0343 74.4492 50.871 74.3625L44.3768 70.7918C39.8324 68.2902 32.277 65.4524 28.2639 63.0488C21.3252 58.8924 16.2774 51.9548 14.5898 43.7517C12.3126 32.6836 16.5474 21.2884 25.4877 14.4314C25.7234 14.2566 25.8984 14.0117 25.9876 13.7314C26.0769 13.4511 26.0759 13.1499 25.9849 12.8702C25.8939 12.5905 25.7175 12.3466 25.4807 12.1733C25.2438 12.0001 24.9587 11.9062 24.6658 11.9051Z" fill="#9DC622"/>
<path fill-rule="evenodd" clip-rule="evenodd" d="M13.5446 6.84163C13.2892 6.84031 13.0384 6.90944 12.8195 7.04156C12.6007 7.17368 12.4221 7.36366 12.3034 7.59077C12.3034 7.59077 11.657 8.80887 11.0296 10.3577C10.4023 11.9065 9.72285 13.7184 9.80485 15.4704C9.90113 17.5307 10.9349 19.7042 11.8843 21.5346C12.8336 23.365 13.7623 24.7882 13.7623 24.7882C13.8894 24.981 14.062 25.1394 14.2648 25.2489C14.4676 25.3583 14.6943 25.4156 14.9245 25.4156C15.1547 25.4156 15.3814 25.3583 15.5842 25.2489C15.787 25.1394 15.9596 24.981 16.0867 24.7882C16.0867 24.7882 17.0064 23.4048 17.8885 21.6276C18.7707 19.8503 19.7282 17.7497 19.5434 15.6563C19.3588 13.5624 18.0451 11.6669 16.8651 10.0733C15.6851 8.48001 14.5407 7.27909 14.5407 7.27909C14.4124 7.14281 14.258 7.03403 14.0869 6.95886C13.9158 6.88368 13.7313 6.8438 13.5446 6.84163ZM13.8766 10.8389C14.2046 11.2314 14.2463 11.2314 14.6278 11.7466C15.6945 13.187 16.6925 15.056 16.7671 15.9024C16.8419 16.7485 16.1874 18.7689 15.3899 20.3754C15.1576 20.8435 15.1328 20.8253 14.9163 21.212C14.6648 20.7752 14.6394 20.7857 14.3557 20.2386C13.4773 18.5451 12.6418 16.4056 12.5919 15.3392C12.5565 14.5813 13.0459 12.819 13.6153 11.413C13.7452 11.0925 13.7524 11.1188 13.8766 10.8389Z" fill="#9DC622"/>
<path fill-rule="evenodd" clip-rule="evenodd" d="M3.42508 24.8154C3.23929 24.8168 3.05564 24.8555 2.88495 24.9292C2.71426 25.0029 2.55996 25.1102 2.43114 25.2447C2.30231 25.3791 2.20156 25.5383 2.1348 25.7125C2.06805 25.8867 2.03664 26.0724 2.04242 26.259C2.04242 26.259 2.08218 27.6358 2.29827 29.2938C2.51436 30.9518 2.81891 32.8692 3.7517 34.3519C4.84853 36.0955 6.80564 37.4693 8.53113 38.5897C10.2566 39.7102 11.77 40.4872 11.77 40.4872C11.9751 40.5926 12.203 40.6454 12.4333 40.6406C12.6637 40.6359 12.8892 40.5736 13.0898 40.4598C13.2905 40.3461 13.4599 40.1842 13.5829 39.9885C13.706 39.7929 13.7789 39.5697 13.795 39.3389C13.795 39.3389 13.9074 37.6801 13.8005 35.6971C13.6935 33.714 13.499 31.4106 12.3089 29.6821C11.1189 27.9533 9.04508 26.955 7.23556 26.1551C5.42603 25.3549 3.83878 24.8755 3.83878 24.8755C3.70461 24.8352 3.56514 24.8154 3.42508 24.8168L3.42508 24.8154ZM5.00915 28.3041C5.4872 28.4833 5.52409 28.461 6.10875 28.7197C7.74446 29.4428 9.53623 30.5745 10.0172 31.2733C10.4984 31.9721 10.9222 34.052 11.0188 35.8447C11.0472 36.3699 11.0169 36.3668 11.0188 36.8126C10.5827 36.555 10.5643 36.5746 10.0444 36.2384C8.44799 35.202 6.67101 33.7614 6.10331 32.8591C5.69974 32.2177 5.25974 30.4378 5.06359 28.9329C5.01883 28.5894 5.03887 28.6093 5.00916 28.3041H5.00915Z" fill="#9DC622"/>
<path fill-rule="evenodd" clip-rule="evenodd" d="M11.0787 47.8201C9.04867 47.3114 6.83945 47.9378 4.95467 48.5364C3.0699 49.1358 1.56334 49.8324 1.56334 49.8324C1.36287 49.9246 1.18705 50.0633 1.05032 50.237C0.913585 50.4108 0.819848 50.6148 0.776808 50.832C0.733768 51.0493 0.742654 51.2737 0.802735 51.4868C0.862816 51.6999 0.972378 51.8956 1.12242 52.0579C1.12242 52.0579 2.05864 53.0669 3.31072 54.1686C4.5628 55.2706 6.05029 56.5119 7.72544 57.0066C9.69525 57.5887 12.0729 57.3205 14.1053 57.0066C16.1376 56.7037 17.7797 56.2848 17.7797 56.2848C18.1242 56.1976 18.4226 55.9814 18.6139 55.6806C18.8051 55.3797 18.8747 55.0169 18.8085 54.6662C18.7668 54.4511 18.6755 54.2489 18.5418 54.0757C18.5418 54.0757 17.5358 52.7544 16.152 51.3361C14.7683 49.9178 13.1086 48.3179 11.0787 47.8091V47.8201ZM10.4037 50.5378C11.2244 50.7421 12.9143 52.0227 14.1651 53.3047C14.5292 53.6779 14.5036 53.695 14.7966 54.0265C14.3013 54.1244 14.3025 54.1553 13.6916 54.2448C11.8112 54.5251 9.52881 54.6169 8.50931 54.3146C7.78459 54.099 6.28168 53.0617 5.1452 52.0617C4.8845 51.8321 4.91182 51.835 4.68794 51.6242C5.16591 51.4394 5.18071 51.3975 5.79298 51.2032C7.49678 50.6614 9.58314 50.3303 10.4037 50.5361V50.5378Z" fill="#9DC622"/>
<path fill-rule="evenodd" clip-rule="evenodd" d="M21.367 62.3325C19.3192 62.7628 17.5945 64.2931 16.1576 65.6571C14.7207 67.0211 13.6699 68.3037 13.6699 68.3037C13.529 68.4743 13.4304 68.6762 13.3824 68.8926C13.3343 69.1089 13.338 69.3338 13.3933 69.5484C13.4486 69.763 13.5538 69.9612 13.7003 70.127C13.8468 70.2928 14.0304 70.4213 14.236 70.5019C14.236 70.5019 15.5164 71.0039 17.1211 71.4479C18.7258 71.8919 20.603 72.3522 22.3251 72.0658C24.3507 71.7282 26.3752 70.4496 28.0735 69.288C29.7718 68.1264 31.0674 67.0296 31.0674 67.0296C31.2123 66.908 31.331 66.7582 31.4164 66.5891C31.5018 66.42 31.5522 66.2352 31.5644 66.046C31.5766 65.8568 31.5504 65.6674 31.4875 65.4886C31.4245 65.3099 31.326 65.1458 31.1981 65.0064C31.0846 64.883 30.95 64.7811 30.8007 64.7057C30.8007 64.7057 29.3244 63.9559 27.4638 63.2839C25.6033 62.612 23.4152 61.9022 21.367 62.3325H21.367ZM21.9332 65.072C22.7607 64.8984 24.8348 65.3129 26.5166 65.9196C27.0095 66.0988 26.9943 66.1239 27.4039 66.2969C27.0004 66.5998 27.0153 66.6264 26.5058 66.9749C24.9345 68.0497 22.9162 69.1297 21.8679 69.3044C21.122 69.4276 19.3181 69.1503 17.8614 68.7466C17.528 68.6542 17.5549 68.6404 17.2626 68.5508C17.6127 68.177 17.6083 68.1338 18.0737 67.692C19.3726 66.459 21.1054 65.2469 21.9332 65.073V65.072Z" fill="#9DC622"/>
<path fill-rule="evenodd" clip-rule="evenodd" d="M35.6345 0.0119629C35.5905 0.0191926 35.5469 0.028563 35.5038 0.0399873C35.5038 0.0399873 33.8695 0.306042 31.971 0.860384C30.074 1.41416 27.8899 2.12767 26.4839 3.68179C25.0779 5.23814 24.5794 7.49357 24.2139 9.44524C23.8484 11.3969 23.7458 13.0597 23.7458 13.0597C23.7317 13.2905 23.7747 13.5212 23.8711 13.7313C23.9675 13.9413 24.1141 14.1242 24.298 14.2634C24.4818 14.4026 24.6972 14.4941 24.9247 14.5293C25.1523 14.5645 25.385 14.5426 25.602 14.4654C25.602 14.4654 27.2015 13.8987 29.0587 13.016C30.9158 12.1332 33.0398 11.029 34.3552 9.44524C35.4739 8.09858 36.0198 6.23752 36.451 4.62265C36.8822 3.00751 37.1042 1.6478 37.1042 1.6478C37.1384 1.4395 37.1252 1.22619 37.0656 1.02375C37.006 0.821297 36.9017 0.635015 36.7603 0.478808C36.6189 0.322601 36.4442 0.20047 36.2493 0.121668C36.0543 0.0428665 35.8441 0.00942901 35.6345 0.0237536L35.6345 0.0119629ZM33.898 3.26552C33.8285 3.56481 33.8514 3.54802 33.7619 3.88343C33.3705 5.34935 32.6945 7.05744 32.2105 7.64006C31.5296 8.45981 29.5847 9.6559 27.8665 10.4726C27.3083 10.7385 27.2919 10.7132 26.8268 10.91C26.887 10.4688 26.8553 10.4694 26.952 9.9531C27.2824 8.18872 27.9786 6.18031 28.547 5.55122C29.1152 4.92213 31.0332 4.03433 32.7494 3.53346C33.3653 3.35428 33.3994 3.37946 33.898 3.26467L33.898 3.26552Z" fill="#9DC622"/>
<path d="M61.7908 11.9105C61.5029 11.9219 61.2257 12.0227 60.9972 12.1989C60.7687 12.3752 60.6002 12.6184 60.5148 12.8947C60.4295 13.1711 60.4315 13.4671 60.5206 13.7423C60.6097 14.0175 60.7815 14.2582 61.0124 14.4313C69.9527 21.2883 74.1875 32.6836 71.9103 43.7516C70.2227 51.9548 65.1749 58.8924 58.2362 63.0488C54.2231 65.4523 46.6677 68.2902 42.1233 70.7917L35.6291 74.3624C35.4658 74.4492 35.3212 74.5677 35.2039 74.711C35.0866 74.8544 34.9988 75.0196 34.9457 75.1974C34.8926 75.3751 34.8752 75.562 34.8945 75.7466C34.9138 75.9312 34.9695 76.1098 35.0583 76.2725C35.147 76.4353 35.2671 76.5789 35.4116 76.6946C35.556 76.8103 35.722 76.8961 35.8997 76.9468C36.0774 76.9976 36.2634 77.012 36.4469 76.9899C36.6303 76.9678 36.8075 76.9092 36.9682 76.8176L43.4624 73.2469C47.6236 70.9562 55.1848 68.14 59.6678 65.4548C67.2688 60.9014 72.7902 53.2941 74.6376 44.3148C77.1302 32.1991 72.4868 19.712 62.6999 12.2058C62.441 12.0028 62.119 11.8983 61.7908 11.9105Z" fill="#9DC622"/>
<path fill-rule="evenodd" clip-rule="evenodd" d="M72.9446 6.84173C72.7597 6.84535 72.5773 6.88588 72.4082 6.96101C72.239 7.03613 72.0864 7.14422 71.9593 7.27918C71.9593 7.27918 70.8149 8.48011 69.6349 10.0734C68.455 11.667 67.1413 13.5625 66.9567 15.6564C66.7719 17.7498 67.7294 19.8504 68.6116 21.6277C69.4937 23.4049 70.4134 24.7883 70.4134 24.7883C70.5404 24.9811 70.7131 25.1395 70.9159 25.249C71.1187 25.3584 71.3453 25.4157 71.5756 25.4157C71.8058 25.4157 72.0324 25.3584 72.2352 25.249C72.438 25.1395 72.6107 24.9811 72.7378 24.7883C72.7378 24.7883 73.6665 23.3651 74.6158 21.5347C75.5651 19.7043 76.5989 17.5308 76.6952 15.4705C76.7772 13.7184 76.0978 11.9066 75.4704 10.3578C74.843 8.80897 74.1966 7.59087 74.1966 7.59087C74.0771 7.3621 73.8969 7.17082 73.6759 7.03859C73.4549 6.90635 73.2018 6.83839 72.9446 6.84173ZM72.6234 10.839C72.7477 11.1189 72.7548 11.094 72.8847 11.4131C73.4542 12.8191 73.9436 14.5814 73.9081 15.3393C73.8583 16.4057 73.0227 18.5452 72.1444 20.2387C71.8607 20.7858 71.8353 20.7753 71.5837 21.2121C71.3673 20.8254 71.3425 20.8436 71.1101 20.3755C70.3127 18.769 69.6582 16.7486 69.7329 15.9025C69.8075 15.0561 70.8056 13.1871 71.8722 11.7467C72.2537 11.2315 72.2955 11.2315 72.6234 10.839Z" fill="#9DC622"/>
<path fill-rule="evenodd" clip-rule="evenodd" d="M83.0639 24.8154C82.9275 24.8151 82.7918 24.8349 82.6611 24.8742C82.6611 24.8742 81.0739 25.3539 79.2643 26.1541C77.4548 26.954 75.381 27.9519 74.191 29.6807C73.0009 31.4093 72.8064 33.713 72.6994 35.696C72.5925 37.6791 72.705 39.3378 72.705 39.3378C72.7212 39.5687 72.794 39.7919 72.9171 39.9875C73.0402 40.1832 73.2096 40.3451 73.4102 40.4588C73.6108 40.5726 73.8364 40.6345 74.0667 40.6393C74.297 40.644 74.5249 40.5916 74.73 40.4862C74.73 40.4862 76.2434 39.7092 77.9689 38.5887C79.6944 37.4683 81.6515 36.0945 82.7483 34.3509C83.6811 32.8682 83.9857 30.9508 84.2018 29.2928C84.4179 27.6348 84.4576 26.258 84.4576 26.258C84.4634 26.0705 84.4317 25.8837 84.3643 25.7088C84.2968 25.5339 84.1951 25.3745 84.0651 25.2399C83.9351 25.1052 83.7795 24.9982 83.6076 24.9251C83.4356 24.8521 83.2508 24.8143 83.0641 24.8144L83.0639 24.8154ZM81.4908 28.3041C81.461 28.6093 81.481 28.5894 81.4363 28.9329C81.2402 30.4378 80.8002 32.2177 80.3966 32.8591C79.8289 33.7614 78.0519 35.202 76.4555 36.2384C75.9357 36.5761 75.9172 36.5561 75.4811 36.8126C75.483 36.3669 75.4528 36.3699 75.4811 35.8447C75.5777 34.0521 76.0015 31.9721 76.4827 31.2733C76.9637 30.5745 78.7555 29.4429 80.3912 28.7197C80.9758 28.4621 81.0127 28.4816 81.4908 28.3041Z" fill="#9DC622"/>
<path fill-rule="evenodd" clip-rule="evenodd" d="M75.4214 47.8199C73.3914 48.3286 71.7317 49.9286 70.348 51.3469C68.9642 52.7652 67.9583 54.0864 67.9583 54.0864C67.8245 54.2597 67.7332 54.4618 67.6915 54.677C67.6253 55.0277 67.6949 55.3905 67.8862 55.6914C68.0774 55.9922 68.3758 56.2084 68.7204 56.2956C68.7204 56.2956 70.3624 56.7145 72.3948 57.0174C74.4271 57.3203 76.8048 57.5885 78.7746 57.0174C80.4497 56.5227 81.9372 55.2814 83.1893 54.1794C84.4414 53.0777 85.3776 52.0687 85.3776 52.0687C85.5277 51.9064 85.6372 51.7104 85.6973 51.4973C85.7574 51.2842 85.7663 51.06 85.7232 50.8428C85.6802 50.6256 85.5864 50.4216 85.4497 50.2478C85.313 50.074 85.1372 49.9354 84.9367 49.8431C84.9367 49.8431 83.4301 49.1466 81.5454 48.5472C79.6606 47.9478 77.4514 47.3222 75.4214 47.8309L75.4214 47.8199ZM76.0964 50.5376C76.9169 50.3332 79.0032 50.6638 80.707 51.2047C81.3193 51.4007 81.3341 51.4427 81.8121 51.6258C81.5882 51.8357 81.6155 51.8328 81.3548 52.0632C80.2183 53.0633 78.7154 54.1019 77.9907 54.3161C76.9712 54.6174 74.6888 54.526 72.8085 54.246C72.1975 54.1537 72.1987 54.1232 71.7034 54.028C71.9965 53.6965 71.9708 53.6794 72.3349 53.3062C73.5858 52.0242 75.2756 50.7448 76.0964 50.5393V50.5376Z" fill="#9DC622"/>
<path fill-rule="evenodd" clip-rule="evenodd" d="M65.1329 62.3324C63.0847 61.9021 60.8967 62.6123 59.0361 63.2839C57.1756 63.9558 55.6992 64.7056 55.6992 64.7056C55.5499 64.7811 55.4153 64.883 55.3019 65.0064C55.1739 65.1457 55.0754 65.3099 55.0125 65.4886C54.9495 65.6673 54.9233 65.8568 54.9355 66.046C54.9478 66.2352 54.9981 66.42 55.0835 66.5891C55.1689 66.7581 55.2877 66.908 55.4325 67.0296C55.4325 67.0296 56.7282 68.1264 58.4264 69.288C60.1247 70.4495 62.1493 71.7281 64.1748 72.0658C65.8969 72.3522 67.7742 71.8922 69.3788 71.4479C70.9835 71.0038 72.2639 70.5019 72.2639 70.5019C72.4695 70.4213 72.6531 70.2928 72.7996 70.127C72.9461 69.9612 73.0513 69.763 73.1066 69.5484C73.1619 69.3338 73.1656 69.1089 73.1176 68.8925C73.0695 68.6762 72.9709 68.4743 72.83 68.3037C72.83 68.3037 71.7792 67.0211 70.3423 65.6571C68.9054 64.2931 67.1808 62.7628 65.1329 62.3324H65.1329ZM64.5613 65.072C64.5632 65.072 64.565 65.072 64.5669 65.072C65.3947 65.2456 67.1274 66.4583 68.4264 67.6912C68.8918 68.133 68.8874 68.176 69.2375 68.5497C68.9452 68.6421 68.9721 68.6535 68.6387 68.7459C67.182 69.1491 65.3781 69.4277 64.6322 69.3037C63.5839 69.1301 61.5656 68.0487 59.9943 66.9739C59.4847 66.6253 59.4997 66.5991 59.0961 66.2962C59.5058 66.1254 59.4906 66.0975 59.9834 65.9189C61.6653 65.3116 63.734 64.8972 64.5614 65.0713L64.5613 65.072Z" fill="#9DC622"/>
<path fill-rule="evenodd" clip-rule="evenodd" d="M50.7129 0.0118023C50.516 0.020067 50.3231 0.0702503 50.1469 0.15893C49.9707 0.24761 49.8152 0.372836 49.6907 0.526323C49.5662 0.67981 49.4755 0.858109 49.4246 1.04939C49.3738 1.24067 49.3639 1.44062 49.3956 1.63602C49.3956 1.63602 49.6177 2.99538 50.0488 4.61053C50.48 6.2254 51.0259 8.0868 52.1446 9.43346C53.4601 11.0172 55.584 12.1214 57.4412 13.0042C59.2983 13.8869 60.8978 14.4532 60.8978 14.4532C61.1149 14.5304 61.3476 14.5523 61.5751 14.5171C61.8027 14.4819 62.018 14.3908 62.2019 14.2516C62.3857 14.1124 62.5324 13.9295 62.6288 13.7195C62.7251 13.5094 62.7682 13.2788 62.7541 13.0479C62.7541 13.0479 62.6514 11.3851 62.2859 9.43346C61.9204 7.48178 61.4219 5.22636 60.016 3.67001C58.6099 2.11589 56.4259 1.40221 54.5289 0.848432C52.6304 0.294371 50.996 0.028036 50.996 0.028036C50.9029 0.0090308 50.808 -0.00037772 50.7129 1.16041e-05V0.0118023ZM52.6019 3.26536C53.1005 3.38015 53.1345 3.35498 53.7504 3.53416C55.4666 4.03502 57.3846 4.92265 57.9529 5.55174C58.5213 6.18083 59.2174 8.18959 59.5478 9.95396C59.6445 10.4702 59.6128 10.4697 59.673 10.9109C59.2079 10.7149 59.1915 10.7371 58.6333 10.4731C56.9151 9.65642 54.9702 8.46068 54.2894 7.64092C53.8053 7.05831 53.1293 5.35004 52.7379 3.88412C52.6484 3.54872 52.6714 3.56551 52.6018 3.26622L52.6019 3.26536Z" fill="#9DC622"/>
<path d="M43.5 14.0047C30.3998 14.0047 19.75 24.6545 19.75 37.7547C19.75 50.8549 30.3998 61.5047 43.5 61.5047C56.6002 61.5047 67.25 50.8549 67.25 37.7547C67.25 24.6545 56.6002 14.0047 43.5 14.0047ZM43.5 16.7988C55.0902 16.7988 64.4559 26.1647 64.4559 37.7547C64.4559 49.345 55.0902 58.7106 43.5 58.7106C31.9098 58.7106 22.5441 49.345 22.5441 37.7547C22.5441 26.1647 31.9098 16.7988 43.5 16.7988Z" fill="#9DC622"/>
<path d="M43.5 40.5V59.5" stroke="#9DC622" stroke-width="3" stroke-linecap="round" stroke-linejoin="round"/>
<path d="M53.5 28.5L59 41C59 44.2309 56.7189 47 53.5 47C50.2811 47 48 44.2309 48 41L53.5 28.5Z" stroke="#9DC622" stroke-width="3" stroke-linecap="round" stroke-linejoin="round"/>
<path d="M33.5 28.5L39 41C39 44.2309 36.7189 47 33.5 47C30.2811 47 28 44.2309 28 41L33.5 28.5Z" stroke="#9DC622" stroke-width="3" stroke-linecap="round" stroke-linejoin="round"/>
<path d="M48.5 41.5H58.5" stroke="#9DC622" stroke-width="3"/>
<path d="M28.5 41.5H38.5" stroke="#9DC622" stroke-width="3"/>
<path d="M47 27.5H57.0001" stroke="#9DC622" stroke-width="3" stroke-linecap="round" stroke-linejoin="round"/>
<path d="M30 27.5H39.9999" stroke="#9DC622" stroke-width="3" stroke-linecap="round" stroke-linejoin="round"/>
<path d="M46.553 27.5588C46.553 29.2482 45.1862 30.6176 43.5001 30.6176C41.814 30.6176 40.4471 29.2482 40.4471 27.5588C40.4471 25.8695 41.814 24.5 43.5001 24.5C45.1862 24.5 46.553 25.8695 46.553 27.5588Z" stroke="#9DC622" stroke-width="3" stroke-linecap="round" stroke-linejoin="round"/>
<path d="M45.0264 35.4706C45.0264 36.3153 44.343 37 43.4999 37C42.6569 37 41.9735 36.3153 41.9735 35.4706C41.9735 34.6259 42.6569 33.9412 43.4999 33.9412C44.343 33.9412 45.0264 34.6259 45.0264 35.4706Z" fill="#9DC622"/>
</svg>
