<svg width="22" height="22" viewBox="0 0 22 22" fill="none" xmlns="http://www.w3.org/2000/svg">
<path fill-rule="evenodd" clip-rule="evenodd" d="M14.6662 11.0004C14.6662 8.98099 13.0192 7.33398 10.9999 7.33398C8.9805 7.33398 7.3335 8.98099 7.3335 11.0004C7.3335 13.0197 8.9805 14.6667 10.9999 14.6667C13.0192 14.6667 14.6662 13.0197 14.6662 11.0004ZM16.6427 10.9997C16.6427 14.1218 14.1221 16.6425 10.9999 16.6425C7.87781 16.6425 5.35718 14.1218 5.35718 10.9997C5.35718 7.87756 7.87781 5.35693 10.9999 5.35693C14.1221 5.35693 16.6427 7.87756 16.6427 10.9997ZM18.1894 5.12815C18.1894 5.85856 17.6022 6.44575 16.8718 6.44575C16.1414 6.44575 15.5542 5.85856 15.5542 5.12815C15.5542 4.39774 16.1414 3.81055 16.8718 3.81055C17.6022 3.81055 18.1894 4.39774 18.1894 5.12815ZM21.9991 11.0002C21.9991 12.5183 22.0134 14.0221 21.9275 15.5402C21.8416 17.3018 21.4406 18.8629 20.1516 20.1518C18.8626 21.4408 17.3016 21.8418 15.54 21.9277C14.0219 22.0137 12.5181 21.9993 11 21.9993C9.48189 21.9993 7.97811 22.0137 6.46 21.9277C4.69843 21.8418 3.13736 21.4408 1.8484 20.1518C0.559443 18.8629 0.158434 17.3018 0.0725039 15.5402C-0.0134266 14.0221 0.000895109 12.5183 0.000895109 11.0002C0.000895109 9.48214 -0.0134266 7.97835 0.0725039 6.46025C0.158434 4.69867 0.559443 3.1376 1.8484 1.84865C3.13736 0.559687 4.69843 0.158679 6.46 0.072748C7.97811 -0.0131825 9.48189 0.00113925 11 0.00113925C12.5181 0.00113925 14.0219 -0.0131825 15.54 0.072748C17.3016 0.158679 18.8626 0.559687 20.1516 1.84865C21.4406 3.1376 21.8416 4.69867 21.9275 6.46025C22.0134 7.97835 21.9991 9.48214 21.9991 11.0002Z" fill="#9DC622"/>
</svg>
