<svg width="60" height="60" viewBox="0 0 60 60" fill="none" xmlns="http://www.w3.org/2000/svg">
<path d="M43.734 60H16.266C13.914 60 12 58.087 12 55.734V51C12 50.447 12.448 50 13 50H47C47.552 50 48 50.447 48 51V55.734C48 58.087 46.086 60 43.734 60ZM14 52V55.734C14 56.983 15.016 58 16.266 58H43.735C44.984 58 46 56.983 46 55.734V52H14Z" fill="#9DC622"/>
<path d="M33 56H27C26.448 56 26 55.553 26 55C26 54.447 26.448 54 27 54H33C33.552 54 34 54.447 34 55C34 55.553 33.552 56 33 56Z" fill="#9DC622"/>
<path d="M42 56H38C37.448 56 37 55.553 37 55C37 54.447 37.448 54 38 54H42C42.552 54 43 54.447 43 55C43 55.553 42.552 56 42 56Z" fill="#9DC622"/>
<path d="M22 56H18C17.448 56 17 55.553 17 55C17 54.447 17.448 54 18 54H22C22.552 54 23 54.447 23 55C23 55.553 22.552 56 22 56Z" fill="#9DC622"/>
<path d="M47 10H13C12.448 10 12 9.553 12 9V4.266C12 1.913 13.914 0 16.266 0H43.735C46.086 0 48 1.913 48 4.266V9C48 9.553 47.552 10 47 10ZM14 8H46V4.266C46 3.017 44.984 2 43.734 2H16.266C15.016 2 14 3.017 14 4.266V8Z" fill="#9DC622"/>
<path d="M35 6H25C24.448 6 24 5.553 24 5C24 4.447 24.448 4 25 4H35C35.552 4 36 4.447 36 5C36 5.553 35.552 6 35 6Z" fill="#9DC622"/>
<path d="M47 52H13C12.448 52 12 51.553 12 51V9C12 8.447 12.448 8 13 8H47C47.552 8 48 8.447 48 9V51C48 51.553 47.552 52 47 52ZM14 50H46V10H14V50Z" fill="#9DC622"/>
<path d="M51.9939 38.022C51.9009 38.022 51.8069 38.009 51.7129 37.982C51.1829 37.827 50.8789 37.272 51.0329 36.742C51.6699 34.561 51.9929 32.294 51.9929 30C51.9929 27.715 51.6719 25.453 51.0399 23.279C50.8859 22.749 51.1909 22.194 51.7209 22.04C52.2509 21.884 52.8059 22.189 52.9609 22.721C53.6459 25.076 53.9939 27.526 53.9939 30C53.9939 32.483 53.6439 34.94 52.9539 37.303C52.8259 37.739 52.4269 38.022 51.9939 38.022Z" fill="#9DC622"/>
<path d="M8.00596 38.022C7.57296 38.022 7.17396 37.739 7.04696 37.302C6.35696 34.94 6.00696 32.483 6.00696 29.999C6.00696 27.524 6.35496 25.075 7.03996 22.72C7.19496 22.189 7.74996 21.883 8.27996 22.039C8.80996 22.193 9.11496 22.748 8.96096 23.278C8.32796 25.453 8.00696 27.715 8.00696 30C8.00696 32.294 8.32996 34.562 8.96696 36.742C9.12196 37.272 8.81796 37.827 8.28696 37.982C8.19296 38.01 8.09896 38.022 8.00596 38.022Z" fill="#9DC622"/>
<path d="M3 42C2.618 42 2.253 41.779 2.086 41.408C0.741 38.396 0 34.346 0 30C0 25.654 0.741 21.604 2.087 18.592C2.313 18.088 2.905 17.862 3.408 18.087C3.912 18.313 4.138 18.904 3.913 19.408C2.679 22.168 2 25.93 2 30C2 34.07 2.679 37.832 3.913 40.592C4.138 41.096 3.912 41.688 3.408 41.913C3.275 41.973 3.137 42 3 42Z" fill="#9DC622"/>
<path d="M57 42C56.864 42 56.725 41.973 56.593 41.913C56.089 41.687 55.863 41.096 56.088 40.592C57.321 37.832 58 34.07 58 30C58 25.93 57.321 22.168 56.087 19.408C55.862 18.904 56.088 18.312 56.592 18.087C57.097 17.861 57.687 18.088 57.913 18.592C59.259 21.604 60 25.654 60 30C60 34.346 59.259 38.396 57.913 41.408C57.747 41.779 57.382 42 57 42Z" fill="#9DC622"/>
<path d="M29 18H27C26.448 18 26 17.553 26 17C26 16.447 26.448 16 27 16H29C29.552 16 30 16.447 30 17C30 17.553 29.552 18 29 18Z" fill="#9DC622"/>
<path d="M43 18H41C40.448 18 40 17.553 40 17C40 16.447 40.448 16 41 16H43C43.552 16 44 16.447 44 17C44 17.553 43.552 18 43 18Z" fill="#9DC622"/>
<path d="M37 18H33C32.448 18 32 17.553 32 17C32 16.447 32.448 16 33 16H37C37.552 16 38 16.447 38 17C38 17.553 37.552 18 37 18Z" fill="#9DC622"/>
<path d="M29 22H27C26.448 22 26 21.553 26 21C26 20.447 26.448 20 27 20H29C29.552 20 30 20.447 30 21C30 21.553 29.552 22 29 22Z" fill="#9DC622"/>
<path d="M43 22H33C32.448 22 32 21.553 32 21C32 20.447 32.448 20 33 20H43C43.552 20 44 20.447 44 21C44 21.553 43.552 22 43 22Z" fill="#9DC622"/>
<path d="M29 29H27C26.448 29 26 28.553 26 28C26 27.447 26.448 27 27 27H29C29.552 27 30 27.447 30 28C30 28.553 29.552 29 29 29Z" fill="#9DC622"/>
<path d="M43 29H41C40.448 29 40 28.553 40 28C40 27.447 40.448 27 41 27H43C43.552 27 44 27.447 44 28C44 28.553 43.552 29 43 29Z" fill="#9DC622"/>
<path d="M37 29H33C32.448 29 32 28.553 32 28C32 27.447 32.448 27 33 27H37C37.552 27 38 27.447 38 28C38 28.553 37.552 29 37 29Z" fill="#9DC622"/>
<path d="M29 33H27C26.448 33 26 32.553 26 32C26 31.447 26.448 31 27 31H29C29.552 31 30 31.447 30 32C30 32.553 29.552 33 29 33Z" fill="#9DC622"/>
<path d="M43 33H33C32.448 33 32 32.553 32 32C32 31.447 32.448 31 33 31H43C43.552 31 44 31.447 44 32C44 32.553 43.552 33 43 33Z" fill="#9DC622"/>
<path d="M29 40H27C26.448 40 26 39.553 26 39C26 38.447 26.448 38 27 38H29C29.552 38 30 38.447 30 39C30 39.553 29.552 40 29 40Z" fill="#9DC622"/>
<path d="M43 40H41C40.448 40 40 39.553 40 39C40 38.447 40.448 38 41 38H43C43.552 38 44 38.447 44 39C44 39.553 43.552 40 43 40Z" fill="#9DC622"/>
<path d="M37 40H33C32.448 40 32 39.553 32 39C32 38.447 32.448 38 33 38H37C37.552 38 38 38.447 38 39C38 39.553 37.552 40 37 40Z" fill="#9DC622"/>
<path d="M29 44H27C26.448 44 26 43.553 26 43C26 42.447 26.448 42 27 42H29C29.552 42 30 42.447 30 43C30 43.553 29.552 44 29 44Z" fill="#9DC622"/>
<path d="M43 44H33C32.448 44 32 43.553 32 43C32 42.447 32.448 42 33 42H43C43.552 42 44 42.447 44 43C44 43.553 43.552 44 43 44Z" fill="#9DC622"/>
<path d="M19 23C18.744 23 18.488 22.902 18.293 22.707L16.293 20.707C15.902 20.316 15.902 19.684 16.293 19.293C16.683 18.902 17.317 18.902 17.707 19.293L19.707 21.293C20.098 21.684 20.098 22.316 19.707 22.707C19.512 22.902 19.256 23 19 23Z" fill="#9DC622"/>
<path d="M18.999 23C18.78 23 18.559 22.929 18.375 22.781C17.944 22.435 17.874 21.806 18.219 21.375L22.219 16.375C22.564 15.945 23.193 15.874 23.625 16.219C24.056 16.565 24.126 17.194 23.781 17.625L19.781 22.625C19.583 22.871 19.293 23 18.999 23Z" fill="#9DC622"/>
<path d="M19 34C18.744 34 18.488 33.902 18.293 33.707L16.293 31.707C15.902 31.316 15.902 30.684 16.293 30.293C16.683 29.902 17.317 29.902 17.707 30.293L19.707 32.293C20.098 32.684 20.098 33.316 19.707 33.707C19.512 33.902 19.256 34 19 34Z" fill="#9DC622"/>
<path d="M18.999 34C18.78 34 18.559 33.929 18.375 33.781C17.944 33.435 17.874 32.806 18.219 32.375L22.219 27.375C22.564 26.945 23.193 26.873 23.625 27.219C24.057 27.565 24.126 28.194 23.781 28.625L19.781 33.625C19.583 33.871 19.293 34 18.999 34Z" fill="#9DC622"/>
<path d="M19 45C18.744 45 18.488 44.902 18.293 44.707L16.293 42.707C15.902 42.316 15.902 41.684 16.293 41.293C16.683 40.902 17.317 40.902 17.707 41.293L19.707 43.293C20.098 43.684 20.098 44.316 19.707 44.707C19.512 44.902 19.256 45 19 45Z" fill="#9DC622"/>
<path d="M18.999 45C18.78 45 18.559 44.929 18.375 44.781C17.944 44.435 17.874 43.806 18.219 43.375L22.219 38.375C22.564 37.945 23.193 37.873 23.625 38.219C24.057 38.565 24.126 39.194 23.781 39.625L19.781 44.625C19.583 44.871 19.293 45 18.999 45Z" fill="#9DC622"/>
</svg>
