<svg width="430" height="243" viewBox="0 0 430 243" fill="none" xmlns="http://www.w3.org/2000/svg">
<g filter="url(#filter0_dd)">
<rect x="3" y="4" width="415" height="227" rx="10" fill="#9DC622"/>
<rect x="3.5" y="4.5" width="414" height="226" rx="9.5" stroke="url(#paint0_linear)" stroke-opacity="0.16" style="mix-blend-mode:soft-light"/>
</g>
<mask id="mask0" mask-type="alpha" maskUnits="userSpaceOnUse" x="3" y="4" width="415" height="227">
<rect x="3" y="4" width="415" height="227" rx="10" fill="#61FF00"/>
<rect x="3.5" y="4.5" width="414" height="226" rx="9.5" stroke="url(#paint1_linear)" stroke-opacity="0.16"/>
</mask>
<g mask="url(#mask0)">
<path d="M336.233 31.7422C334.733 31.7399 333.276 32.2443 332.099 33.1757C285.352 68.9524 263.172 128.469 275.079 186.215C283.902 229.012 310.275 265.27 346.581 286.973C367.994 299.771 404.11 313.194 423.986 324.112L455.005 341.131C455.772 341.568 456.619 341.846 457.495 341.952C458.371 342.058 459.26 341.989 460.109 341.747C460.958 341.505 461.75 341.096 462.44 340.545C463.13 339.993 463.704 339.309 464.128 338.533C464.552 337.757 464.818 336.906 464.91 336.026C465.002 335.146 464.919 334.256 464.665 333.408C464.412 332.561 463.992 331.774 463.432 331.09C462.872 330.407 462.181 329.842 461.401 329.429L430.382 312.41C408.676 300.487 372.587 286.961 353.419 275.506C320.277 255.695 296.166 222.629 288.105 183.531C277.228 130.778 297.456 76.4654 340.159 43.7832C341.285 42.9503 342.12 41.7831 342.547 40.4471C342.973 39.1112 342.968 37.6755 342.534 36.3423C342.099 35.0091 341.256 33.8467 340.125 33.0209C338.994 32.1952 337.632 31.7478 336.233 31.7422Z" fill="#A5CE2C"/>
<path fill-rule="evenodd" clip-rule="evenodd" d="M283.113 7.60877C281.893 7.60248 280.696 7.93196 279.65 8.56168C278.605 9.19141 277.752 10.0969 277.185 11.1793C277.185 11.1793 274.097 16.9851 271.101 24.367C268.104 31.7489 264.859 40.3848 265.251 48.7355C265.71 58.5554 270.648 68.9146 275.183 77.6389C279.717 86.3633 284.153 93.1462 284.153 93.1462C284.76 94.0654 285.585 94.8202 286.553 95.3419C287.522 95.8637 288.605 96.1368 289.704 96.1368C290.804 96.1368 291.887 95.8637 292.855 95.3419C293.824 94.8202 294.649 94.0654 295.256 93.1462C295.256 93.1462 299.648 86.5528 303.862 78.082C308.075 69.6112 312.649 59.599 311.766 49.6217C310.885 39.6416 304.61 30.6072 298.974 23.0118C293.338 15.4177 287.871 9.69378 287.871 9.69378C287.258 9.04428 286.521 8.52578 285.704 8.16749C284.886 7.80919 284.005 7.61909 283.113 7.60877ZM284.699 26.6605C286.266 28.5314 286.465 28.5316 288.287 30.9869C293.382 37.8524 298.149 46.7606 298.506 50.7945C298.863 54.827 295.736 64.4568 291.927 72.1137C290.818 74.3448 290.699 74.2584 289.665 76.1012C288.464 74.0196 288.342 74.0695 286.987 71.4621C282.792 63.3903 278.801 53.1928 278.563 48.11C278.394 44.4978 280.731 36.0985 283.451 29.3971C284.072 27.8692 284.106 27.9949 284.699 26.6605Z" fill="#A5CE2C"/>
<path fill-rule="evenodd" clip-rule="evenodd" d="M234.777 93.276C233.89 93.2826 233.013 93.467 232.197 93.8184C231.382 94.1698 230.645 94.6808 230.03 95.3219C229.414 95.9629 228.933 96.7217 228.614 97.5518C228.295 98.382 228.145 99.2673 228.173 100.156C228.173 100.156 228.363 106.719 229.395 114.621C230.427 122.524 231.882 131.662 236.337 138.729C241.576 147.04 250.924 153.587 259.166 158.928C267.408 164.268 274.637 167.971 274.637 167.971C275.616 168.474 276.705 168.725 277.805 168.703C278.905 168.68 279.982 168.383 280.941 167.841C281.899 167.299 282.708 166.527 283.296 165.595C283.884 164.662 284.232 163.598 284.309 162.498C284.309 162.498 284.846 154.592 284.335 145.14C283.824 135.689 282.895 124.71 277.211 116.472C271.526 108.232 261.621 103.474 252.978 99.6613C244.335 95.8476 236.753 93.5626 236.753 93.5626C236.112 93.3702 235.446 93.2758 234.777 93.2825L234.777 93.276ZM242.343 109.904C244.627 110.758 244.803 110.652 247.596 111.885C255.409 115.331 263.967 120.725 266.264 124.056C268.563 127.387 270.587 137.3 271.048 145.844C271.184 148.348 271.039 148.333 271.048 150.457C268.965 149.23 268.877 149.323 266.394 147.721C258.769 142.781 250.281 135.915 247.57 131.614C245.642 128.557 243.54 120.073 242.603 112.901C242.39 111.264 242.485 111.358 242.343 109.904H242.343Z" fill="#A5CE2C"/>
<path fill-rule="evenodd" clip-rule="evenodd" d="M271.335 202.922C261.638 200.497 251.086 203.483 242.083 206.336C233.081 209.193 225.885 212.513 225.885 212.513C224.927 212.952 224.088 213.613 223.434 214.442C222.781 215.27 222.334 216.242 222.128 217.277C221.922 218.313 221.965 219.383 222.252 220.398C222.539 221.414 223.062 222.347 223.779 223.12C223.779 223.12 228.251 227.93 234.231 233.181C240.212 238.433 247.317 244.349 255.318 246.707C264.727 249.481 276.084 248.203 285.791 246.707C295.498 245.263 303.342 243.267 303.342 243.267C304.987 242.851 306.413 241.821 307.326 240.387C308.24 238.953 308.572 237.224 308.256 235.552C308.057 234.527 307.62 233.563 306.982 232.737C306.982 232.737 302.177 226.44 295.567 219.68C288.958 212.92 281.03 205.294 271.335 202.87V202.922ZM268.11 215.875C272.031 216.849 280.102 222.952 286.077 229.063C287.816 230.841 287.693 230.923 289.093 232.503C286.727 232.97 286.733 233.117 283.815 233.544C274.834 234.879 263.932 235.317 259.062 233.876C255.601 232.849 248.422 227.905 242.994 223.138C241.748 222.044 241.879 222.058 240.809 221.053C243.092 220.173 243.163 219.973 246.088 219.046C254.226 216.464 264.191 214.886 268.11 215.867V215.875Z" fill="#A5CE2C"/>
<path fill-rule="evenodd" clip-rule="evenodd" d="M388.624 -24.943C388.414 -24.9085 388.206 -24.8639 388.001 -24.8094C388.001 -24.8094 380.194 -23.5413 371.126 -20.8992C362.065 -18.2597 351.633 -14.859 344.917 -7.45172C338.201 -0.0337677 335.82 10.7161 334.075 20.0182C332.329 29.3204 331.839 37.2456 331.839 37.2456C331.771 38.3459 331.977 39.4453 332.437 40.4464C332.897 41.4476 333.598 42.3191 334.476 42.9826C335.354 43.6462 336.383 44.0822 337.47 44.2499C338.557 44.4177 339.668 44.3133 340.705 43.9453C340.705 43.9453 348.345 41.2445 357.215 37.0371C366.086 32.8297 376.231 27.567 382.514 20.0182C387.858 13.5998 390.465 4.72952 392.525 -2.96733C394.584 -10.6655 395.645 -17.1462 395.645 -17.1462C395.808 -18.139 395.745 -19.1557 395.46 -20.1206C395.176 -21.0855 394.677 -21.9734 394.002 -22.7179C393.327 -23.4624 392.492 -24.0445 391.561 -24.4201C390.63 -24.7957 389.626 -24.9551 388.625 -24.8868L388.624 -24.943ZM380.33 -9.43573C379.998 -8.00926 380.108 -8.08928 379.68 -6.49066C377.811 0.496279 374.582 8.63744 372.27 11.4143C369.018 15.3215 359.728 21.0223 351.521 24.9148C348.855 26.1824 348.777 26.0617 346.555 26.9998C346.843 24.8967 346.691 24.8994 347.153 22.4388C348.731 14.0294 352.056 4.45683 354.771 1.45843C357.485 -1.53998 366.647 -5.77142 374.844 -8.15867C377.786 -9.01269 377.949 -8.8927 380.33 -9.43981L380.33 -9.43573Z" fill="#A5CE2C"/>
<path d="M513.559 31.7681C512.185 31.8227 510.86 32.303 509.769 33.1429C508.677 33.9829 507.873 35.1421 507.465 36.4594C507.057 37.7767 507.067 39.1875 507.492 40.4991C507.918 41.8107 508.739 42.958 509.841 43.783C552.545 76.4652 572.772 130.778 561.895 183.531C553.834 222.629 529.724 255.695 496.581 275.505C477.413 286.961 441.325 300.487 419.618 312.41L388.599 329.429C387.819 329.842 387.129 330.407 386.568 331.09C386.008 331.774 385.588 332.561 385.335 333.408C385.081 334.256 384.998 335.146 385.09 336.026C385.182 336.906 385.448 337.757 385.872 338.533C386.296 339.309 386.87 339.993 387.56 340.545C388.25 341.096 389.043 341.505 389.891 341.747C390.74 341.988 391.629 342.058 392.505 341.952C393.381 341.846 394.228 341.568 394.995 341.131L426.014 324.112C445.89 313.194 482.006 299.771 503.419 286.973C539.725 265.27 566.098 229.012 574.922 186.215C586.828 128.469 564.649 68.9522 517.902 33.1755C516.665 32.2081 515.127 31.7099 513.559 31.7681Z" fill="#A5CE2C"/>
<path d="M426.194 41.7498C363.621 41.7498 312.753 92.5092 312.753 154.948C312.753 217.387 363.621 268.146 426.194 268.146C488.767 268.146 539.635 217.387 539.635 154.948C539.635 92.5092 488.767 41.7498 426.194 41.7498ZM426.194 55.0672C481.554 55.0672 526.289 99.7073 526.289 154.948C526.289 210.19 481.554 254.829 426.194 254.829C370.834 254.829 326.099 210.19 326.099 154.948C326.099 99.7073 370.834 55.0672 426.194 55.0672Z" fill="#A5CE2C"/>
<rect x="3.5" y="4.5" width="344" height="200" rx="9.5" stroke="url(#paint2_linear)" stroke-opacity="0.16" style="mix-blend-mode:overlay"/>
<rect x="3.5" y="4.5" width="344" height="200" rx="9.5" stroke="url(#paint3_linear)" stroke-opacity="0.08" style="mix-blend-mode:overlay"/>
<path d="M43.1177 36.0398C42.9061 36.0394 42.7005 36.1109 42.5344 36.2429C35.9386 41.3121 32.8093 49.7449 34.4892 57.9269C35.7342 63.9908 39.4552 69.1282 44.5778 72.2033C47.599 74.0166 52.6948 75.9185 55.4992 77.4655L59.8758 79.8769C59.9841 79.9387 60.1036 79.9782 60.2272 79.9932C60.3508 80.0082 60.4762 79.9984 60.5959 79.9641C60.7157 79.9299 60.8275 79.8719 60.9249 79.7938C61.0222 79.7156 61.1032 79.6187 61.163 79.5088C61.2228 79.3988 61.2604 79.2782 61.2734 79.1536C61.2864 79.0289 61.2747 78.9027 61.2389 78.7827C61.2031 78.6626 61.1439 78.5511 61.0648 78.4542C60.9858 78.3574 60.8884 78.2774 60.7783 78.2188L56.4017 75.8074C53.339 74.1181 48.2471 72.2016 45.5426 70.5784C40.8664 67.7715 37.4645 63.0864 36.3271 57.5466C34.7924 50.072 37.6464 42.3766 43.6716 37.7458C43.8305 37.6278 43.9484 37.4625 44.0085 37.2732C44.0687 37.0839 44.068 36.8805 44.0067 36.6916C43.9454 36.5026 43.8265 36.338 43.6669 36.221C43.5073 36.104 43.3151 36.0406 43.1177 36.0398Z" fill="white"/>
<path fill-rule="evenodd" clip-rule="evenodd" d="M35.6228 32.6203C35.4507 32.6194 35.2817 32.6661 35.1342 32.7553C34.9867 32.8446 34.8663 32.9729 34.7863 33.1262C34.7863 33.1262 34.3507 33.9488 33.9279 34.9948C33.5051 36.0407 33.0472 37.2643 33.1025 38.4475C33.1673 39.8389 33.8641 41.3067 34.5039 42.5428C35.1436 43.779 35.7695 44.74 35.7695 44.74C35.8552 44.8703 35.9715 44.9772 36.1082 45.0512C36.2449 45.1251 36.3976 45.1638 36.5528 45.1638C36.7079 45.1638 36.8607 45.1251 36.9973 45.0512C37.134 44.9772 37.2504 44.8703 37.336 44.74C37.336 44.74 37.9558 43.8058 38.5503 42.6056C39.1448 41.4054 39.7902 39.9868 39.6656 38.5731C39.5412 37.159 38.6558 35.8789 37.8606 34.8028C37.0654 33.7267 36.2941 32.9157 36.2941 32.9157C36.2076 32.8237 36.1036 32.7502 35.9883 32.6995C35.8729 32.6487 35.7486 32.6218 35.6228 32.6203ZM35.8466 35.3197C36.0676 35.5848 36.0957 35.5849 36.3528 35.9327C37.0717 36.9055 37.7443 38.1677 37.7946 38.7393C37.845 39.3106 37.4039 40.6751 36.8664 41.76C36.7099 42.0761 36.6932 42.0639 36.5473 42.325C36.3777 42.03 36.3606 42.0371 36.1694 41.6676C35.5775 40.524 35.0144 39.0791 34.9808 38.3589C34.9569 37.8471 35.2867 36.657 35.6705 35.7075C35.758 35.491 35.7628 35.5088 35.8466 35.3197Z" fill="white"/>
<path fill-rule="evenodd" clip-rule="evenodd" d="M28.8028 44.7584C28.6775 44.7594 28.5538 44.7855 28.4387 44.8353C28.3237 44.8851 28.2197 44.9575 28.1329 45.0483C28.0461 45.1392 27.9782 45.2467 27.9332 45.3643C27.8882 45.4819 27.867 45.6074 27.8709 45.7333C27.8709 45.7333 27.8977 46.6632 28.0434 47.7828C28.189 48.9025 28.3942 50.1973 29.0229 51.1987C29.7621 52.3762 31.081 53.3039 32.2439 54.0606C33.4068 54.8172 34.4267 55.342 34.4267 55.342C34.5649 55.4132 34.7185 55.4488 34.8737 55.4456C35.029 55.4424 35.181 55.4003 35.3162 55.3235C35.4514 55.2467 35.5656 55.1374 35.6485 55.0052C35.7314 54.8731 35.7805 54.7224 35.7914 54.5665C35.7914 54.5665 35.8672 53.4463 35.7951 52.1071C35.723 50.7679 35.5919 49.2123 34.7899 48.045C33.9879 46.8775 32.5903 46.2034 31.3708 45.6632C30.1513 45.1228 29.0816 44.7991 29.0816 44.7991C28.9911 44.7718 28.8971 44.7584 28.8028 44.7594L28.8028 44.7584ZM29.8703 47.1144C30.1925 47.2354 30.2174 47.2204 30.6114 47.3951C31.7137 47.8835 32.9213 48.6477 33.2454 49.1196C33.5697 49.5915 33.8553 50.9962 33.9204 52.2068C33.9395 52.5615 33.9192 52.5594 33.9204 52.8604C33.6265 52.6865 33.6141 52.6998 33.2638 52.4727C32.1879 51.7727 30.9903 50.7999 30.6077 50.1905C30.3357 49.7574 30.0392 48.5554 29.907 47.5391C29.8768 47.3071 29.8903 47.3205 29.8703 47.1144H29.8703Z" fill="white"/>
<path fill-rule="evenodd" clip-rule="evenodd" d="M33.9608 60.2941C32.5928 59.9505 31.1039 60.3736 29.8337 60.7778C28.5635 61.1826 27.5481 61.653 27.5481 61.653C27.413 61.7153 27.2945 61.809 27.2024 61.9263C27.1102 62.0437 27.0471 62.1814 27.0181 62.3281C26.9891 62.4748 26.995 62.6264 27.0355 62.7703C27.076 62.9143 27.1499 63.0464 27.251 63.156C27.251 63.156 27.8819 63.8374 28.7258 64.5814C29.5696 65.3256 30.5721 66.1639 31.701 66.498C33.0285 66.8911 34.6309 66.7099 36.0006 66.498C37.3703 66.2934 38.4769 66.0105 38.4769 66.0105C38.7091 65.9516 38.9102 65.8056 39.0391 65.6025C39.168 65.3993 39.2149 65.1543 39.1702 64.9175C39.1422 64.7722 39.0806 64.6356 38.9905 64.5186C38.9905 64.5186 38.3125 63.6264 37.38 62.6686C36.4474 61.7107 35.3289 60.6302 33.9608 60.2867V60.2941ZM33.5059 62.1294C34.059 62.2674 35.1979 63.1322 36.0409 63.998C36.2863 64.25 36.269 64.2615 36.4665 64.4854C36.1327 64.5516 36.1335 64.5724 35.7218 64.6329C34.4545 64.8221 32.9163 64.8842 32.2293 64.68C31.7409 64.5344 30.728 63.8339 29.9621 63.1585C29.7864 63.0035 29.8048 63.0055 29.6539 62.8631C29.976 62.7383 29.986 62.71 30.3986 62.5788C31.5469 62.2129 32.953 61.9893 33.5059 62.1283V62.1294Z" fill="white"/>
<path fill-rule="evenodd" clip-rule="evenodd" d="M40.8946 70.0947C39.5144 70.3853 38.3521 71.4187 37.3837 72.3399C36.4153 73.261 35.7072 74.1272 35.7072 74.1272C35.6122 74.2424 35.5458 74.3787 35.5134 74.5248C35.481 74.671 35.4835 74.8228 35.5208 74.9677C35.558 75.1127 35.629 75.2465 35.7277 75.3585C35.8264 75.4704 35.9502 75.5573 36.0887 75.6117C36.0887 75.6117 36.9516 75.9507 38.0331 76.2505C39.1145 76.5504 40.3797 76.8612 41.5402 76.6678C42.9053 76.4398 44.2698 75.5763 45.4143 74.7919C46.5588 74.0074 47.432 73.2668 47.432 73.2668C47.5296 73.1846 47.6096 73.0834 47.6672 72.9693C47.7247 72.8551 47.7587 72.7303 47.7669 72.6025C47.7751 72.4747 47.7575 72.3468 47.7151 72.2261C47.6726 72.1054 47.6063 71.9945 47.52 71.9004C47.4436 71.8171 47.3529 71.7483 47.2522 71.6973C47.2522 71.6973 46.2573 71.191 45.0034 70.7372C43.7495 70.2834 42.2749 69.804 40.8946 70.0947H40.8946ZM41.2761 71.9447C41.8338 71.8275 43.2316 72.1074 44.3651 72.5171C44.6972 72.6381 44.687 72.6551 44.963 72.7719C44.691 72.9765 44.7011 72.9944 44.3577 73.2298C43.2988 73.9557 41.9386 74.685 41.2321 74.803C40.7294 74.8861 39.5137 74.6989 38.532 74.4263C38.3073 74.3639 38.3254 74.3545 38.1284 74.294C38.3644 74.0416 38.3614 74.0124 38.6751 73.714C39.5505 72.8814 40.7182 72.0628 41.2761 71.9454V71.9447Z" fill="white"/>
<path fill-rule="evenodd" clip-rule="evenodd" d="M50.5098 28.0081C50.4802 28.013 50.4508 28.0193 50.4218 28.027C50.4218 28.027 49.3203 28.2067 48.0409 28.581C46.7624 28.955 45.2905 29.4369 44.3429 30.4864C43.3954 31.5374 43.0594 33.0606 42.8131 34.3786C42.5668 35.6966 42.4976 36.8195 42.4976 36.8195C42.4881 36.9754 42.5171 37.1312 42.5821 37.2731C42.647 37.4149 42.7458 37.5384 42.8698 37.6324C42.9937 37.7264 43.1388 37.7882 43.2922 37.812C43.4455 37.8357 43.6023 37.8209 43.7486 37.7688C43.7486 37.7688 44.8266 37.3861 46.0782 36.79C47.3298 36.1939 48.7611 35.4482 49.6477 34.3786C50.4016 33.4692 50.7695 32.2124 51.0601 31.1218C51.3507 30.031 51.5003 29.1128 51.5003 29.1128C51.5233 28.9721 51.5144 28.8281 51.4743 28.6914C51.4342 28.5546 51.3638 28.4288 51.2686 28.3234C51.1733 28.2179 51.0555 28.1354 50.9242 28.0822C50.7928 28.0289 50.6511 28.0064 50.5098 28.016L50.5098 28.0081ZM49.3395 30.2053C49.2927 30.4074 49.3082 30.3961 49.2478 30.6226C48.9841 31.6125 48.5285 32.7661 48.2023 33.1595C47.7434 33.7131 46.4327 34.5209 45.2747 35.0724C44.8985 35.252 44.8875 35.2349 44.574 35.3678C44.6146 35.0698 44.5932 35.0702 44.6584 34.7216C44.8811 33.53 45.3502 32.1737 45.7333 31.7489C46.1163 31.324 47.4089 30.7245 48.5654 30.3862C48.9806 30.2652 49.0035 30.2822 49.3395 30.2047L49.3395 30.2053Z" fill="white"/>
<path d="M68.1375 36.0434C67.9435 36.0512 67.7566 36.1192 67.6027 36.2382C67.4487 36.3572 67.3351 36.5215 67.2776 36.7081C67.2201 36.8948 67.2214 37.0947 67.2815 37.2805C67.3415 37.4664 67.4573 37.6289 67.6129 37.7458C73.6381 42.3765 76.4921 50.072 74.9574 57.5466C73.82 63.0863 70.4182 67.7715 65.7419 70.5784C63.0374 72.2016 57.9455 74.118 54.8829 75.8074L50.5062 78.2188C50.3962 78.2774 50.2987 78.3574 50.2197 78.4542C50.1406 78.551 50.0814 78.6626 50.0456 78.7826C50.0098 78.9027 49.9981 79.0289 50.0111 79.1535C50.0242 79.2782 50.0617 79.3988 50.1215 79.5087C50.1813 79.6187 50.2623 79.7156 50.3596 79.7938C50.457 79.8719 50.5688 79.9298 50.6886 79.9641C50.8084 79.9983 50.9337 80.0081 51.0573 79.9932C51.181 79.9782 51.3004 79.9387 51.4087 79.8769L55.7853 77.4655C58.5897 75.9185 63.6855 74.0166 66.7067 72.2032C71.8293 69.1282 75.5504 63.9908 76.7954 57.9269C78.4753 49.7449 75.3459 41.312 68.7501 36.2428C68.5756 36.1058 68.3587 36.0352 68.1375 36.0434Z" fill="white"/>
<path fill-rule="evenodd" clip-rule="evenodd" d="M75.6544 32.6204C75.5298 32.6228 75.4069 32.6502 75.2929 32.7009C75.1789 32.7517 75.0761 32.8247 74.9904 32.9158C74.9904 32.9158 74.2192 33.7268 73.4239 34.8028C72.6287 35.879 71.7434 37.1591 71.619 38.5732C71.4944 39.9868 72.1397 41.4055 72.7342 42.6057C73.3287 43.8059 73.9485 44.7401 73.9485 44.7401C74.0342 44.8704 74.1505 44.9773 74.2872 45.0512C74.4239 45.1252 74.5766 45.1639 74.7318 45.1639C74.8869 45.1639 75.0397 45.1252 75.1764 45.0512C75.313 44.9773 75.4294 44.8704 75.515 44.7401C75.515 44.7401 76.1409 43.7791 76.7807 42.5429C77.4205 41.3068 78.1172 39.839 78.1821 38.4476C78.2374 37.2644 77.7795 36.0408 77.3567 34.9948C76.9338 33.9489 76.4982 33.1263 76.4982 33.1263C76.4176 32.9718 76.2962 32.8426 76.1473 32.7533C75.9983 32.664 75.8278 32.6181 75.6544 32.6204ZM75.438 35.3198C75.5217 35.5089 75.5265 35.492 75.6141 35.7076C75.9979 36.6571 76.3277 37.8472 76.3038 38.359C76.2702 39.0791 75.7071 40.524 75.1151 41.6677C74.9239 42.0372 74.9068 42.0301 74.7373 42.325C74.5914 42.0639 74.5747 42.0762 74.4181 41.76C73.8807 40.6751 73.4396 39.3107 73.49 38.7393C73.5402 38.1678 74.2129 36.9056 74.9317 35.9328C75.1888 35.5849 75.2169 35.5849 75.438 35.3198Z" fill="white"/>
<path fill-rule="evenodd" clip-rule="evenodd" d="M82.4742 44.7585C82.3823 44.7583 82.2908 44.7716 82.2027 44.7982C82.2027 44.7982 81.133 45.1221 79.9135 45.6625C78.694 46.2027 77.2964 46.8766 76.4944 48.0441C75.6924 49.2114 75.5613 50.7672 75.4892 52.1064C75.4172 53.4456 75.493 54.5658 75.493 54.5658C75.5039 54.7217 75.553 54.8725 75.6359 55.0046C75.7188 55.1367 75.833 55.246 75.9682 55.3228C76.1034 55.3997 76.2554 55.4415 76.4107 55.4447C76.5659 55.4479 76.7195 55.4125 76.8577 55.3413C76.8577 55.3413 77.8776 54.8166 79.0405 54.0599C80.2034 53.3032 81.5223 52.3755 82.2615 51.198C82.8902 50.1967 83.0954 48.9018 83.241 47.7822C83.3867 46.6625 83.4135 45.7327 83.4135 45.7327C83.4174 45.6061 83.396 45.4799 83.3505 45.3618C83.3051 45.2437 83.2365 45.136 83.1489 45.0451C83.0613 44.9542 82.9565 44.8819 82.8406 44.8325C82.7247 44.7832 82.6001 44.7577 82.4743 44.7578L82.4742 44.7585ZM81.414 47.1145C81.394 47.3205 81.4074 47.3071 81.3773 47.5391C81.2451 48.5554 80.9486 49.7574 80.6766 50.1906C80.294 50.7999 79.0964 51.7728 78.0205 52.4727C77.6702 52.7007 77.6578 52.6873 77.3639 52.8604C77.3651 52.5594 77.3448 52.5615 77.3639 52.2068C77.429 50.9962 77.7146 49.5916 78.0389 49.1196C78.363 48.6477 79.5706 47.8835 80.6729 47.3951C81.067 47.2212 81.0918 47.2343 81.414 47.1145Z" fill="white"/>
<path fill-rule="evenodd" clip-rule="evenodd" d="M77.3236 60.294C75.9556 60.6375 74.8371 61.718 73.9045 62.6758C72.972 63.6337 72.294 64.5259 72.294 64.5259C72.2039 64.6429 72.1423 64.7794 72.1142 64.9247C72.0696 65.1616 72.1165 65.4066 72.2454 65.6097C72.3743 65.8129 72.5754 65.9589 72.8076 66.0178C72.8076 66.0178 73.9142 66.3007 75.2839 66.5052C76.6536 66.7098 78.256 66.8909 79.5835 66.5052C80.7124 66.1712 81.7149 65.3329 82.5587 64.5887C83.4025 63.8447 84.0335 63.1633 84.0335 63.1633C84.1346 63.0537 84.2085 62.9213 84.2489 62.7774C84.2894 62.6335 84.2954 62.4821 84.2664 62.3354C84.2374 62.1887 84.1742 62.0509 84.0821 61.9336C83.9899 61.8162 83.8714 61.7226 83.7363 61.6603C83.7363 61.6603 82.721 61.1899 81.4508 60.7851C80.1806 60.3803 78.6917 59.9578 77.3236 60.3014L77.3236 60.294ZM77.7785 62.1293C78.3315 61.9913 79.7376 62.2145 80.8858 62.5798C81.2985 62.7122 81.3084 62.7405 81.6306 62.8642C81.4797 63.006 81.4981 63.004 81.3224 63.1596C80.5565 63.8349 79.5436 64.5364 79.0552 64.681C78.3681 64.8844 76.8299 64.8228 75.5627 64.6337C75.151 64.5713 75.1518 64.5507 74.818 64.4864C75.0155 64.2626 74.9982 64.251 75.2435 63.999C76.0866 63.1332 77.2254 62.2692 77.7785 62.1304V62.1293Z" fill="white"/>
<path fill-rule="evenodd" clip-rule="evenodd" d="M70.3898 70.0946C69.0095 69.804 67.5349 70.2836 66.281 70.7372C65.0271 71.1909 64.0321 71.6973 64.0321 71.6973C63.9315 71.7483 63.8408 71.8171 63.7643 71.9004C63.6781 71.9945 63.6117 72.1054 63.5693 72.2261C63.5269 72.3468 63.5092 72.4747 63.5175 72.6025C63.5257 72.7303 63.5596 72.8551 63.6172 72.9692C63.6748 73.0834 63.7548 73.1846 63.8524 73.2667C63.8524 73.2667 64.7256 74.0074 65.8701 74.7919C67.0146 75.5763 68.3791 76.4398 69.7441 76.6678C70.9047 76.8612 72.1699 76.5506 73.2513 76.2505C74.3328 75.9506 75.1957 75.6117 75.1957 75.6117C75.3342 75.5572 75.458 75.4704 75.5567 75.3585C75.6554 75.2465 75.7263 75.1127 75.7636 74.9677C75.8008 74.8228 75.8034 74.6709 75.771 74.5248C75.7386 74.3787 75.6722 74.2424 75.5772 74.1272C75.5772 74.1272 74.869 73.261 73.9007 72.3398C72.9323 71.4187 71.77 70.3852 70.3898 70.0946H70.3898ZM70.0046 71.9447C70.0059 71.9447 70.0071 71.9447 70.0084 71.9447C70.5663 72.0619 71.734 72.8809 72.6094 73.7136C72.9231 74.0119 72.9201 74.0409 73.156 74.2933C72.9591 74.3557 72.9772 74.3634 72.7525 74.4258C71.7708 74.6981 70.5551 74.8862 70.0524 74.8025C69.3459 74.6853 67.9857 73.955 66.9268 73.2291C66.5833 72.9937 66.5934 72.976 66.3214 72.7714C66.5975 72.6561 66.5873 72.6373 66.9194 72.5166C68.0529 72.1065 69.447 71.8267 70.0047 71.9443L70.0046 71.9447Z" fill="white"/>
<path fill-rule="evenodd" clip-rule="evenodd" d="M60.6718 28.008C60.5391 28.0136 60.409 28.0474 60.2903 28.1073C60.1715 28.1672 60.0667 28.2518 59.9828 28.3554C59.8989 28.4591 59.8378 28.5795 59.8035 28.7087C59.7693 28.8379 59.7626 28.9729 59.784 29.1048C59.784 29.1048 59.9336 30.0229 60.2242 31.1136C60.5148 32.2042 60.8827 33.4612 61.6366 34.3706C62.5232 35.4402 63.9546 36.1859 65.2062 36.782C66.4577 37.3782 67.5357 37.7606 67.5357 37.7606C67.682 37.8128 67.8388 37.8276 67.9922 37.8038C68.1455 37.78 68.2906 37.7185 68.4146 37.6245C68.5385 37.5304 68.6373 37.407 68.7022 37.2651C68.7672 37.1232 68.7962 36.9675 68.7867 36.8116C68.7867 36.8116 68.7175 35.6887 68.4712 34.3706C68.2249 33.0526 67.8889 31.5295 66.9414 30.4784C65.9938 29.4289 64.5219 28.9469 63.2435 28.573C61.964 28.1988 60.8625 28.0189 60.8625 28.0189C60.7998 28.0061 60.7358 27.9997 60.6718 28V28.008ZM61.9448 30.2052C62.2808 30.2827 62.3037 30.2657 62.7188 30.3867C63.8754 30.725 65.168 31.3244 65.551 31.7492C65.9341 32.1741 66.4032 33.5306 66.6259 34.7222C66.6911 35.0708 66.6697 35.0704 66.7103 35.3684C66.3968 35.236 66.3858 35.251 66.0096 35.0727C64.8516 34.5212 63.5409 33.7137 63.082 33.1601C62.7558 32.7666 62.3002 31.613 62.0365 30.623C61.9762 30.3965 61.9916 30.4079 61.9448 30.2058L61.9448 30.2052Z" fill="white"/>
<path d="M55.8108 37.4577C46.9821 37.4577 39.8048 44.6498 39.8048 53.4967C39.8048 62.3436 46.9821 69.5357 55.8108 69.5357C64.6394 69.5357 71.8167 62.3436 71.8167 53.4967C71.8167 44.6498 64.6394 37.4577 55.8108 37.4577ZM55.8108 39.3447C63.6218 39.3447 69.9336 45.6697 69.9337 53.4967C69.9336 61.3239 63.6218 67.6487 55.8108 67.6487C47.9997 67.6487 41.6879 61.3239 41.6879 53.4967C41.6879 45.6697 47.9997 39.3447 55.8108 39.3447Z" fill="white"/>
<path fill-rule="evenodd" clip-rule="evenodd" d="M55.8107 54.3377C56.369 54.3377 56.8216 54.7912 56.8216 55.3506V68.1818C56.8216 68.7413 56.369 69.1948 55.8107 69.1948C55.2524 69.1948 54.7998 68.7413 54.7998 68.1818V55.3506C54.7998 54.7912 55.2524 54.3377 55.8107 54.3377Z" fill="white"/>
<path fill-rule="evenodd" clip-rule="evenodd" d="M62.5501 46.2338C62.9509 46.2338 63.3139 46.4711 63.4754 46.8388L67.182 55.2803C67.2385 55.4089 67.2676 55.5478 67.2676 55.6883C67.2676 58.3124 65.3879 60.7532 62.5501 60.7532C59.7122 60.7532 57.8325 58.3124 57.8325 55.6883C57.8325 55.5478 57.8617 55.4089 57.9181 55.2803L61.6248 46.8388C61.7862 46.4711 62.1492 46.2338 62.5501 46.2338ZM59.8597 55.8891C59.9477 57.527 61.1076 58.7273 62.5501 58.7273C63.9925 58.7273 65.1525 57.527 65.2404 55.8891L62.5501 49.762L59.8597 55.8891Z" fill="white"/>
<path fill-rule="evenodd" clip-rule="evenodd" d="M49.0713 46.2338C49.4722 46.2338 49.8352 46.4711 49.9966 46.8388L53.7032 55.2803C53.7597 55.4089 53.7888 55.5478 53.7888 55.6883C53.7888 58.3124 51.9091 60.7532 49.0713 60.7532C46.2335 60.7532 44.3538 58.3124 44.3538 55.6883C44.3538 55.5478 44.3829 55.4089 44.4394 55.2803L48.146 46.8388C48.3075 46.4711 48.6704 46.2338 49.0713 46.2338ZM46.3809 55.8891C46.4689 57.527 47.6288 58.7273 49.0713 58.7273C50.5138 58.7273 51.6737 57.527 51.7617 55.8891L49.0713 49.762L46.3809 55.8891Z" fill="white"/>
<path fill-rule="evenodd" clip-rule="evenodd" d="M65.9196 57.039H59.1803V55.013H65.9196V57.039Z" fill="white"/>
<path fill-rule="evenodd" clip-rule="evenodd" d="M52.441 57.039H45.7017V55.013H52.441V57.039Z" fill="white"/>
<path fill-rule="evenodd" clip-rule="evenodd" d="M57.1586 46.5714C57.1586 46.012 57.6112 45.5584 58.1695 45.5584H64.9089C65.4672 45.5584 65.9198 46.012 65.9198 46.5714C65.9198 47.1309 65.4672 47.5844 64.9089 47.5844H58.1695C57.6112 47.5844 57.1586 47.1309 57.1586 46.5714Z" fill="white"/>
<path fill-rule="evenodd" clip-rule="evenodd" d="M45.7017 46.5714C45.7017 46.012 46.1543 45.5584 46.7126 45.5584H53.4519C54.0102 45.5584 54.4628 46.012 54.4628 46.5714C54.4628 47.1309 54.0102 47.5844 53.4519 47.5844H46.7126C46.1543 47.5844 45.7017 47.1309 45.7017 46.5714Z" fill="white"/>
<path fill-rule="evenodd" clip-rule="evenodd" d="M55.8107 45.5584C55.2345 45.5584 54.7641 46.0279 54.7641 46.6111C54.7641 47.1944 55.2345 47.6639 55.8107 47.6639C56.3869 47.6639 56.8573 47.1944 56.8573 46.6111C56.8573 46.0279 56.3869 45.5584 55.8107 45.5584ZM52.7423 46.6111C52.7423 44.9127 54.1142 43.5325 55.8107 43.5325C57.5071 43.5325 58.8791 44.9127 58.8791 46.6111C58.8791 48.3096 57.5071 49.6898 55.8107 49.6898C54.1142 49.6898 52.7423 48.3096 52.7423 46.6111Z" fill="white"/>
<path d="M56.8393 51.9542C56.8393 52.5246 56.3788 52.987 55.8106 52.987C55.2424 52.987 54.7819 52.5246 54.7819 51.9542C54.7819 51.3837 55.2424 50.9213 55.8106 50.9213C56.3788 50.9213 56.8393 51.3837 56.8393 51.9542Z" fill="white"/>
<path d="M103.67 36.1353V38.0327H98.579V50.8612H96.4603V38.0327H91.3689V36.1353H103.67ZM108.135 41.1634C109.899 41.1634 111.248 41.585 112.183 42.4283C113.125 43.2716 113.595 44.4908 113.595 46.0861C113.595 46.8169 113.472 47.488 113.227 48.0994C112.988 48.7038 112.647 49.2273 112.204 49.67C111.768 50.1057 111.248 50.4465 110.644 50.6925C110.047 50.9314 109.39 51.0509 108.673 51.0509C108.357 51.0509 108.047 51.0158 107.745 50.9455C107.443 50.8822 107.102 50.7733 106.723 50.6187V55.826H104.804V41.1634H108.135ZM106.723 42.8921V48.9005C107.32 49.1886 107.924 49.3327 108.536 49.3327C108.985 49.3327 109.397 49.2519 109.769 49.0903C110.149 48.9216 110.475 48.6932 110.749 48.4051C111.023 48.117 111.238 47.7726 111.392 47.3721C111.547 46.9715 111.624 46.5358 111.624 46.065C111.624 45.566 111.543 45.1198 111.382 44.7263C111.22 44.3327 110.995 44.0024 110.707 43.7354C110.426 43.4613 110.092 43.254 109.706 43.1135C109.326 42.9659 108.915 42.8921 108.472 42.8921H106.723ZM117.169 46.3074C117.478 48.247 118.564 49.2168 120.426 49.2168C121.023 49.2168 121.596 49.1149 122.144 48.9111C122.692 48.7073 123.251 48.4227 123.82 48.0572V49.9125C123.525 50.1092 123.234 50.2779 122.945 50.4184C122.664 50.559 122.369 50.6785 122.06 50.7768C121.758 50.8682 121.434 50.935 121.09 50.9771C120.746 51.0263 120.366 51.0509 119.952 51.0509C119.2 51.0509 118.532 50.9104 117.949 50.6293C117.366 50.3411 116.874 49.9581 116.473 49.4803C116.073 49.0024 115.767 48.4543 115.556 47.8359C115.352 47.2104 115.25 46.5639 115.25 45.8963C115.25 45.1584 115.359 44.4873 115.577 43.883C115.802 43.2786 116.115 42.7621 116.515 42.3334C116.916 41.8977 117.394 41.5639 117.949 41.332C118.504 41.0931 119.115 40.9736 119.783 40.9736C120.43 40.9736 121.009 41.0861 121.522 41.3109C122.042 41.5288 122.485 41.8591 122.851 42.3018C123.216 42.7445 123.497 43.2997 123.694 43.9673C123.891 44.6349 123.989 45.4149 123.989 46.3074H117.169ZM122.092 45.0319C122.063 44.2941 121.849 43.7108 121.449 43.2821C121.048 42.8535 120.507 42.6391 119.825 42.6391C119.08 42.6391 118.49 42.8464 118.054 43.261C117.626 43.6757 117.345 44.266 117.211 45.0319H122.092ZM130.44 42.8921V50.8612H128.511V42.8921H125.106V41.1634H133.845V42.8921H130.44ZM136.855 46.3074C137.164 48.247 138.249 49.2168 140.112 49.2168C140.709 49.2168 141.282 49.1149 141.83 48.9111C142.378 48.7073 142.937 48.4227 143.506 48.0572V49.9125C143.211 50.1092 142.919 50.2779 142.631 50.4184C142.35 50.559 142.055 50.6785 141.746 50.7768C141.443 50.8682 141.12 50.935 140.776 50.9771C140.431 51.0263 140.052 51.0509 139.637 51.0509C138.885 51.0509 138.218 50.9104 137.635 50.6293C137.051 50.3411 136.559 49.9581 136.159 49.4803C135.758 49.0024 135.453 48.4543 135.242 47.8359C135.038 47.2104 134.936 46.5639 134.936 45.8963C134.936 45.1584 135.045 44.4873 135.263 43.883C135.488 43.2786 135.8 42.7621 136.201 42.3334C136.602 41.8977 137.079 41.5639 137.635 41.332C138.19 41.0931 138.801 40.9736 139.469 40.9736C140.115 40.9736 140.695 41.0861 141.208 41.3109C141.728 41.5288 142.171 41.8591 142.536 42.3018C142.902 42.7445 143.183 43.2997 143.379 43.9673C143.576 44.6349 143.675 45.4149 143.675 46.3074H136.855ZM141.777 45.0319C141.749 44.2941 141.535 43.7108 141.134 43.2821C140.734 42.8535 140.193 42.6391 139.511 42.6391C138.766 42.6391 138.176 42.8464 137.74 43.261C137.311 43.6757 137.03 44.266 136.897 45.0319H141.777ZM152.476 44.6419L146.89 51.0509H145.804V41.1634H147.722V47.7726L153.362 41.1634H154.395V50.8612H152.476V44.6419ZM148.545 36.9786C148.636 37.4072 148.833 37.7445 149.135 37.9905C149.374 38.2084 149.732 38.3173 150.21 38.3173C150.632 38.3173 150.966 38.2119 151.212 38.001C151.457 37.7832 151.633 37.4424 151.739 36.9786H153.214C153.053 37.8851 152.708 38.5773 152.181 39.0552C151.661 39.526 150.997 39.7614 150.189 39.7614C149.346 39.7614 148.661 39.526 148.134 39.0552C147.606 38.5773 147.262 37.8851 147.1 36.9786H148.545ZM164.441 50.4922C164.279 50.5695 164.086 50.6433 163.861 50.7136C163.636 50.7768 163.393 50.8331 163.133 50.8822C162.873 50.9385 162.606 50.9806 162.332 51.0087C162.065 51.0368 161.805 51.0509 161.552 51.0509C160.828 51.0509 160.164 50.9314 159.56 50.6925C158.956 50.4536 158.436 50.1198 158 49.6911C157.571 49.2624 157.234 48.7529 156.988 48.1626C156.749 47.5653 156.63 46.9118 156.63 46.202C156.63 45.4009 156.742 44.6806 156.967 44.0411C157.192 43.3946 157.512 42.8464 157.926 42.3967C158.341 41.9399 158.843 41.5885 159.434 41.3426C160.024 41.0966 160.688 40.9736 161.426 40.9736C161.707 40.9736 161.967 40.9912 162.206 41.0263C162.445 41.0544 162.673 41.0966 162.891 41.1528C163.116 41.209 163.337 41.2793 163.555 41.3636C163.773 41.448 163.998 41.5428 164.23 41.6483V43.6932C163.956 43.5105 163.699 43.3594 163.46 43.24C163.228 43.1135 163.003 43.0151 162.786 42.9448C162.575 42.8675 162.367 42.8148 162.164 42.7867C161.967 42.7586 161.763 42.7445 161.552 42.7445C161.117 42.7445 160.716 42.8253 160.351 42.987C159.985 43.1416 159.672 43.3629 159.412 43.6511C159.152 43.9392 158.949 44.2835 158.801 44.6841C158.661 45.0847 158.59 45.5309 158.59 46.0228C158.59 46.5288 158.668 46.982 158.822 47.3826C158.977 47.7761 159.198 48.1099 159.486 48.384C159.774 48.6581 160.119 48.8689 160.519 49.0165C160.927 49.1641 161.38 49.2378 161.879 49.2378C162.287 49.2378 162.694 49.1851 163.102 49.0797C163.509 48.9743 163.956 48.8127 164.441 48.5948V50.4922ZM168.71 45.0741C169.131 45.0741 169.493 44.9617 169.795 44.7368C170.098 44.5119 170.368 44.1781 170.607 43.7354L171.187 42.6602C171.348 42.3651 171.507 42.1226 171.661 41.9329C171.823 41.7361 171.991 41.5815 172.167 41.4691C172.35 41.3566 172.55 41.2793 172.768 41.2372C172.986 41.188 173.235 41.1634 173.516 41.1634H173.928V42.8921H173.495C173.27 42.8921 173.095 42.9518 172.968 43.0713C172.842 43.1908 172.722 43.3489 172.61 43.5457L172.114 44.4311C171.995 44.649 171.876 44.8317 171.756 44.9792C171.637 45.1268 171.514 45.2533 171.387 45.3587C171.261 45.4571 171.127 45.5414 170.987 45.6117C170.846 45.682 170.691 45.7487 170.523 45.812C170.762 45.8823 170.98 45.9771 171.176 46.0966C171.373 46.209 171.559 46.3566 171.735 46.5393C171.918 46.715 172.097 46.9329 172.273 47.1929C172.448 47.4529 172.635 47.7621 172.831 48.1205L174.296 50.8612H172.188L170.871 48.2259C170.561 47.6215 170.214 47.1964 169.827 46.9504C169.441 46.7045 169.061 46.5815 168.689 46.5815H168.446V50.8612H166.528V41.1634H168.446V45.0741H168.71ZM182.708 44.6419L177.121 51.0509H176.036V41.1634H177.954V47.7726L183.594 41.1634H184.627V50.8612H182.708V44.6419ZM194.05 44.6419L188.464 51.0509H187.378V41.1634H189.296V47.7726L194.936 41.1634H195.969V50.8612H194.05V44.6419ZM190.119 36.9786C190.21 37.4072 190.407 37.7445 190.709 37.9905C190.948 38.2084 191.306 38.3173 191.784 38.3173C192.206 38.3173 192.54 38.2119 192.786 38.001C193.031 37.7832 193.207 37.4424 193.313 36.9786H194.788C194.627 37.8851 194.282 38.5773 193.755 39.0552C193.235 39.526 192.571 39.7614 191.763 39.7614C190.92 39.7614 190.235 39.526 189.708 39.0552C189.18 38.5773 188.836 37.8851 188.675 36.9786H190.119ZM102.035 68.4922C101.873 68.5695 101.68 68.6433 101.455 68.7136C101.23 68.7768 100.988 68.8331 100.728 68.8822C100.468 68.9385 100.201 68.9806 99.9266 69.0087C99.6596 69.0368 99.3996 69.0509 99.1466 69.0509C98.4227 69.0509 97.7587 68.9314 97.1543 68.6925C96.55 68.4536 96.0299 68.1198 95.5942 67.6911C95.1656 67.2624 94.8282 66.7529 94.5823 66.1626C94.3434 65.5653 94.2239 64.9118 94.2239 64.202C94.2239 63.4009 94.3363 62.6806 94.5612 62.0411C94.7861 61.3946 95.1058 60.8464 95.5204 60.3967C95.9351 59.9399 96.4375 59.5885 97.0278 59.3426C97.6181 59.0966 98.2822 58.9736 99.0201 58.9736C99.3012 58.9736 99.5612 58.9912 99.8001 59.0263C100.039 59.0544 100.267 59.0966 100.485 59.1528C100.71 59.209 100.932 59.2793 101.149 59.3636C101.367 59.448 101.592 59.5428 101.824 59.6483V61.6932C101.55 61.5105 101.293 61.3594 101.055 61.24C100.823 61.1135 100.598 61.0151 100.38 60.9448C100.169 60.8675 99.9617 60.8148 99.758 60.7867C99.5612 60.7586 99.3574 60.7445 99.1466 60.7445C98.7109 60.7445 98.3103 60.8253 97.9449 60.987C97.5795 61.1416 97.2667 61.3629 97.0067 61.6511C96.7467 61.9392 96.5429 62.2835 96.3953 62.6841C96.2548 63.0847 96.1845 63.5309 96.1845 64.0228C96.1845 64.5288 96.2618 64.982 96.4164 65.3826C96.571 65.7761 96.7924 66.1099 97.0805 66.384C97.3686 66.6581 97.713 66.8689 98.1135 67.0165C98.5211 67.1641 98.9744 67.2378 99.4733 67.2378C99.8809 67.2378 100.289 67.1851 100.696 67.0797C101.104 66.9743 101.55 66.8127 102.035 66.5948V68.4922ZM112.691 59.1634L105.829 73.826H103.689L106.989 66.7846L103.236 59.1634H105.418L108.032 64.6342L110.531 59.1634H112.691ZM122.522 71.0432H120.624V68.8612H114.173V71.0432H112.265V67.1324H113.066L116.998 58.9736H118.073L121.731 67.1324H122.522V71.0432ZM119.718 67.1324L117.409 62.0411L115.059 67.1324H119.718ZM124.361 68.8612V59.1634H126.279V62.4311H128.503C129.108 62.4311 129.624 62.5295 130.053 62.7263C130.489 62.923 130.844 63.176 131.118 63.4852C131.399 63.7874 131.606 64.1282 131.74 64.5077C131.873 64.8872 131.94 65.2596 131.94 65.6251C131.94 66.0045 131.873 66.3875 131.74 66.774C131.606 67.1535 131.399 67.4979 131.118 67.8071C130.844 68.1163 130.489 68.3692 130.053 68.566C129.624 68.7628 129.108 68.8612 128.503 68.8612H124.361ZM126.279 64.1598V67.1324H127.987C128.289 67.1324 128.563 67.1043 128.809 67.0481C129.062 66.9849 129.276 66.89 129.452 66.7635C129.635 66.637 129.775 66.4789 129.874 66.2891C129.972 66.0924 130.021 65.864 130.021 65.604C130.021 65.344 129.972 65.1226 129.874 64.9399C129.775 64.7572 129.635 64.6096 129.452 64.4972C129.276 64.3777 129.062 64.2934 128.809 64.2442C128.563 64.188 128.289 64.1598 127.987 64.1598H126.279ZM134.538 66.7846C134.805 66.384 135.086 66.0256 135.381 65.7094C135.676 65.3931 136.014 65.1472 136.393 64.9715C136.07 64.852 135.778 64.7115 135.518 64.5499C135.258 64.3812 135.033 64.1844 134.844 63.9596C134.661 63.7347 134.52 63.4782 134.422 63.1901C134.324 62.8949 134.275 62.5611 134.275 62.1887C134.275 61.7249 134.383 61.3067 134.601 60.9343C134.826 60.5618 135.118 60.2456 135.476 59.9856C135.842 59.7185 136.256 59.5147 136.72 59.3742C137.184 59.2336 137.658 59.1634 138.143 59.1634H141.748V68.8612H139.83V65.3194H139.282C139.029 65.3194 138.783 65.344 138.544 65.3931C138.312 65.4423 138.087 65.5267 137.869 65.6461C137.658 65.7586 137.451 65.9167 137.247 66.1205C137.043 66.3173 136.847 66.5632 136.657 66.8584L135.381 68.8612H133.115L134.538 66.7846ZM139.83 63.812V60.8921H138.143C137.525 60.8921 137.054 61.0116 136.731 61.2505C136.407 61.4824 136.246 61.8303 136.246 62.2941C136.246 62.4698 136.277 62.649 136.341 62.8317C136.411 63.0074 136.52 63.169 136.667 63.3166C136.822 63.4641 137.019 63.5836 137.258 63.675C137.504 63.7663 137.799 63.812 138.143 63.812H139.83Z" fill="#3A3A3A"/>
<path d="M102.502 199H93.16V196.651H97.507V183.151H97.183L94.186 186.148L92.512 184.474L96.643 180.343H100.18V196.651H102.502V199ZM115.061 189.226L107.879 196.327V196.651H114.872V199H105.557V195.382L112.388 188.578V182.692H108.203V187.336H105.557V182.692L107.852 180.343H112.739L115.061 182.692V189.226ZM128.431 196.651L126.082 199H121.411L119.089 196.651V194.329H121.762V196.651H125.758V189.658H119.089V180.343H128.431V182.692H121.411V187.336H126.082L128.431 189.658V196.651ZM141.152 199H138.479V194.329H131.648V186.472L137.723 180.343H140.882L134.132 187.039V192.007H138.479V186.337L141.152 183.664V199ZM163.316 196.651L160.967 199H156.296L153.974 196.651V182.692L156.296 180.343H160.967L163.316 182.692V196.651ZM160.643 196.651V182.692H156.647V196.651H160.643ZM176.361 196.651L174.012 199H169.341L167.019 196.651V182.692L169.341 180.343H174.012L176.361 182.692V196.651ZM173.688 196.651V182.692H169.692V196.651H173.688ZM179.741 182.692L182.063 180.343H187.058L189.407 182.692V196.651L187.058 199H180.065V196.651H186.734V192.007H182.063L179.741 189.658V182.692ZM182.387 182.692V189.658H186.734V182.692H182.387ZM202.614 199H193.272V196.651H197.619V183.151H197.295L194.298 186.148L192.624 184.474L196.755 180.343H200.292V196.651H202.614V199ZM224.291 196.651L221.942 199H217.271L214.949 196.651V182.692L217.271 180.343H221.942L224.291 182.692V196.651ZM221.618 196.651V182.692H217.622V196.651H221.618ZM237.337 196.651L234.988 199H230.317L227.995 196.651V182.692L230.317 180.343H234.988L237.337 182.692V196.651ZM234.664 196.651V182.692H230.668V196.651H234.664ZM250.382 196.651L248.033 199H243.362L241.04 196.651V182.692L243.362 180.343H248.033L250.382 182.692V196.651ZM247.709 196.651V182.692H243.713V196.651H247.709ZM263.239 190.036L259.081 194.167V199H256.408V193.411L260.566 189.226V182.692H256.246V187.336H253.6V180.343H263.239V190.036ZM285.429 199H276.087V196.651H280.434V183.151H280.11L277.113 186.148L275.439 184.474L279.57 180.343H283.107V196.651H285.429V199ZM297.989 189.226L290.807 196.327V196.651H297.8V199H288.485V195.382L295.316 188.578V182.692H291.131V187.336H288.485V182.692L290.78 180.343H295.667L297.989 182.692V189.226ZM311.52 199H302.178V196.651H306.525V183.151H306.201L303.204 186.148L301.53 184.474L305.661 180.343H309.198V196.651H311.52V199ZM323.89 196.651L321.595 199H316.681L314.386 196.651V194.329H317.059V196.651H321.217V189.658H316.843V187.714L321.541 183.016V182.692H314.386V180.343H323.89V183.34L319.867 187.336V187.66H321.541L323.89 190.009V196.651Z" fill="white"/>
<path d="M106.225 109.3V124H102.844V112.072H96.208V124H92.827V109.3H106.225ZM120.6 118.393C120.6 118.435 120.579 118.729 120.537 119.275H111.99C112.144 119.975 112.508 120.528 113.082 120.934C113.656 121.34 114.37 121.543 115.224 121.543C115.812 121.543 116.33 121.459 116.778 121.291C117.24 121.109 117.667 120.829 118.059 120.451L119.802 122.341C118.738 123.559 117.184 124.168 115.14 124.168C113.866 124.168 112.739 123.923 111.759 123.433C110.779 122.929 110.023 122.236 109.491 121.354C108.959 120.472 108.693 119.471 108.693 118.351C108.693 117.245 108.952 116.251 109.47 115.369C110.002 114.473 110.723 113.78 111.633 113.29C112.557 112.786 113.586 112.534 114.72 112.534C115.826 112.534 116.827 112.772 117.723 113.248C118.619 113.724 119.319 114.41 119.823 115.306C120.341 116.188 120.6 117.217 120.6 118.393ZM114.741 115.012C113.999 115.012 113.376 115.222 112.872 115.642C112.368 116.062 112.06 116.636 111.948 117.364H117.513C117.401 116.65 117.093 116.083 116.589 115.663C116.085 115.229 115.469 115.012 114.741 115.012ZM129.768 112.534C130.818 112.534 131.77 112.779 132.624 113.269C133.492 113.745 134.171 114.424 134.661 115.306C135.151 116.174 135.396 117.189 135.396 118.351C135.396 119.513 135.151 120.535 134.661 121.417C134.171 122.285 133.492 122.964 132.624 123.454C131.77 123.93 130.818 124.168 129.768 124.168C128.326 124.168 127.192 123.713 126.366 122.803V128.074H123.09V112.702H126.219V114.004C127.031 113.024 128.214 112.534 129.768 112.534ZM129.201 121.48C130.041 121.48 130.727 121.2 131.259 120.64C131.805 120.066 132.078 119.303 132.078 118.351C132.078 117.399 131.805 116.643 131.259 116.083C130.727 115.509 130.041 115.222 129.201 115.222C128.361 115.222 127.668 115.509 127.122 116.083C126.59 116.643 126.324 117.399 126.324 118.351C126.324 119.303 126.59 120.066 127.122 120.64C127.668 121.2 128.361 121.48 129.201 121.48ZM143.068 124.168C141.864 124.168 140.779 123.923 139.813 123.433C138.861 122.929 138.112 122.236 137.566 121.354C137.034 120.472 136.768 119.471 136.768 118.351C136.768 117.231 137.034 116.23 137.566 115.348C138.112 114.466 138.861 113.78 139.813 113.29C140.779 112.786 141.864 112.534 143.068 112.534C144.258 112.534 145.294 112.786 146.176 113.29C147.072 113.78 147.723 114.487 148.129 115.411L145.588 116.776C145 115.74 144.153 115.222 143.047 115.222C142.193 115.222 141.486 115.502 140.926 116.062C140.366 116.622 140.086 117.385 140.086 118.351C140.086 119.317 140.366 120.08 140.926 120.64C141.486 121.2 142.193 121.48 143.047 121.48C144.167 121.48 145.014 120.962 145.588 119.926L148.129 121.312C147.723 122.208 147.072 122.908 146.176 123.412C145.294 123.916 144.258 124.168 143.068 124.168ZM155.268 124.168C154.078 124.168 153.007 123.923 152.055 123.433C151.117 122.929 150.382 122.236 149.85 121.354C149.318 120.472 149.052 119.471 149.052 118.351C149.052 117.231 149.318 116.23 149.85 115.348C150.382 114.466 151.117 113.78 152.055 113.29C153.007 112.786 154.078 112.534 155.268 112.534C156.458 112.534 157.522 112.786 158.46 113.29C159.398 113.78 160.133 114.466 160.665 115.348C161.197 116.23 161.463 117.231 161.463 118.351C161.463 119.471 161.197 120.472 160.665 121.354C160.133 122.236 159.398 122.929 158.46 123.433C157.522 123.923 156.458 124.168 155.268 124.168ZM155.268 121.48C156.108 121.48 156.794 121.2 157.326 120.64C157.872 120.066 158.145 119.303 158.145 118.351C158.145 117.399 157.872 116.643 157.326 116.083C156.794 115.509 156.108 115.222 155.268 115.222C154.428 115.222 153.735 115.509 153.189 116.083C152.643 116.643 152.37 117.399 152.37 118.351C152.37 119.303 152.643 120.066 153.189 120.64C153.735 121.2 154.428 121.48 155.268 121.48ZM163.717 112.702H166.972V117.112H171.886V112.702H175.162V124H171.886V119.779H166.972V124H163.717V112.702ZM182.687 112.534C184.437 112.534 185.781 112.954 186.719 113.794C187.657 114.62 188.126 115.873 188.126 117.553V124H185.06V122.593C184.444 123.643 183.296 124.168 181.616 124.168C180.748 124.168 179.992 124.021 179.348 123.727C178.718 123.433 178.235 123.027 177.899 122.509C177.563 121.991 177.395 121.403 177.395 120.745C177.395 119.695 177.787 118.869 178.571 118.267C179.369 117.665 180.594 117.364 182.246 117.364H184.85C184.85 116.65 184.633 116.104 184.199 115.726C183.765 115.334 183.114 115.138 182.246 115.138C181.644 115.138 181.049 115.236 180.461 115.432C179.887 115.614 179.397 115.866 178.991 116.188L177.815 113.899C178.431 113.465 179.166 113.129 180.02 112.891C180.888 112.653 181.777 112.534 182.687 112.534ZM182.435 121.963C182.995 121.963 183.492 121.837 183.926 121.585C184.36 121.319 184.668 120.934 184.85 120.43V119.275H182.603C181.259 119.275 180.587 119.716 180.587 120.598C180.587 121.018 180.748 121.354 181.07 121.606C181.406 121.844 181.861 121.963 182.435 121.963ZM201.807 112.702V124H198.531V115.39H194.961L194.856 117.385C194.8 118.869 194.66 120.101 194.436 121.081C194.212 122.061 193.848 122.831 193.344 123.391C192.84 123.951 192.14 124.231 191.244 124.231C190.768 124.231 190.201 124.147 189.543 123.979L189.711 121.291C189.935 121.319 190.096 121.333 190.194 121.333C190.684 121.333 191.048 121.158 191.286 120.808C191.538 120.444 191.706 119.989 191.79 119.443C191.874 118.883 191.937 118.148 191.979 117.238L192.147 112.702H201.807ZM211.069 116.314C212.539 116.328 213.666 116.664 214.45 117.322C215.234 117.966 215.626 118.883 215.626 120.073C215.626 121.319 215.185 122.292 214.303 122.992C213.435 123.678 212.21 124.021 210.628 124.021L204.958 124V112.702H208.213V116.314H211.069ZM210.334 121.69C210.964 121.704 211.447 121.571 211.783 121.291C212.119 121.011 212.287 120.591 212.287 120.031C212.287 119.485 212.119 119.086 211.783 118.834C211.461 118.582 210.978 118.449 210.334 118.435L208.213 118.414V121.69H210.334ZM217.673 112.702H220.928V117.112H225.842V112.702H229.118V124H225.842V119.779H220.928V124H217.673V112.702ZM236.643 112.534C238.393 112.534 239.737 112.954 240.675 113.794C241.613 114.62 242.082 115.873 242.082 117.553V124H239.016V122.593C238.4 123.643 237.252 124.168 235.572 124.168C234.704 124.168 233.948 124.021 233.304 123.727C232.674 123.433 232.191 123.027 231.855 122.509C231.519 121.991 231.351 121.403 231.351 120.745C231.351 119.695 231.743 118.869 232.527 118.267C233.325 117.665 234.55 117.364 236.202 117.364H238.806C238.806 116.65 238.589 116.104 238.155 115.726C237.721 115.334 237.07 115.138 236.202 115.138C235.6 115.138 235.005 115.236 234.417 115.432C233.843 115.614 233.353 115.866 232.947 116.188L231.771 113.899C232.387 113.465 233.122 113.129 233.976 112.891C234.844 112.653 235.733 112.534 236.643 112.534ZM236.391 121.963C236.951 121.963 237.448 121.837 237.882 121.585C238.316 121.319 238.624 120.934 238.806 120.43V119.275H236.559C235.215 119.275 234.543 119.716 234.543 120.598C234.543 121.018 234.704 121.354 235.026 121.606C235.362 121.844 235.817 121.963 236.391 121.963ZM254.966 112.702V124H252.047V120.766H249.632L247.49 124H244.004L246.587 120.304C245.803 119.996 245.201 119.555 244.781 118.981C244.375 118.393 244.172 117.686 244.172 116.86C244.172 115.53 244.648 114.508 245.6 113.794C246.566 113.066 247.889 112.702 249.569 112.702H254.966ZM249.632 115.369C248.932 115.369 248.4 115.495 248.036 115.747C247.686 115.999 247.511 116.405 247.511 116.965C247.511 117.525 247.679 117.938 248.015 118.204C248.365 118.456 248.89 118.582 249.59 118.582H252.047V115.369H249.632Z" fill="white"/>
<path d="M268.458 119.296H266.148V124H264.132V112.87H266.148V117.574H268.5L272.112 112.87H274.275L270.054 118.225L274.569 124H272.196L268.458 119.296ZM280.446 112.765C281.986 112.765 283.162 113.143 283.974 113.899C284.8 114.655 285.213 115.782 285.213 117.28V124H283.302V122.53C282.966 123.048 282.483 123.447 281.853 123.727C281.237 123.993 280.502 124.126 279.648 124.126C278.402 124.126 277.401 123.825 276.645 123.223C275.903 122.621 275.532 121.83 275.532 120.85C275.532 119.87 275.889 119.086 276.603 118.498C277.317 117.896 278.451 117.595 280.005 117.595H283.197V117.196C283.197 116.328 282.945 115.663 282.441 115.201C281.937 114.739 281.195 114.508 280.215 114.508C279.557 114.508 278.913 114.62 278.283 114.844C277.653 115.054 277.121 115.341 276.687 115.705L275.847 114.193C276.421 113.731 277.107 113.381 277.905 113.143C278.703 112.891 279.55 112.765 280.446 112.765ZM279.984 122.572C280.754 122.572 281.419 122.404 281.979 122.068C282.539 121.718 282.945 121.228 283.197 120.598V119.044H280.089C278.381 119.044 277.527 119.618 277.527 120.766C277.527 121.326 277.744 121.767 278.178 122.089C278.612 122.411 279.214 122.572 279.984 122.572ZM294.745 112.765C295.823 112.765 296.789 113.003 297.643 113.479C298.497 113.955 299.162 114.62 299.638 115.474C300.128 116.328 300.373 117.315 300.373 118.435C300.373 119.555 300.128 120.549 299.638 121.417C299.162 122.271 298.497 122.936 297.643 123.412C296.789 123.888 295.823 124.126 294.745 124.126C293.947 124.126 293.212 123.972 292.54 123.664C291.882 123.356 291.322 122.908 290.86 122.32V128.074H288.844V112.87H290.776V114.634C291.224 114.018 291.791 113.556 292.477 113.248C293.163 112.926 293.919 112.765 294.745 112.765ZM294.577 122.362C295.291 122.362 295.928 122.201 296.488 121.879C297.062 121.543 297.51 121.081 297.832 120.493C298.168 119.891 298.336 119.205 298.336 118.435C298.336 117.665 298.168 116.986 297.832 116.398C297.51 115.796 297.062 115.334 296.488 115.012C295.928 114.69 295.291 114.529 294.577 114.529C293.877 114.529 293.24 114.697 292.666 115.033C292.106 115.355 291.658 115.81 291.322 116.398C291 116.986 290.839 117.665 290.839 118.435C290.839 119.205 291 119.891 291.322 120.493C291.644 121.081 292.092 121.543 292.666 121.879C293.24 122.201 293.877 122.362 294.577 122.362ZM311.186 114.634H307.112V124H305.096V114.634H301.022V112.87H311.186V114.634ZM317.217 112.765C318.757 112.765 319.933 113.143 320.745 113.899C321.571 114.655 321.984 115.782 321.984 117.28V124H320.073V122.53C319.737 123.048 319.254 123.447 318.624 123.727C318.008 123.993 317.273 124.126 316.419 124.126C315.173 124.126 314.172 123.825 313.416 123.223C312.674 122.621 312.303 121.83 312.303 120.85C312.303 119.87 312.66 119.086 313.374 118.498C314.088 117.896 315.222 117.595 316.776 117.595H319.968V117.196C319.968 116.328 319.716 115.663 319.212 115.201C318.708 114.739 317.966 114.508 316.986 114.508C316.328 114.508 315.684 114.62 315.054 114.844C314.424 115.054 313.892 115.341 313.458 115.705L312.618 114.193C313.192 113.731 313.878 113.381 314.676 113.143C315.474 112.891 316.321 112.765 317.217 112.765ZM316.755 122.572C317.525 122.572 318.19 122.404 318.75 122.068C319.31 121.718 319.716 121.228 319.968 120.598V119.044H316.86C315.152 119.044 314.298 119.618 314.298 120.766C314.298 121.326 314.515 121.767 314.949 122.089C315.383 122.411 315.985 122.572 316.755 122.572Z" fill="#202020"/>
</g>
<defs>
<filter id="filter0_dd" x="0" y="1" width="425" height="237" filterUnits="userSpaceOnUse" color-interpolation-filters="sRGB">
<feFlood flood-opacity="0" result="BackgroundImageFix"/>
<feColorMatrix in="SourceAlpha" type="matrix" values="0 0 0 0 0 0 0 0 0 0 0 0 0 0 0 0 0 0 127 0" result="hardAlpha"/>
<feOffset dx="1" dy="1"/>
<feGaussianBlur stdDeviation="0.5"/>
<feColorMatrix type="matrix" values="0 0 0 0 0.446522 0 0 0 0 0.598253 0 0 0 0 0 0 0 0 0.6 0"/>
<feBlend mode="normal" in2="BackgroundImageFix" result="effect1_dropShadow"/>
<feColorMatrix in="SourceAlpha" type="matrix" values="0 0 0 0 0 0 0 0 0 0 0 0 0 0 0 0 0 0 127 0" result="hardAlpha"/>
<feOffset dx="2" dy="2"/>
<feGaussianBlur stdDeviation="2.5"/>
<feColorMatrix type="matrix" values="0 0 0 0 0.392157 0 0 0 0 0.552941 0 0 0 0 0.662745 0 0 0 1 0"/>
<feBlend mode="normal" in2="effect1_dropShadow" result="effect2_dropShadow"/>
<feBlend mode="normal" in="SourceGraphic" in2="effect2_dropShadow" result="shape"/>
</filter>
<linearGradient id="paint0_linear" x1="210.5" y1="4" x2="210.5" y2="231" gradientUnits="userSpaceOnUse">
<stop stop-color="white"/>
<stop offset="0.712707" stop-color="white"/>
<stop offset="1" stop-color="white" stop-opacity="0"/>
</linearGradient>
<linearGradient id="paint1_linear" x1="210.5" y1="4" x2="210.5" y2="231" gradientUnits="userSpaceOnUse">
<stop stop-color="white"/>
<stop offset="0.712707" stop-color="white"/>
<stop offset="1" stop-color="white" stop-opacity="0"/>
</linearGradient>
<linearGradient id="paint2_linear" x1="175.5" y1="4" x2="175.5" y2="205" gradientUnits="userSpaceOnUse">
<stop stop-color="white"/>
<stop offset="0.0163934" stop-color="white" stop-opacity="0"/>
</linearGradient>
<linearGradient id="paint3_linear" x1="3" y1="85.1414" x2="348" y2="85.1414" gradientUnits="userSpaceOnUse">
<stop stop-color="white"/>
<stop offset="0.0619718" stop-color="white" stop-opacity="0"/>
</linearGradient>
</defs>
</svg>
