<svg width="434" height="243" viewBox="0 0 434 243" fill="none" xmlns="http://www.w3.org/2000/svg">
<g filter="url(#filter0_dd)">
<rect x="3" y="4" width="419" height="227" rx="10" fill="#9DC622"/>
<rect x="3.5" y="4.5" width="418" height="226" rx="9.5" stroke="url(#paint0_linear)" stroke-opacity="0.16" style="mix-blend-mode:soft-light"/>
</g>
<mask id="mask0" mask-type="alpha" maskUnits="userSpaceOnUse" x="3" y="4" width="419" height="227">
<rect x="3" y="4" width="419" height="227" rx="10" fill="#61FF00"/>
<rect x="3.5" y="4.5" width="418" height="226" rx="9.5" stroke="url(#paint1_linear)" stroke-opacity="0.16"/>
</mask>
<g mask="url(#mask0)">
<path d="M339.445 31.7422C337.93 31.7399 336.459 32.2443 335.271 33.1757C288.073 68.9524 265.68 128.469 277.701 186.215C286.61 229.012 313.237 265.27 349.893 286.973C371.512 299.771 407.976 313.194 428.044 324.112L459.362 341.131C460.137 341.568 460.991 341.846 461.876 341.952C462.761 342.058 463.657 341.989 464.515 341.747C465.372 341.505 466.172 341.096 466.868 340.545C467.565 339.993 468.144 339.309 468.572 338.533C469.001 337.757 469.269 336.906 469.362 336.026C469.455 335.146 469.371 334.256 469.115 333.408C468.859 332.561 468.436 331.774 467.87 331.091C467.304 330.407 466.607 329.842 465.819 329.429L434.501 312.41C412.586 300.487 376.15 286.961 356.797 275.506C323.335 255.695 298.992 222.629 290.853 183.531C279.871 130.778 300.294 76.4654 343.409 43.7832C344.545 42.9503 345.389 41.7831 345.819 40.4471C346.25 39.1112 346.245 37.6755 345.806 36.3423C345.367 35.0091 344.517 33.8467 343.375 33.0209C342.232 32.1952 340.857 31.7478 339.445 31.7422Z" fill="#A5CE2C"/>
<path fill-rule="evenodd" clip-rule="evenodd" d="M285.813 7.60877C284.582 7.60248 283.372 7.93196 282.317 8.56168C281.261 9.19141 280.4 10.0969 279.828 11.1793C279.828 11.1793 276.71 16.9851 273.685 24.367C270.659 31.7489 267.383 40.3848 267.778 48.7355C268.242 58.5554 273.228 68.9146 277.806 77.6389C282.384 86.3633 286.863 93.1462 286.863 93.1462C287.476 94.0654 288.308 94.8202 289.286 95.3419C290.264 95.8637 291.357 96.1368 292.468 96.1368C293.578 96.1368 294.671 95.8637 295.649 95.3419C296.627 94.8202 297.46 94.0654 298.072 93.1462C298.072 93.1462 302.508 86.5528 306.762 78.082C311.016 69.6112 315.634 59.599 314.742 49.6216C313.852 39.6416 307.517 30.6072 301.826 23.0118C296.136 15.4177 290.617 9.69378 290.617 9.69378C289.998 9.04428 289.254 8.52578 288.428 8.16749C287.603 7.80919 286.714 7.61909 285.813 7.60877ZM287.414 26.6605C288.996 28.5314 289.197 28.5316 291.037 30.9869C296.181 37.8524 300.994 46.7606 301.354 50.7945C301.714 54.827 298.558 64.4568 294.712 72.1137C293.592 74.3448 293.472 74.2584 292.428 76.1012C291.215 74.0196 291.093 74.0695 289.724 71.4621C285.489 63.3903 281.459 53.1928 281.219 48.11C281.048 44.4978 283.408 36.0985 286.154 29.3971C286.781 27.8692 286.815 27.9949 287.414 26.6605Z" fill="#A5CE2C"/>
<path fill-rule="evenodd" clip-rule="evenodd" d="M237.011 93.276C236.115 93.2826 235.229 93.467 234.406 93.8184C233.583 94.1698 232.839 94.6808 232.218 95.3219C231.597 95.9629 231.111 96.7217 230.789 97.5518C230.467 98.382 230.315 99.2673 230.343 100.156C230.343 100.156 230.535 106.719 231.577 114.621C232.619 122.524 234.088 131.662 238.586 138.729C243.876 147.04 253.314 153.587 261.635 158.928C269.956 164.268 277.255 167.971 277.255 167.971C278.244 168.474 279.343 168.725 280.454 168.703C281.564 168.68 282.652 168.383 283.619 167.841C284.587 167.299 285.404 166.527 285.997 165.595C286.591 164.662 286.942 163.598 287.02 162.498C287.02 162.498 287.562 154.592 287.046 145.14C286.531 135.689 285.593 124.71 279.854 116.472C274.115 108.232 264.114 103.474 255.387 99.6613C246.661 95.8476 239.006 93.5626 239.006 93.5626C238.359 93.3702 237.687 93.2758 237.011 93.2825L237.011 93.276ZM244.65 109.904C246.956 110.758 247.134 110.652 249.953 111.885C257.841 115.331 266.482 120.725 268.802 124.056C271.122 127.387 273.166 137.3 273.632 145.844C273.769 148.348 273.623 148.333 273.632 150.457C271.529 149.23 271.44 149.323 268.933 147.721C261.234 142.781 252.665 135.915 249.927 131.614C247.981 128.557 245.859 120.073 244.913 112.901C244.697 111.264 244.794 111.358 244.65 109.904H244.65Z" fill="#A5CE2C"/>
<path fill-rule="evenodd" clip-rule="evenodd" d="M273.921 202.922C264.131 200.497 253.477 203.483 244.388 206.336C235.299 209.193 228.033 212.513 228.033 212.513C227.066 212.952 226.219 213.613 225.559 214.442C224.9 215.27 224.448 216.242 224.24 217.277C224.033 218.313 224.075 219.383 224.365 220.398C224.655 221.414 225.183 222.347 225.907 223.12C225.907 223.12 230.422 227.93 236.46 233.181C242.498 238.433 249.672 244.349 257.75 246.707C267.249 249.481 278.716 248.203 288.517 246.707C298.318 245.263 306.236 243.267 306.236 243.267C307.898 242.851 309.337 241.821 310.259 240.387C311.182 238.953 311.517 237.224 311.198 235.552C310.997 234.527 310.557 233.563 309.912 232.737C309.912 232.737 305.06 226.44 298.387 219.68C291.714 212.92 283.71 205.294 273.921 202.87V202.922ZM270.666 215.875C274.624 216.849 282.773 222.952 288.805 229.063C290.561 230.841 290.438 230.923 291.851 232.503C289.462 232.97 289.468 233.117 286.522 233.544C277.454 234.879 266.447 235.317 261.53 233.876C258.035 232.849 250.787 227.905 245.307 223.138C244.05 222.044 244.181 222.058 243.102 221.053C245.407 220.173 245.478 219.973 248.431 219.046C256.647 216.464 266.709 214.886 270.666 215.867V215.875Z" fill="#A5CE2C"/>
<path fill-rule="evenodd" clip-rule="evenodd" d="M392.341 -24.943C392.129 -24.9085 391.919 -24.8639 391.711 -24.8094C391.711 -24.8094 383.83 -23.5413 374.674 -20.8992C365.526 -18.2597 354.993 -14.859 348.213 -7.45172C341.432 -0.0337658 339.028 10.7161 337.266 20.0182C335.503 29.3204 335.008 37.2456 335.008 37.2456C334.94 38.3459 335.148 39.4453 335.612 40.4464C336.077 41.4476 336.784 42.3191 337.671 42.9826C338.558 43.6462 339.596 44.0822 340.694 44.2499C341.791 44.4177 342.913 44.3133 343.96 43.9453C343.96 43.9453 351.673 41.2445 360.63 37.0371C369.586 32.8297 379.828 27.567 386.172 20.0182C391.567 13.5998 394.2 4.72952 396.279 -2.96733C398.358 -10.6655 399.429 -17.1462 399.429 -17.1462C399.594 -18.139 399.53 -19.1557 399.243 -20.1206C398.956 -21.0855 398.452 -21.9734 397.771 -22.7179C397.089 -23.4624 396.247 -24.0445 395.306 -24.4201C394.366 -24.7957 393.353 -24.9551 392.341 -24.8868L392.341 -24.943ZM383.967 -9.43573C383.632 -8.00926 383.743 -8.08928 383.311 -6.49066C381.423 0.496279 378.163 8.63744 375.829 11.4143C372.546 15.3215 363.167 21.0223 354.88 24.9148C352.188 26.1824 352.109 26.0617 349.866 26.9998C350.157 24.8967 350.004 24.8995 350.47 22.4388C352.063 14.0294 355.421 4.45683 358.162 1.45843C360.902 -1.53998 370.152 -5.77142 378.428 -8.15867C381.398 -9.01269 381.563 -8.8927 383.967 -9.43981L383.967 -9.43573Z" fill="#A5CE2C"/>
<path d="M518.481 31.7681C517.092 31.8227 515.755 32.303 514.653 33.1429C513.552 33.9829 512.739 35.1421 512.327 36.4594C511.916 37.7767 511.925 39.1875 512.355 40.4991C512.785 41.8107 513.613 42.958 514.727 43.783C557.841 76.4652 578.264 130.778 567.282 183.531C559.143 222.629 534.8 255.695 501.338 275.505C481.986 286.961 445.549 300.487 423.634 312.41L392.316 329.429C391.528 329.842 390.831 330.407 390.265 331.09C389.699 331.774 389.276 332.561 389.02 333.408C388.764 334.256 388.68 335.146 388.773 336.026C388.866 336.906 389.135 337.757 389.563 338.533C389.991 339.309 390.57 339.993 391.267 340.545C391.963 341.096 392.763 341.505 393.621 341.747C394.478 341.988 395.375 342.058 396.259 341.952C397.144 341.846 397.999 341.568 398.774 341.131L430.092 324.112C450.159 313.194 486.623 299.771 508.242 286.973C544.898 265.27 571.525 229.012 580.434 186.215C592.455 128.469 570.062 68.9522 522.865 33.1755C521.616 32.2081 520.063 31.7099 518.481 31.7681Z" fill="#A5CE2C"/>
<path d="M430.273 41.7498C367.097 41.7498 315.739 92.5092 315.739 154.948C315.739 217.387 367.097 268.146 430.273 268.146C493.449 268.146 544.808 217.387 544.808 154.948C544.808 92.5092 493.449 41.7498 430.273 41.7498ZM430.273 55.0672C486.167 55.0672 531.333 99.7073 531.333 154.948C531.333 210.19 486.167 254.829 430.273 254.829C374.38 254.829 329.213 210.19 329.213 154.948C329.213 99.7073 374.38 55.0672 430.273 55.0672Z" fill="#A5CE2C"/>
<rect x="3.5" y="4.5" width="347.325" height="200" rx="9.5" stroke="url(#paint2_linear)" stroke-opacity="0.16" style="mix-blend-mode:overlay"/>
<rect x="3.5" y="4.5" width="347.325" height="200" rx="9.5" stroke="url(#paint3_linear)" stroke-opacity="0.08" style="mix-blend-mode:overlay"/>
<path d="M43.5044 36.0398C43.2907 36.0394 43.0832 36.1109 42.9154 36.2429C36.2561 41.3121 33.0966 49.7449 34.7927 57.9269C36.0497 63.9908 39.8066 69.1282 44.9785 72.2033C48.0289 74.0166 53.1737 75.9185 56.0052 77.4655L60.424 79.8769C60.5334 79.9387 60.6539 79.9782 60.7788 79.9932C60.9036 80.0082 61.0301 79.9984 61.1511 79.9641C61.272 79.9299 61.3849 79.8719 61.4832 79.7938C61.5815 79.7156 61.6632 79.6187 61.7236 79.5088C61.784 79.3988 61.8219 79.2782 61.835 79.1536C61.8482 79.0289 61.8364 78.9027 61.8002 78.7827C61.7641 78.6626 61.7043 78.5511 61.6245 78.4542C61.5447 78.3574 61.4463 78.2774 61.3352 78.2188L56.9164 75.8074C53.8242 74.1181 48.6832 72.2016 45.9527 70.5784C41.2313 67.7715 37.7967 63.0864 36.6483 57.5466C35.0989 50.072 37.9804 42.3766 44.0637 37.7458C44.224 37.6278 44.3431 37.4625 44.4038 37.2732C44.4645 37.0839 44.4639 36.8805 44.402 36.6916C44.34 36.5026 44.22 36.338 44.0588 36.221C43.8977 36.104 43.7037 36.0406 43.5044 36.0398Z" fill="white"/>
<path fill-rule="evenodd" clip-rule="evenodd" d="M35.9372 32.6203C35.7634 32.6194 35.5928 32.6661 35.4438 32.7553C35.2949 32.8446 35.1734 32.9729 35.0927 33.1262C35.0927 33.1262 34.6528 33.9488 34.2259 34.9948C33.799 36.0407 33.3367 37.2643 33.3925 38.4475C33.458 39.8389 34.1615 41.3067 34.8074 42.5428C35.4534 43.779 36.0853 44.74 36.0853 44.74C36.1718 44.8703 36.2892 44.9772 36.4272 45.0512C36.5652 45.1251 36.7194 45.1638 36.8761 45.1638C37.0328 45.1638 37.187 45.1251 37.325 45.0512C37.463 44.9772 37.5804 44.8703 37.6669 44.74C37.6669 44.74 38.2927 43.8058 38.8929 42.6056C39.4931 41.4054 40.1447 39.9868 40.0189 38.5731C39.8933 37.159 38.9995 35.8789 38.1966 34.8028C37.3937 33.7267 36.615 32.9157 36.615 32.9157C36.5276 32.8237 36.4226 32.7502 36.3062 32.6995C36.1897 32.6487 36.0642 32.6218 35.9372 32.6203ZM36.1631 35.3197C36.3863 35.5848 36.4147 35.5849 36.6742 35.9327C37.4 36.9055 38.0791 38.1677 38.1299 38.7393C38.1807 39.3106 37.7354 40.6751 37.1928 41.76C37.0347 42.0761 37.0178 42.0639 36.8705 42.325C36.6994 42.03 36.6821 42.0371 36.489 41.6676C35.8914 40.524 35.3229 39.0791 35.289 38.3589C35.2648 37.8471 35.5978 36.657 35.9853 35.7075C36.0737 35.491 36.0786 35.5088 36.1631 35.3197Z" fill="white"/>
<path fill-rule="evenodd" clip-rule="evenodd" d="M29.0515 44.7584C28.9251 44.7594 28.8001 44.7855 28.684 44.8353C28.5678 44.8851 28.4628 44.9575 28.3752 45.0483C28.2875 45.1392 28.219 45.2467 28.1735 45.3643C28.1281 45.4819 28.1068 45.6074 28.1107 45.7333C28.1107 45.7333 28.1377 46.6632 28.2848 47.7828C28.4318 48.9025 28.639 50.1973 29.2737 51.1987C30.0201 52.3762 31.3517 53.3039 32.5258 54.0606C33.6999 54.8172 34.7297 55.342 34.7297 55.342C34.8692 55.4132 35.0243 55.4488 35.181 55.4456C35.3377 55.4424 35.4912 55.4003 35.6277 55.3235C35.7642 55.2467 35.8795 55.1374 35.9632 55.0052C36.0469 54.8731 36.0965 54.7224 36.1075 54.5665C36.1075 54.5665 36.184 53.4463 36.1112 52.1071C36.0385 50.7679 35.9061 49.2123 35.0963 48.045C34.2866 46.8775 32.8755 46.2034 31.6443 45.6632C30.413 45.1228 29.333 44.7991 29.333 44.7991C29.2417 44.7718 29.1468 44.7584 29.0515 44.7594L29.0515 44.7584ZM30.1293 47.1144C30.4546 47.2354 30.4797 47.2204 30.8775 47.3951C31.9905 47.8835 33.2097 48.6477 33.537 49.1196C33.8644 49.5915 34.1527 50.9962 34.2185 52.2068C34.2378 52.5615 34.2172 52.5594 34.2185 52.8604C33.9218 52.6865 33.9092 52.6998 33.5555 52.4727C32.4692 51.7727 31.2601 50.7999 30.8738 50.1905C30.5992 49.7574 30.2998 48.5554 30.1664 47.5391C30.1359 47.3071 30.1496 47.3205 30.1293 47.1144H30.1293Z" fill="white"/>
<path fill-rule="evenodd" clip-rule="evenodd" d="M34.2593 60.2941C32.878 59.9505 31.3748 60.3736 30.0923 60.7778C28.8099 61.1826 27.7847 61.653 27.7847 61.653C27.6483 61.7153 27.5287 61.809 27.4357 61.9263C27.3426 62.0437 27.2788 62.1814 27.2496 62.3281C27.2203 62.4748 27.2263 62.6264 27.2672 62.7703C27.3081 62.9143 27.3826 63.0464 27.4847 63.156C27.4847 63.156 28.1218 63.8374 28.9737 64.5814C29.8257 65.3256 30.8378 66.1639 31.9776 66.498C33.3179 66.8911 34.9358 66.7099 36.3187 66.498C37.7015 66.2934 38.8188 66.0105 38.8188 66.0105C39.0533 65.9516 39.2563 65.8056 39.3864 65.6025C39.5166 65.3993 39.5639 65.1543 39.5189 64.9175C39.4905 64.7722 39.4284 64.6356 39.3374 64.5186C39.3374 64.5186 38.6529 63.6264 37.7113 62.6686C36.7698 61.7107 35.6405 60.6302 34.2593 60.2867V60.2941ZM33.8 62.1294C34.3584 62.2674 35.5083 63.1322 36.3594 63.998C36.6071 64.25 36.5897 64.2615 36.7891 64.4854C36.452 64.5516 36.4529 64.5724 36.0372 64.6329C34.7577 64.8221 33.2047 64.8842 32.511 64.68C32.0179 64.5344 30.9952 63.8339 30.2219 63.1585C30.0446 63.0035 30.0632 63.0055 29.9108 62.8631C30.236 62.7383 30.2461 62.71 30.6627 62.5788C31.822 62.2129 33.2417 61.9893 33.8 62.1283V62.1294Z" fill="white"/>
<path fill-rule="evenodd" clip-rule="evenodd" d="M41.2598 70.0947C39.8663 70.3853 38.6928 71.4187 37.7151 72.3399C36.7374 73.261 36.0224 74.1272 36.0224 74.1272C35.9265 74.2424 35.8595 74.3787 35.8267 74.5248C35.794 74.671 35.7966 74.8228 35.8342 74.9677C35.8718 75.1127 35.9434 75.2465 36.0431 75.3585C36.1428 75.4704 36.2677 75.5573 36.4076 75.6117C36.4076 75.6117 37.2788 75.9507 38.3707 76.2505C39.4625 76.5504 40.7399 76.8612 41.9117 76.6678C43.2899 76.4398 44.6675 75.5763 45.823 74.7919C46.9786 74.0074 47.8602 73.2668 47.8602 73.2668C47.9587 73.1846 48.0395 73.0834 48.0976 72.9693C48.1558 72.8551 48.19 72.7303 48.1983 72.6025C48.2067 72.4747 48.1888 72.3468 48.146 72.2261C48.1032 72.1054 48.0362 71.9945 47.9491 71.9004C47.8719 71.8171 47.7803 71.7483 47.6787 71.6973C47.6787 71.6973 46.6742 71.191 45.4082 70.7372C44.1422 70.2834 42.6534 69.804 41.2598 70.0947H41.2598ZM41.645 71.9447C42.208 71.8275 43.6193 72.1074 44.7637 72.5171C45.0991 72.6381 45.0887 72.6551 45.3674 72.7719C45.0928 72.9765 45.103 72.9944 44.7563 73.2298C43.6872 73.9557 42.3139 74.685 41.6005 74.803C41.093 74.8861 39.8656 74.6989 38.8744 74.4263C38.6476 74.3639 38.6658 74.3545 38.467 74.294C38.7052 74.0416 38.7022 74.0124 39.0189 73.714C39.9027 72.8814 41.0817 72.0628 41.645 71.9454V71.9447Z" fill="white"/>
<path fill-rule="evenodd" clip-rule="evenodd" d="M50.9678 28.0081C50.9379 28.013 50.9082 28.0193 50.8789 28.027C50.8789 28.027 49.7668 28.2067 48.475 28.581C47.1842 28.955 45.6982 29.4369 44.7415 30.4864C43.7848 31.5374 43.4456 33.0606 43.1969 34.3786C42.9482 35.6966 42.8784 36.8195 42.8784 36.8195C42.8688 36.9754 42.8981 37.1312 42.9636 37.2731C43.0292 37.4149 43.129 37.5384 43.2541 37.6324C43.3792 37.7264 43.5257 37.7882 43.6806 37.812C43.8354 37.8357 43.9937 37.8209 44.1414 37.7688C44.1414 37.7688 45.2298 37.3861 46.4934 36.79C47.7571 36.1939 49.2023 35.4482 50.0974 34.3786C50.8585 33.4692 51.23 32.2124 51.5234 31.1218C51.8168 30.031 51.9679 29.1128 51.9679 29.1128C51.9911 28.9721 51.9821 28.8281 51.9416 28.6914C51.901 28.5546 51.83 28.4288 51.7338 28.3234C51.6377 28.2179 51.5188 28.1354 51.3861 28.0822C51.2535 28.0289 51.1105 28.0064 50.9678 28.016L50.9678 28.0081ZM49.7862 30.2053C49.7389 30.4074 49.7546 30.3961 49.6936 30.6226C49.4273 31.6125 48.9673 32.7661 48.638 33.1595C48.1747 33.7131 46.8514 34.5209 45.6822 35.0724C45.3024 35.252 45.2913 35.2349 44.9748 35.3678C45.0158 35.0698 44.9942 35.0702 45.06 34.7216C45.2848 33.53 45.7585 32.1737 46.1452 31.7489C46.5319 31.324 47.837 30.7245 49.0047 30.3862C49.4238 30.2652 49.447 30.2822 49.7862 30.2047L49.7862 30.2053Z" fill="white"/>
<path d="M68.7654 36.0434C68.5695 36.0512 68.3809 36.1192 68.2254 36.2382C68.0699 36.3572 67.9552 36.5215 67.8972 36.7081C67.8391 36.8948 67.8405 37.0947 67.9011 37.2805C67.9617 37.4664 68.0786 37.6289 68.2357 37.7458C74.319 42.3765 77.2005 50.072 75.651 57.5466C74.5027 63.0863 71.068 67.7715 66.3467 70.5784C63.6161 72.2016 58.4752 74.118 55.383 75.8074L50.9642 78.2188C50.853 78.2774 50.7547 78.3574 50.6749 78.4542C50.595 78.551 50.5353 78.6626 50.4991 78.7826C50.463 78.9027 50.4512 79.0289 50.4643 79.1535C50.4775 79.2782 50.5153 79.3988 50.5757 79.5087C50.6361 79.6186 50.7179 79.7156 50.8162 79.7938C50.9145 79.8719 51.0273 79.9298 51.1483 79.9641C51.2692 79.9983 51.3958 80.0081 51.5206 79.9932C51.6454 79.9782 51.766 79.9387 51.8753 79.8769L56.2942 77.4655C59.1256 75.9185 64.2705 74.0166 67.3208 72.2032C72.4928 69.1282 76.2497 63.9908 77.5067 57.9269C79.2028 49.7449 76.0433 41.312 69.3839 36.2428C69.2078 36.1058 68.9887 36.0352 68.7654 36.0434Z" fill="white"/>
<path fill-rule="evenodd" clip-rule="evenodd" d="M76.3547 32.6204C76.2289 32.6228 76.1048 32.6502 75.9897 32.7009C75.8746 32.7517 75.7708 32.8247 75.6843 32.9158C75.6843 32.9158 74.9056 33.7268 74.1027 34.8028C73.2998 35.879 72.406 37.1591 72.2804 38.5732C72.1546 39.9868 72.8061 41.4055 73.4064 42.6057C74.0066 43.8059 74.6324 44.7401 74.6324 44.7401C74.7189 44.8704 74.8363 44.9773 74.9743 45.0512C75.1123 45.1252 75.2665 45.1639 75.4232 45.1639C75.5798 45.1639 75.7341 45.1252 75.8721 45.0512C76.01 44.9773 76.1275 44.8704 76.214 44.7401C76.214 44.7401 76.8459 43.7791 77.4918 42.5429C78.1378 41.3068 78.8412 39.839 78.9068 38.4476C78.9625 37.2644 78.5003 36.0408 78.0734 34.9948C77.6465 33.9489 77.2066 33.1263 77.2066 33.1263C77.1253 32.9718 77.0027 32.8426 76.8523 32.7533C76.7019 32.664 76.5297 32.6181 76.3547 32.6204ZM76.1362 35.3198C76.2207 35.5089 76.2256 35.492 76.314 35.7076C76.7015 36.6571 77.0345 37.8472 77.0103 38.359C76.9764 39.0791 76.4079 40.524 75.8103 41.6677C75.6172 42.0372 75.5999 42.0301 75.4287 42.325C75.2814 42.0639 75.2646 42.0762 75.1065 41.76C74.5639 40.6751 74.1185 39.3107 74.1694 38.7393C74.2202 38.1678 74.8993 36.9056 75.6251 35.9328C75.8846 35.5849 75.913 35.5849 76.1362 35.3198Z" fill="white"/>
<path fill-rule="evenodd" clip-rule="evenodd" d="M83.2402 44.7585C83.1474 44.7583 83.055 44.7716 82.9661 44.7982C82.9661 44.7982 81.8861 45.1221 80.6548 45.6625C79.4236 46.2027 78.0125 46.8766 77.2028 48.0441C76.393 49.2114 76.2606 50.7672 76.1879 52.1064C76.1151 53.4456 76.1917 54.5658 76.1917 54.5658C76.2027 54.7217 76.2522 54.8725 76.336 55.0046C76.4197 55.1367 76.535 55.246 76.6715 55.3228C76.808 55.3997 76.9615 55.4415 77.1182 55.4447C77.2749 55.4479 77.43 55.4125 77.5695 55.3413C77.5695 55.3413 78.5993 54.8166 79.7734 54.0599C80.9475 53.3032 82.2791 52.3755 83.0255 51.198C83.6602 50.1967 83.8674 48.9018 84.0144 47.7822C84.1614 46.6625 84.1885 45.7327 84.1885 45.7327C84.1925 45.6061 84.1708 45.4799 84.125 45.3618C84.0791 45.2437 84.0099 45.136 83.9214 45.0451C83.833 44.9542 83.7271 44.8819 83.6101 44.8325C83.4931 44.7832 83.3673 44.7577 83.2403 44.7578L83.2402 44.7585ZM82.1698 47.1145C82.1495 47.3205 82.1631 47.3071 82.1327 47.5391C81.9992 48.5554 81.6999 49.7574 81.4253 50.1906C81.039 50.7999 79.8299 51.7728 78.7436 52.4727C78.3899 52.7007 78.3773 52.6873 78.0806 52.8604C78.0819 52.5594 78.0613 52.5615 78.0806 52.2068C78.1464 50.9962 78.4347 49.5916 78.7621 49.1196C79.0894 48.6477 80.3086 47.8835 81.4216 47.3951C81.8194 47.2212 81.8445 47.2343 82.1698 47.1145Z" fill="white"/>
<path fill-rule="evenodd" clip-rule="evenodd" d="M78.04 60.294C76.6588 60.6375 75.5295 61.718 74.5879 62.6758C73.6464 63.6337 72.9619 64.5259 72.9619 64.5259C72.8709 64.6429 72.8087 64.7794 72.7804 64.9247C72.7354 65.1616 72.7827 65.4066 72.9128 65.6097C73.043 65.8129 73.246 65.9589 73.4805 66.0178C73.4805 66.0178 74.5978 66.3007 75.9806 66.5052C77.3635 66.7098 78.9813 66.891 80.3217 66.5052C81.4615 66.1712 82.4736 65.3329 83.3256 64.5887C84.1775 63.8447 84.8146 63.1633 84.8146 63.1633C84.9166 63.0537 84.9912 62.9213 85.0321 62.7774C85.073 62.6335 85.079 62.4821 85.0497 62.3354C85.0204 62.1887 84.9567 62.0509 84.8636 61.9336C84.7706 61.8162 84.6509 61.7226 84.5145 61.6603C84.5145 61.6603 83.4894 61.1899 82.207 60.7851C80.9245 60.3803 79.4213 59.9578 78.04 60.3014L78.04 60.294ZM78.4993 62.1293C79.0576 61.9913 80.4772 62.2145 81.6366 62.5798C82.0532 62.7122 82.0632 62.7405 82.3885 62.8642C82.2361 63.006 82.2547 63.004 82.0773 63.1596C81.304 63.8349 80.2814 64.5364 79.7883 64.681C79.0946 64.8844 77.5416 64.8228 76.2621 64.6337C75.8464 64.5713 75.8473 64.5507 75.5102 64.4864C75.7096 64.2626 75.6921 64.251 75.9399 63.999C76.791 63.1332 77.9409 62.2692 78.4993 62.1304V62.1293Z" fill="white"/>
<path fill-rule="evenodd" clip-rule="evenodd" d="M71.0393 70.0946C69.6457 69.804 68.1569 70.2836 66.8909 70.7372C65.6249 71.1909 64.6204 71.6973 64.6204 71.6973C64.5188 71.7483 64.4272 71.8171 64.35 71.9004C64.2629 71.9945 64.1959 72.1054 64.1531 72.2261C64.1102 72.3468 64.0924 72.4747 64.1007 72.6025C64.1091 72.7303 64.1433 72.8551 64.2014 72.9692C64.2596 73.0834 64.3403 73.1846 64.4389 73.2667C64.4389 73.2667 65.3205 74.0074 66.4761 74.7919C67.6316 75.5763 69.0092 76.4398 70.3874 76.6678C71.5592 76.8612 72.8365 76.5506 73.9284 76.2505C75.0203 75.9506 75.8915 75.6117 75.8915 75.6117C76.0314 75.5572 76.1563 75.4704 76.256 75.3585C76.3557 75.2465 76.4273 75.1127 76.4649 74.9677C76.5025 74.8228 76.5051 74.6709 76.4723 74.5248C76.4396 74.3787 76.3726 74.2424 76.2767 74.1272C76.2767 74.1272 75.5617 73.261 74.584 72.3398C73.6063 71.4187 72.4328 70.3852 71.0393 70.0946H71.0393ZM70.6504 71.9447C70.6517 71.9447 70.6529 71.9447 70.6542 71.9447C71.2175 72.0619 72.3965 72.8809 73.2803 73.7136C73.597 74.0119 73.594 74.0409 73.8322 74.2933C73.6333 74.3557 73.6516 74.3634 73.4248 74.4258C72.4336 74.6981 71.2062 74.8862 70.6987 74.8025C69.9853 74.6853 68.612 73.955 67.5429 73.2291C67.1961 72.9937 67.2063 72.976 66.9317 72.7714C67.2105 72.6561 67.2001 72.6373 67.5355 72.5166C68.6798 72.1065 70.0875 71.8267 70.6505 71.9443L70.6504 71.9447Z" fill="white"/>
<path fill-rule="evenodd" clip-rule="evenodd" d="M61.2277 28.008C61.0937 28.0136 60.9624 28.0474 60.8425 28.1073C60.7226 28.1672 60.6168 28.2518 60.5321 28.3554C60.4474 28.4591 60.3857 28.5795 60.3511 28.7087C60.3165 28.8379 60.3097 28.9729 60.3313 29.1048C60.3313 29.1048 60.4824 30.0229 60.7758 31.1136C61.0692 32.2042 61.4407 33.4612 62.2018 34.3706C63.0969 35.4402 64.5421 36.1859 65.8058 36.782C67.0694 37.3782 68.1578 37.7606 68.1578 37.7606C68.3055 37.8128 68.4638 37.8276 68.6186 37.8038C68.7735 37.78 68.92 37.7185 69.0451 37.6245C69.1702 37.5304 69.27 37.407 69.3356 37.2651C69.4011 37.1232 69.4304 36.9675 69.4208 36.8116C69.4208 36.8116 69.351 35.6887 69.1023 34.3706C68.8536 33.0526 68.5144 31.5295 67.5577 30.4784C66.601 29.4289 65.1149 28.9469 63.8242 28.573C62.5324 28.1988 61.4203 28.0189 61.4203 28.0189C61.3569 28.0061 61.2924 27.9997 61.2277 28V28.008ZM62.513 30.2052C62.8522 30.2827 62.8754 30.2657 63.2945 30.3867C64.4622 30.725 65.7673 31.3244 66.1539 31.7492C66.5407 32.1741 67.0144 33.5306 67.2392 34.7222C67.305 35.0708 67.2834 35.0704 67.3244 35.3684C67.0079 35.236 66.9968 35.251 66.6169 35.0727C65.4478 34.5212 64.1245 33.7137 63.6612 33.1601C63.3318 32.7666 62.8719 31.613 62.6056 30.623C62.5446 30.3965 62.5603 30.4079 62.513 30.2058L62.513 30.2052Z" fill="white"/>
<path d="M56.3198 37.4577C47.406 37.4577 40.1596 44.6498 40.1595 53.4967C40.1596 62.3436 47.406 69.5357 56.3198 69.5357C65.2336 69.5357 72.48 62.3436 72.48 53.4967C72.48 44.6498 65.2336 37.4577 56.3198 37.4577ZM56.3198 39.3447C64.2061 39.3447 70.5788 45.6697 70.5788 53.4967C70.5788 61.3239 64.2061 67.6487 56.3198 67.6487C48.4335 67.6487 42.0608 61.3239 42.0607 53.4967C42.0608 45.6697 48.4335 39.3447 56.3198 39.3447Z" fill="white"/>
<path fill-rule="evenodd" clip-rule="evenodd" d="M56.3197 54.3377C56.8834 54.3377 57.3404 54.7912 57.3404 55.3506V68.1818C57.3404 68.7413 56.8834 69.1948 56.3197 69.1948C55.756 69.1948 55.2991 68.7413 55.2991 68.1818V55.3506C55.2991 54.7912 55.756 54.3377 56.3197 54.3377Z" fill="white"/>
<path fill-rule="evenodd" clip-rule="evenodd" d="M63.1241 46.2338C63.5288 46.2338 63.8953 46.4711 64.0583 46.8388L67.8007 55.2803C67.8577 55.4089 67.8871 55.5478 67.8871 55.6883C67.8871 58.3124 65.9893 60.7532 63.1241 60.7532C60.2589 60.7532 58.3611 58.3124 58.3611 55.6883C58.3611 55.5478 58.3905 55.4089 58.4475 55.2803L62.1899 46.8388C62.3529 46.4711 62.7194 46.2338 63.1241 46.2338ZM60.4078 55.8891C60.4966 57.527 61.6677 58.7273 63.1241 58.7273C64.5805 58.7273 65.7516 57.527 65.8404 55.8891L63.1241 49.762L60.4078 55.8891Z" fill="white"/>
<path fill-rule="evenodd" clip-rule="evenodd" d="M49.5153 46.2338C49.9201 46.2338 50.2865 46.4711 50.4495 46.8388L54.1919 55.2803C54.2489 55.4089 54.2783 55.5478 54.2783 55.6883C54.2783 58.3124 52.3805 60.7532 49.5153 60.7532C46.6501 60.7532 44.7523 58.3124 44.7523 55.6883C44.7523 55.5478 44.7818 55.4089 44.8388 55.2803L48.5811 46.8388C48.7441 46.4711 49.1106 46.2338 49.5153 46.2338ZM46.799 55.8891C46.8879 57.527 48.0589 58.7273 49.5153 58.7273C50.9717 58.7273 52.1428 57.527 52.2316 55.8891L49.5153 49.762L46.799 55.8891Z" fill="white"/>
<path fill-rule="evenodd" clip-rule="evenodd" d="M66.5261 57.039H59.7218V55.013H66.5261V57.039Z" fill="white"/>
<path fill-rule="evenodd" clip-rule="evenodd" d="M52.9176 57.039H46.1133V55.013H52.9176V57.039Z" fill="white"/>
<path fill-rule="evenodd" clip-rule="evenodd" d="M57.6805 46.5714C57.6805 46.012 58.1375 45.5584 58.7012 45.5584H65.5055C66.0692 45.5584 66.5262 46.012 66.5262 46.5714C66.5262 47.1309 66.0692 47.5844 65.5055 47.5844H58.7012C58.1375 47.5844 57.6805 47.1309 57.6805 46.5714Z" fill="white"/>
<path fill-rule="evenodd" clip-rule="evenodd" d="M46.1133 46.5714C46.1133 46.012 46.5702 45.5584 47.1339 45.5584H53.9382C54.5019 45.5584 54.9588 46.012 54.9588 46.5714C54.9588 47.1309 54.5019 47.5844 53.9382 47.5844H47.1339C46.5702 47.5844 46.1133 47.1309 46.1133 46.5714Z" fill="white"/>
<path fill-rule="evenodd" clip-rule="evenodd" d="M56.3198 45.5584C55.738 45.5584 55.2631 46.0279 55.2631 46.6111C55.2631 47.1944 55.738 47.6639 56.3198 47.6639C56.9015 47.6639 57.3764 47.1944 57.3764 46.6111C57.3764 46.0279 56.9015 45.5584 56.3198 45.5584ZM53.2218 46.6111C53.2218 44.9127 54.607 43.5325 56.3198 43.5325C58.0326 43.5325 59.4177 44.9127 59.4177 46.6111C59.4177 48.3096 58.0326 49.6898 56.3198 49.6898C54.607 49.6898 53.2218 48.3096 53.2218 46.6111Z" fill="white"/>
<path d="M57.3583 51.9542C57.3583 52.5246 56.8933 52.987 56.3197 52.987C55.746 52.987 55.281 52.5246 55.281 51.9542C55.281 51.3837 55.746 50.9213 56.3197 50.9213C56.8933 50.9213 57.3583 51.3837 57.3583 51.9542Z" fill="white"/>
<path d="M104.519 36.1353V38.0327H99.4272V50.8612H97.3084V38.0327H92.2171V36.1353H104.519ZM108.983 41.1634C110.747 41.1634 112.096 41.585 113.031 42.4283C113.973 43.2716 114.444 44.4908 114.444 46.0861C114.444 46.8169 114.321 47.488 114.075 48.0994C113.836 48.7038 113.495 49.2273 113.052 49.67C112.616 50.1057 112.096 50.4465 111.492 50.6925C110.895 50.9314 110.238 51.0509 109.521 51.0509C109.205 51.0509 108.895 51.0158 108.593 50.9455C108.291 50.8822 107.95 50.7733 107.571 50.6187V55.826H105.652V41.1634H108.983ZM107.571 42.8921V48.9005C108.168 49.1886 108.772 49.3327 109.384 49.3327C109.834 49.3327 110.245 49.2519 110.617 49.0903C110.997 48.9216 111.323 48.6932 111.597 48.4051C111.872 48.117 112.086 47.7726 112.241 47.3721C112.395 46.9715 112.472 46.5358 112.472 46.065C112.472 45.566 112.392 45.1198 112.23 44.7263C112.068 44.3327 111.843 44.0024 111.555 43.7354C111.274 43.4613 110.94 43.254 110.554 43.1135C110.174 42.9659 109.763 42.8921 109.321 42.8921H107.571ZM118.017 46.3074C118.326 48.247 119.412 49.2168 121.274 49.2168C121.872 49.2168 122.444 49.1149 122.992 48.9111C123.541 48.7073 124.099 48.4227 124.668 48.0572V49.9125C124.373 50.1092 124.082 50.2779 123.794 50.4184C123.512 50.559 123.217 50.6785 122.908 50.7768C122.606 50.8682 122.283 50.935 121.938 50.9771C121.594 51.0263 121.214 51.0509 120.8 51.0509C120.048 51.0509 119.38 50.9104 118.797 50.6293C118.214 50.3411 117.722 49.9581 117.321 49.4803C116.921 49.0024 116.615 48.4543 116.404 47.8359C116.2 47.2104 116.099 46.5639 116.099 45.8963C116.099 45.1584 116.207 44.4873 116.425 43.883C116.65 43.2786 116.963 42.7621 117.363 42.3334C117.764 41.8977 118.242 41.5639 118.797 41.332C119.352 41.0931 119.964 40.9736 120.631 40.9736C121.278 40.9736 121.857 41.0861 122.37 41.3109C122.891 41.5288 123.333 41.8591 123.699 42.3018C124.064 42.7445 124.345 43.2997 124.542 43.9673C124.739 44.6349 124.837 45.4149 124.837 46.3074H118.017ZM122.94 45.0319C122.912 44.2941 122.697 43.7108 122.297 43.2821C121.896 42.8535 121.355 42.6391 120.673 42.6391C119.928 42.6391 119.338 42.8464 118.902 43.261C118.474 43.6757 118.193 44.266 118.059 45.0319H122.94ZM131.288 42.8921V50.8612H129.359V42.8921H125.954V41.1634H134.693V42.8921H131.288ZM137.703 46.3074C138.012 48.247 139.098 49.2168 140.96 49.2168C141.557 49.2168 142.13 49.1149 142.678 48.9111C143.226 48.7073 143.785 48.4227 144.354 48.0572V49.9125C144.059 50.1092 143.767 50.2779 143.479 50.4184C143.198 50.559 142.903 50.6785 142.594 50.7768C142.292 50.8682 141.968 50.935 141.624 50.9771C141.28 51.0263 140.9 51.0509 140.486 51.0509C139.734 51.0509 139.066 50.9104 138.483 50.6293C137.899 50.3411 137.408 49.9581 137.007 49.4803C136.606 49.0024 136.301 48.4543 136.09 47.8359C135.886 47.2104 135.784 46.5639 135.784 45.8963C135.784 45.1584 135.893 44.4873 136.111 43.883C136.336 43.2786 136.649 42.7621 137.049 42.3334C137.45 41.8977 137.928 41.5639 138.483 41.332C139.038 41.0931 139.649 40.9736 140.317 40.9736C140.963 40.9736 141.543 41.0861 142.056 41.3109C142.576 41.5288 143.019 41.8591 143.384 42.3018C143.75 42.7445 144.031 43.2997 144.228 43.9673C144.424 44.6349 144.523 45.4149 144.523 46.3074H137.703ZM142.625 45.0319C142.597 44.2941 142.383 43.7108 141.982 43.2821C141.582 42.8535 141.041 42.6391 140.359 42.6391C139.614 42.6391 139.024 42.8464 138.588 43.261C138.159 43.6757 137.878 44.266 137.745 45.0319H142.625ZM153.325 44.6419L147.738 51.0509H146.652V41.1634H148.571V47.7726L154.21 41.1634H155.243V50.8612H153.325V44.6419ZM149.393 36.9786C149.484 37.4072 149.681 37.7445 149.983 37.9905C150.222 38.2084 150.58 38.3173 151.058 38.3173C151.48 38.3173 151.814 38.2119 152.06 38.001C152.306 37.7832 152.481 37.4424 152.587 36.9786H154.062C153.901 37.8851 153.556 38.5773 153.029 39.0552C152.509 39.526 151.845 39.7614 151.037 39.7614C150.194 39.7614 149.509 39.526 148.982 39.0552C148.455 38.5773 148.11 37.8851 147.949 36.9786H149.393ZM165.289 50.4922C165.127 50.5695 164.934 50.6433 164.709 50.7136C164.484 50.7768 164.242 50.8331 163.982 50.8822C163.722 50.9385 163.455 50.9806 163.18 51.0087C162.913 51.0368 162.653 51.0509 162.4 51.0509C161.677 51.0509 161.013 50.9314 160.408 50.6925C159.804 50.4536 159.284 50.1198 158.848 49.6911C158.419 49.2624 158.082 48.7529 157.836 48.1626C157.597 47.5653 157.478 46.9118 157.478 46.202C157.478 45.4009 157.59 44.6806 157.815 44.0411C158.04 43.3946 158.36 42.8464 158.774 42.3967C159.189 41.9399 159.691 41.5885 160.282 41.3426C160.872 41.0966 161.536 40.9736 162.274 40.9736C162.555 40.9736 162.815 40.9912 163.054 41.0263C163.293 41.0544 163.521 41.0966 163.739 41.1528C163.964 41.209 164.185 41.2793 164.403 41.3636C164.621 41.448 164.846 41.5428 165.078 41.6483V43.6932C164.804 43.5105 164.547 43.3594 164.308 43.24C164.076 43.1135 163.852 43.0151 163.634 42.9448C163.423 42.8675 163.216 42.8148 163.012 42.7867C162.815 42.7586 162.611 42.7445 162.4 42.7445C161.965 42.7445 161.564 42.8253 161.199 42.987C160.833 43.1416 160.521 43.3629 160.261 43.6511C160.001 43.9392 159.797 44.2835 159.649 44.6841C159.509 45.0847 159.438 45.5309 159.438 46.0228C159.438 46.5288 159.516 46.982 159.67 47.3826C159.825 47.7761 160.046 48.1099 160.334 48.384C160.623 48.6581 160.967 48.8689 161.367 49.0165C161.775 49.1641 162.228 49.2378 162.727 49.2378C163.135 49.2378 163.542 49.1851 163.95 49.0797C164.358 48.9743 164.804 48.8127 165.289 48.5948V50.4922ZM169.558 45.0741C169.979 45.0741 170.341 44.9617 170.644 44.7368C170.946 44.5119 171.216 44.1781 171.455 43.7354L172.035 42.6602C172.197 42.3651 172.355 42.1226 172.509 41.9329C172.671 41.7361 172.84 41.5815 173.015 41.4691C173.198 41.3566 173.398 41.2793 173.616 41.2372C173.834 41.188 174.083 41.1634 174.365 41.1634H174.776V42.8921H174.343C174.119 42.8921 173.943 42.9518 173.816 43.0713C173.69 43.1908 173.57 43.3489 173.458 43.5457L172.963 44.4311C172.843 44.649 172.724 44.8317 172.604 44.9792C172.485 45.1268 172.362 45.2533 172.235 45.3587C172.109 45.4571 171.975 45.5414 171.835 45.6117C171.694 45.682 171.54 45.7487 171.371 45.812C171.61 45.8823 171.828 45.9771 172.024 46.0966C172.221 46.209 172.407 46.3566 172.583 46.5393C172.766 46.715 172.945 46.9329 173.121 47.1929C173.296 47.4529 173.483 47.7621 173.679 48.1205L175.145 50.8612H173.036L171.719 48.2259C171.41 47.6215 171.062 47.1964 170.675 46.9504C170.289 46.7045 169.909 46.5815 169.537 46.5815H169.294V50.8612H167.376V41.1634H169.294V45.0741H169.558ZM183.556 44.6419L177.97 51.0509H176.884V41.1634H178.802V47.7726L184.442 41.1634H185.475V50.8612H183.556V44.6419ZM194.899 44.6419L189.312 51.0509H188.226V41.1634H190.145V47.7726L195.784 41.1634H196.817V50.8612H194.899V44.6419ZM190.967 36.9786C191.058 37.4072 191.255 37.7445 191.557 37.9905C191.796 38.2084 192.154 38.3173 192.632 38.3173C193.054 38.3173 193.388 38.2119 193.634 38.001C193.88 37.7832 194.055 37.4424 194.161 36.9786H195.636C195.475 37.8851 195.131 38.5773 194.603 39.0552C194.083 39.526 193.419 39.7614 192.611 39.7614C191.768 39.7614 191.083 39.526 190.556 39.0552C190.029 38.5773 189.684 37.8851 189.523 36.9786H190.967ZM102.883 68.4922C102.721 68.5695 102.528 68.6433 102.303 68.7136C102.078 68.7768 101.836 68.8331 101.576 68.8822C101.316 68.9385 101.049 68.9806 100.775 69.0087C100.508 69.0368 100.248 69.0509 99.9947 69.0509C99.2709 69.0509 98.6068 68.9314 98.0025 68.6925C97.3981 68.4536 96.8781 68.1198 96.4424 67.6911C96.0137 67.2624 95.6764 66.7529 95.4304 66.1626C95.1915 65.5653 95.072 64.9118 95.072 64.202C95.072 63.4009 95.1845 62.6806 95.4093 62.0411C95.6342 61.3946 95.954 60.8464 96.3686 60.3967C96.7832 59.9399 97.2857 59.5885 97.876 59.3426C98.4663 59.0966 99.1303 58.9736 99.8682 58.9736C100.149 58.9736 100.409 58.9912 100.648 59.0263C100.887 59.0544 101.116 59.0966 101.333 59.1528C101.558 59.209 101.78 59.2793 101.998 59.3636C102.215 59.448 102.44 59.5428 102.672 59.6483V61.6932C102.398 61.5105 102.142 61.3594 101.903 61.24C101.671 61.1135 101.446 61.0151 101.228 60.9448C101.017 60.8675 100.81 60.8148 100.606 60.7867C100.409 60.7586 100.206 60.7445 99.9947 60.7445C99.559 60.7445 99.1585 60.8253 98.793 60.987C98.4276 61.1416 98.1149 61.3629 97.8549 61.6511C97.5949 61.9392 97.3911 62.2835 97.2435 62.6841C97.1029 63.0847 97.0327 63.5309 97.0327 64.0228C97.0327 64.5288 97.11 64.982 97.2646 65.3826C97.4192 65.7761 97.6405 66.1099 97.9287 66.384C98.2168 66.6581 98.5611 66.8689 98.9617 67.0165C99.3693 67.1641 99.8225 67.2378 100.321 67.2378C100.729 67.2378 101.137 67.1851 101.544 67.0797C101.952 66.9743 102.398 66.8127 102.883 66.5948V68.4922ZM113.54 59.1634L106.677 73.826H104.537L107.837 66.7846L104.084 59.1634H106.266L108.88 64.6342L111.379 59.1634H113.54ZM123.37 71.0432H121.472V68.8612H115.021V71.0432H113.113V67.1324H113.914L117.846 58.9736H118.921L122.579 67.1324H123.37V71.0432ZM120.566 67.1324L118.257 62.0411L115.907 67.1324H120.566ZM125.209 68.8612V59.1634H127.127V62.4311H129.352C129.956 62.4311 130.472 62.5295 130.901 62.7263C131.337 62.923 131.692 63.176 131.966 63.4852C132.247 63.7874 132.454 64.1282 132.588 64.5077C132.721 64.8872 132.788 65.2596 132.788 65.6251C132.788 66.0045 132.721 66.3875 132.588 66.774C132.454 67.1535 132.247 67.4979 131.966 67.8071C131.692 68.1163 131.337 68.3692 130.901 68.566C130.472 68.7628 129.956 68.8612 129.352 68.8612H125.209ZM127.127 64.1598V67.1324H128.835C129.137 67.1324 129.411 67.1043 129.657 67.0481C129.91 66.9849 130.125 66.89 130.3 66.7635C130.483 66.637 130.624 66.4789 130.722 66.2891C130.82 66.0924 130.87 65.864 130.87 65.604C130.87 65.344 130.82 65.1226 130.722 64.9399C130.624 64.7572 130.483 64.6096 130.3 64.4972C130.125 64.3777 129.91 64.2934 129.657 64.2442C129.411 64.188 129.137 64.1598 128.835 64.1598H127.127ZM135.386 66.7846C135.653 66.384 135.934 66.0256 136.229 65.7094C136.525 65.3931 136.862 65.1472 137.241 64.9715C136.918 64.852 136.627 64.7115 136.367 64.5499C136.106 64.3812 135.882 64.1844 135.692 63.9596C135.509 63.7347 135.369 63.4782 135.27 63.1901C135.172 62.8949 135.123 62.5611 135.123 62.1887C135.123 61.7249 135.232 61.3067 135.449 60.9343C135.674 60.5618 135.966 60.2456 136.324 59.9856C136.69 59.7185 137.104 59.5147 137.568 59.3742C138.032 59.2336 138.506 59.1634 138.991 59.1634H142.596V68.8612H140.678V65.3194H140.13C139.877 65.3194 139.631 65.344 139.392 65.3931C139.16 65.4423 138.935 65.5267 138.717 65.6461C138.506 65.7586 138.299 65.9167 138.095 66.1205C137.891 66.3173 137.695 66.5632 137.505 66.8584L136.229 68.8612H133.963L135.386 66.7846ZM140.678 63.812V60.8921H138.991C138.373 60.8921 137.902 61.0116 137.579 61.2505C137.255 61.4824 137.094 61.8303 137.094 62.2941C137.094 62.4698 137.125 62.649 137.189 62.8317C137.259 63.0074 137.368 63.169 137.515 63.3166C137.67 63.4641 137.867 63.5836 138.106 63.675C138.352 63.7663 138.647 63.812 138.991 63.812H140.678Z" fill="#3A3A3A"/>
<path d="M103.35 199H94.0081V196.651H98.3551V183.151H98.0311L95.0341 186.148L93.3601 184.474L97.4911 180.343H101.028V196.651H103.35V199ZM115.91 189.226L108.728 196.327V196.651H115.721V199H106.406V195.382L113.237 188.578V182.692H109.052V187.336H106.406V182.692L108.701 180.343H113.588L115.91 182.692V189.226ZM129.279 196.651L126.93 199H122.259L119.937 196.651V194.329H122.61V196.651H126.606V189.658H119.937V180.343H129.279V182.692H122.259V187.336H126.93L129.279 189.658V196.651ZM142 199H139.327V194.329H132.496V186.472L138.571 180.343H141.73L134.98 187.039V192.007H139.327V186.337L142 183.664V199ZM164.164 196.651L161.815 199H157.144L154.822 196.651V182.692L157.144 180.343H161.815L164.164 182.692V196.651ZM161.491 196.651V182.692H157.495V196.651H161.491ZM177.209 196.651L174.86 199H170.189L167.867 196.651V182.692L170.189 180.343H174.86L177.209 182.692V196.651ZM174.536 196.651V182.692H170.54V196.651H174.536ZM180.589 182.692L182.911 180.343H187.906L190.255 182.692V196.651L187.906 199H180.913V196.651H187.582V192.007H182.911L180.589 189.658V182.692ZM183.235 182.692V189.658H187.582V182.692H183.235ZM203.462 199H194.12V196.651H198.467V183.151H198.143L195.146 186.148L193.472 184.474L197.603 180.343H201.14V196.651H203.462V199ZM225.14 196.651L222.791 199H218.12L215.798 196.651V182.692L218.12 180.343H222.791L225.14 182.692V196.651ZM222.467 196.651V182.692H218.471V196.651H222.467ZM238.185 196.651L235.836 199H231.165L228.843 196.651V182.692L231.165 180.343H235.836L238.185 182.692V196.651ZM235.512 196.651V182.692H231.516V196.651H235.512ZM251.23 196.651L248.881 199H244.21L241.888 196.651V182.692L244.21 180.343H248.881L251.23 182.692V196.651ZM248.557 196.651V182.692H244.561V196.651H248.557ZM264.087 190.036L259.929 194.167V199H257.256V193.411L261.414 189.226V182.692H257.094V187.336H254.448V180.343H264.087V190.036ZM286.277 199H276.935V196.651H281.282V183.151H280.958L277.961 186.148L276.287 184.474L280.418 180.343H283.955V196.651H286.277V199ZM298.837 189.226L291.655 196.327V196.651H298.648V199H289.333V195.382L296.164 188.578V182.692H291.979V187.336H289.333V182.692L291.628 180.343H296.515L298.837 182.692V189.226ZM312.368 199H303.026V196.651H307.373V183.151H307.049L304.052 186.148L302.378 184.474L306.509 180.343H310.046V196.651H312.368V199ZM324.739 196.651L322.444 199H317.53L315.235 196.651V194.329H317.908V196.651H322.066V189.658H317.692V187.714L322.39 183.016V182.692H315.235V180.343H324.739V183.34L320.716 187.336V187.66H322.39L324.739 190.009V196.651Z" fill="white"/>
<path d="M107.073 109.3V124H103.692V112.072H97.0561V124H93.6751V109.3H107.073ZM121.448 118.393C121.448 118.435 121.427 118.729 121.385 119.275H112.838C112.992 119.975 113.356 120.528 113.93 120.934C114.504 121.34 115.218 121.543 116.072 121.543C116.66 121.543 117.178 121.459 117.626 121.291C118.088 121.109 118.515 120.829 118.907 120.451L120.65 122.341C119.586 123.559 118.032 124.168 115.988 124.168C114.714 124.168 113.587 123.923 112.607 123.433C111.627 122.929 110.871 122.236 110.339 121.354C109.807 120.472 109.541 119.471 109.541 118.351C109.541 117.245 109.8 116.251 110.318 115.369C110.85 114.473 111.571 113.78 112.481 113.29C113.405 112.786 114.434 112.534 115.568 112.534C116.674 112.534 117.675 112.772 118.571 113.248C119.467 113.724 120.167 114.41 120.671 115.306C121.189 116.188 121.448 117.217 121.448 118.393ZM115.589 115.012C114.847 115.012 114.224 115.222 113.72 115.642C113.216 116.062 112.908 116.636 112.796 117.364H118.361C118.249 116.65 117.941 116.083 117.437 115.663C116.933 115.229 116.317 115.012 115.589 115.012ZM130.616 112.534C131.666 112.534 132.618 112.779 133.472 113.269C134.34 113.745 135.019 114.424 135.509 115.306C135.999 116.174 136.244 117.189 136.244 118.351C136.244 119.513 135.999 120.535 135.509 121.417C135.019 122.285 134.34 122.964 133.472 123.454C132.618 123.93 131.666 124.168 130.616 124.168C129.174 124.168 128.04 123.713 127.214 122.803V128.074H123.938V112.702H127.067V114.004C127.879 113.024 129.062 112.534 130.616 112.534ZM130.049 121.48C130.889 121.48 131.575 121.2 132.107 120.64C132.653 120.066 132.926 119.303 132.926 118.351C132.926 117.399 132.653 116.643 132.107 116.083C131.575 115.509 130.889 115.222 130.049 115.222C129.209 115.222 128.516 115.509 127.97 116.083C127.438 116.643 127.172 117.399 127.172 118.351C127.172 119.303 127.438 120.066 127.97 120.64C128.516 121.2 129.209 121.48 130.049 121.48ZM143.916 124.168C142.712 124.168 141.627 123.923 140.661 123.433C139.709 122.929 138.96 122.236 138.414 121.354C137.882 120.472 137.616 119.471 137.616 118.351C137.616 117.231 137.882 116.23 138.414 115.348C138.96 114.466 139.709 113.78 140.661 113.29C141.627 112.786 142.712 112.534 143.916 112.534C145.106 112.534 146.142 112.786 147.024 113.29C147.92 113.78 148.571 114.487 148.977 115.411L146.436 116.776C145.848 115.74 145.001 115.222 143.895 115.222C143.041 115.222 142.334 115.502 141.774 116.062C141.214 116.622 140.934 117.385 140.934 118.351C140.934 119.317 141.214 120.08 141.774 120.64C142.334 121.2 143.041 121.48 143.895 121.48C145.015 121.48 145.862 120.962 146.436 119.926L148.977 121.312C148.571 122.208 147.92 122.908 147.024 123.412C146.142 123.916 145.106 124.168 143.916 124.168ZM156.117 124.168C154.927 124.168 153.856 123.923 152.904 123.433C151.966 122.929 151.231 122.236 150.699 121.354C150.167 120.472 149.901 119.471 149.901 118.351C149.901 117.231 150.167 116.23 150.699 115.348C151.231 114.466 151.966 113.78 152.904 113.29C153.856 112.786 154.927 112.534 156.117 112.534C157.307 112.534 158.371 112.786 159.309 113.29C160.247 113.78 160.982 114.466 161.514 115.348C162.046 116.23 162.312 117.231 162.312 118.351C162.312 119.471 162.046 120.472 161.514 121.354C160.982 122.236 160.247 122.929 159.309 123.433C158.371 123.923 157.307 124.168 156.117 124.168ZM156.117 121.48C156.957 121.48 157.643 121.2 158.175 120.64C158.721 120.066 158.994 119.303 158.994 118.351C158.994 117.399 158.721 116.643 158.175 116.083C157.643 115.509 156.957 115.222 156.117 115.222C155.277 115.222 154.584 115.509 154.038 116.083C153.492 116.643 153.219 117.399 153.219 118.351C153.219 119.303 153.492 120.066 154.038 120.64C154.584 121.2 155.277 121.48 156.117 121.48ZM164.565 112.702H167.82V117.112H172.734V112.702H176.01V124H172.734V119.779H167.82V124H164.565V112.702ZM183.535 112.534C185.285 112.534 186.629 112.954 187.567 113.794C188.505 114.62 188.974 115.873 188.974 117.553V124H185.908V122.593C185.292 123.643 184.144 124.168 182.464 124.168C181.596 124.168 180.84 124.021 180.196 123.727C179.566 123.433 179.083 123.027 178.747 122.509C178.411 121.991 178.243 121.403 178.243 120.745C178.243 119.695 178.635 118.869 179.419 118.267C180.217 117.665 181.442 117.364 183.094 117.364H185.698C185.698 116.65 185.481 116.104 185.047 115.726C184.613 115.334 183.962 115.138 183.094 115.138C182.492 115.138 181.897 115.236 181.309 115.432C180.735 115.614 180.245 115.866 179.839 116.188L178.663 113.899C179.279 113.465 180.014 113.129 180.868 112.891C181.736 112.653 182.625 112.534 183.535 112.534ZM183.283 121.963C183.843 121.963 184.34 121.837 184.774 121.585C185.208 121.319 185.516 120.934 185.698 120.43V119.275H183.451C182.107 119.275 181.435 119.716 181.435 120.598C181.435 121.018 181.596 121.354 181.918 121.606C182.254 121.844 182.709 121.963 183.283 121.963ZM202.656 112.702V124H199.38V115.39H195.81L195.705 117.385C195.649 118.869 195.509 120.101 195.285 121.081C195.061 122.061 194.697 122.831 194.193 123.391C193.689 123.951 192.989 124.231 192.093 124.231C191.617 124.231 191.05 124.147 190.392 123.979L190.56 121.291C190.784 121.319 190.945 121.333 191.043 121.333C191.533 121.333 191.897 121.158 192.135 120.808C192.387 120.444 192.555 119.989 192.639 119.443C192.723 118.883 192.786 118.148 192.828 117.238L192.996 112.702H202.656ZM211.917 116.314C213.387 116.328 214.514 116.664 215.298 117.322C216.082 117.966 216.474 118.883 216.474 120.073C216.474 121.319 216.033 122.292 215.151 122.992C214.283 123.678 213.058 124.021 211.476 124.021L205.806 124V112.702H209.061V116.314H211.917ZM211.182 121.69C211.812 121.704 212.295 121.571 212.631 121.291C212.967 121.011 213.135 120.591 213.135 120.031C213.135 119.485 212.967 119.086 212.631 118.834C212.309 118.582 211.826 118.449 211.182 118.435L209.061 118.414V121.69H211.182ZM218.521 112.702H221.776V117.112H226.69V112.702H229.966V124H226.69V119.779H221.776V124H218.521V112.702ZM237.491 112.534C239.241 112.534 240.585 112.954 241.523 113.794C242.461 114.62 242.93 115.873 242.93 117.553V124H239.864V122.593C239.248 123.643 238.1 124.168 236.42 124.168C235.552 124.168 234.796 124.021 234.152 123.727C233.522 123.433 233.039 123.027 232.703 122.509C232.367 121.991 232.199 121.403 232.199 120.745C232.199 119.695 232.591 118.869 233.375 118.267C234.173 117.665 235.398 117.364 237.05 117.364H239.654C239.654 116.65 239.437 116.104 239.003 115.726C238.569 115.334 237.918 115.138 237.05 115.138C236.448 115.138 235.853 115.236 235.265 115.432C234.691 115.614 234.201 115.866 233.795 116.188L232.619 113.899C233.235 113.465 233.97 113.129 234.824 112.891C235.692 112.653 236.581 112.534 237.491 112.534ZM237.239 121.963C237.799 121.963 238.296 121.837 238.73 121.585C239.164 121.319 239.472 120.934 239.654 120.43V119.275H237.407C236.063 119.275 235.391 119.716 235.391 120.598C235.391 121.018 235.552 121.354 235.874 121.606C236.21 121.844 236.665 121.963 237.239 121.963ZM255.814 112.702V124H252.895V120.766H250.48L248.338 124H244.852L247.435 120.304C246.651 119.996 246.049 119.555 245.629 118.981C245.223 118.393 245.02 117.686 245.02 116.86C245.02 115.53 245.496 114.508 246.448 113.794C247.414 113.066 248.737 112.702 250.417 112.702H255.814ZM250.48 115.369C249.78 115.369 249.248 115.495 248.884 115.747C248.534 115.999 248.359 116.405 248.359 116.965C248.359 117.525 248.527 117.938 248.863 118.204C249.213 118.456 249.738 118.582 250.438 118.582H252.895V115.369H250.48Z" fill="white"/>
<path d="M269.306 119.296H266.996V124H264.98V112.87H266.996V117.574H269.348L272.96 112.87H275.123L270.902 118.225L275.417 124H273.044L269.306 119.296ZM281.295 112.765C282.835 112.765 284.011 113.143 284.823 113.899C285.649 114.655 286.062 115.782 286.062 117.28V124H284.151V122.53C283.815 123.048 283.332 123.447 282.702 123.727C282.086 123.993 281.351 124.126 280.497 124.126C279.251 124.126 278.25 123.825 277.494 123.223C276.752 122.621 276.381 121.83 276.381 120.85C276.381 119.87 276.738 119.086 277.452 118.498C278.166 117.896 279.3 117.595 280.854 117.595H284.046V117.196C284.046 116.328 283.794 115.663 283.29 115.201C282.786 114.739 282.044 114.508 281.064 114.508C280.406 114.508 279.762 114.62 279.132 114.844C278.502 115.054 277.97 115.341 277.536 115.705L276.696 114.193C277.27 113.731 277.956 113.381 278.754 113.143C279.552 112.891 280.399 112.765 281.295 112.765ZM280.833 122.572C281.603 122.572 282.268 122.404 282.828 122.068C283.388 121.718 283.794 121.228 284.046 120.598V119.044H280.938C279.23 119.044 278.376 119.618 278.376 120.766C278.376 121.326 278.593 121.767 279.027 122.089C279.461 122.411 280.063 122.572 280.833 122.572ZM295.593 112.765C296.671 112.765 297.637 113.003 298.491 113.479C299.345 113.955 300.01 114.62 300.486 115.474C300.976 116.328 301.221 117.315 301.221 118.435C301.221 119.555 300.976 120.549 300.486 121.417C300.01 122.271 299.345 122.936 298.491 123.412C297.637 123.888 296.671 124.126 295.593 124.126C294.795 124.126 294.06 123.972 293.388 123.664C292.73 123.356 292.17 122.908 291.708 122.32V128.074H289.692V112.87H291.624V114.634C292.072 114.018 292.639 113.556 293.325 113.248C294.011 112.926 294.767 112.765 295.593 112.765ZM295.425 122.362C296.139 122.362 296.776 122.201 297.336 121.879C297.91 121.543 298.358 121.081 298.68 120.493C299.016 119.891 299.184 119.205 299.184 118.435C299.184 117.665 299.016 116.986 298.68 116.398C298.358 115.796 297.91 115.334 297.336 115.012C296.776 114.69 296.139 114.529 295.425 114.529C294.725 114.529 294.088 114.697 293.514 115.033C292.954 115.355 292.506 115.81 292.17 116.398C291.848 116.986 291.687 117.665 291.687 118.435C291.687 119.205 291.848 119.891 292.17 120.493C292.492 121.081 292.94 121.543 293.514 121.879C294.088 122.201 294.725 122.362 295.425 122.362ZM312.035 114.634H307.961V124H305.945V114.634H301.871V112.87H312.035V114.634ZM318.065 112.765C319.605 112.765 320.781 113.143 321.593 113.899C322.419 114.655 322.832 115.782 322.832 117.28V124H320.921V122.53C320.585 123.048 320.102 123.447 319.472 123.727C318.856 123.993 318.121 124.126 317.267 124.126C316.021 124.126 315.02 123.825 314.264 123.223C313.522 122.621 313.151 121.83 313.151 120.85C313.151 119.87 313.508 119.086 314.222 118.498C314.936 117.896 316.07 117.595 317.624 117.595H320.816V117.196C320.816 116.328 320.564 115.663 320.06 115.201C319.556 114.739 318.814 114.508 317.834 114.508C317.176 114.508 316.532 114.62 315.902 114.844C315.272 115.054 314.74 115.341 314.306 115.705L313.466 114.193C314.04 113.731 314.726 113.381 315.524 113.143C316.322 112.891 317.169 112.765 318.065 112.765ZM317.603 122.572C318.373 122.572 319.038 122.404 319.598 122.068C320.158 121.718 320.564 121.228 320.816 120.598V119.044H317.708C316 119.044 315.146 119.618 315.146 120.766C315.146 121.326 315.363 121.767 315.797 122.089C316.231 122.411 316.833 122.572 317.603 122.572Z" fill="#202020"/>
</g>
<defs>
<filter id="filter0_dd" x="0" y="1" width="429" height="237" filterUnits="userSpaceOnUse" color-interpolation-filters="sRGB">
<feFlood flood-opacity="0" result="BackgroundImageFix"/>
<feColorMatrix in="SourceAlpha" type="matrix" values="0 0 0 0 0 0 0 0 0 0 0 0 0 0 0 0 0 0 127 0" result="hardAlpha"/>
<feOffset dx="1" dy="1"/>
<feGaussianBlur stdDeviation="0.5"/>
<feColorMatrix type="matrix" values="0 0 0 0 0.446522 0 0 0 0 0.598253 0 0 0 0 0 0 0 0 0.6 0"/>
<feBlend mode="normal" in2="BackgroundImageFix" result="effect1_dropShadow"/>
<feColorMatrix in="SourceAlpha" type="matrix" values="0 0 0 0 0 0 0 0 0 0 0 0 0 0 0 0 0 0 127 0" result="hardAlpha"/>
<feOffset dx="2" dy="2"/>
<feGaussianBlur stdDeviation="2.5"/>
<feColorMatrix type="matrix" values="0 0 0 0 0.392157 0 0 0 0 0.552941 0 0 0 0 0.662745 0 0 0 1 0"/>
<feBlend mode="normal" in2="effect1_dropShadow" result="effect2_dropShadow"/>
<feBlend mode="normal" in="SourceGraphic" in2="effect2_dropShadow" result="shape"/>
</filter>
<linearGradient id="paint0_linear" x1="212.5" y1="4" x2="212.5" y2="231" gradientUnits="userSpaceOnUse">
<stop stop-color="white"/>
<stop offset="0.712707" stop-color="white"/>
<stop offset="1" stop-color="white" stop-opacity="0"/>
</linearGradient>
<linearGradient id="paint1_linear" x1="212.5" y1="4" x2="212.5" y2="231" gradientUnits="userSpaceOnUse">
<stop stop-color="white"/>
<stop offset="0.712707" stop-color="white"/>
<stop offset="1" stop-color="white" stop-opacity="0"/>
</linearGradient>
<linearGradient id="paint2_linear" x1="177.163" y1="4" x2="177.163" y2="205" gradientUnits="userSpaceOnUse">
<stop stop-color="white"/>
<stop offset="0.0163934" stop-color="white" stop-opacity="0"/>
</linearGradient>
<linearGradient id="paint3_linear" x1="3" y1="85.1414" x2="351.325" y2="85.1414" gradientUnits="userSpaceOnUse">
<stop stop-color="white"/>
<stop offset="0.0619718" stop-color="white" stop-opacity="0"/>
</linearGradient>
</defs>
</svg>
