<svg width="38" height="60" viewBox="0 0 38 60" fill="none" xmlns="http://www.w3.org/2000/svg">
<path d="M35 6H3C1.346 6 0 4.654 0 3C0 1.346 1.346 0 3 0H35C36.654 0 38 1.346 38 3C38 4.654 36.654 6 35 6ZM3 2C2.449 2 2 2.448 2 3C2 3.552 2.449 4 3 4H35C35.551 4 36 3.552 36 3C36 2.448 35.551 2 35 2H3Z" fill="#9DC622"/>
<path d="M35 60H3C1.346 60 0 58.654 0 57C0 55.346 1.346 54 3 54H35C36.654 54 38 55.346 38 57C38 58.654 36.654 60 35 60ZM3 56C2.449 56 2 56.448 2 57C2 57.552 2.449 58 3 58H35C35.551 58 36 57.552 36 57C36 56.448 35.551 56 35 56H3Z" fill="#9DC622"/>
<path d="M33 56H5C4.448 56 4 55.553 4 55V52.721C4 45.54 6.796 38.79 11.874 33.712L12.879 32.707C13.591 31.994 14 31.008 14 30C14 28.992 13.591 28.006 12.878 27.293L11.873 26.288C6.796 21.21 4 14.46 4 7.279V5C4 4.447 4.448 4 5 4H33C33.552 4 34 4.447 34 5V7.279C34 14.459 31.204 21.21 26.126 26.288L25.121 27.293C24.398 28.016 24 28.977 24 30C24 31.023 24.398 31.984 25.121 32.707L26.126 33.712C31.204 38.79 34 45.541 34 52.721V55C34 55.553 33.552 56 33 56ZM6 54H32V52.721C32 46.075 29.412 39.826 24.712 35.126L23.707 34.121C22.606 33.021 22 31.558 22 30C22 28.442 22.606 26.979 23.707 25.879L24.712 24.874C29.412 20.174 32 13.925 32 7.279V6H6V7.279C6 13.925 8.588 20.174 13.288 24.874L14.293 25.879C15.394 26.979 16 28.443 16 30C16 31.557 15.394 33.021 14.292 34.121L13.287 35.126C8.588 39.826 6 46.074 6 52.721V54Z" fill="#9DC622"/>
<path d="M19 30.0001C18.448 30.0001 18 29.5531 18 29.0001C18 26.9081 17.186 24.9421 15.707 23.4651L14.703 22.4601C13.147 20.9041 12.066 19.1521 11.129 17.4911C11.032 17.3181 10.989 17.1051 11.004 16.9081C11.004 16.9081 11.02 16.6921 11.11 16.3591C11.457 15.0791 12.379 14.0891 13.638 13.6441C14.957 13.1771 16.426 13.3941 17.571 14.2231C18.489 14.8871 20.804 16.0001 26 16.0001C27.006 16.0001 27.35 16.5931 27.451 16.8471C27.893 17.9631 26.806 19.1461 24.221 21.5771C23.867 21.9091 23.545 22.2131 23.298 22.4591L22.292 23.4651C20.814 24.9431 20 26.9091 20 29.0001C20 29.5531 19.552 30.0001 19 30.0001ZM13.055 16.8331C13.99 18.4641 14.889 19.8171 16.117 21.0461L17.121 22.0511C17.898 22.8271 18.528 23.7111 18.999 24.6691C19.47 23.7111 20.1 22.8271 20.877 22.0511L21.883 21.0451C22.141 20.7871 22.479 20.4691 22.849 20.1201C23.408 19.5951 24.378 18.6821 24.996 17.9861C20.184 17.8521 17.672 16.7651 16.398 15.8431C15.786 15.3991 15.003 15.2821 14.305 15.5291C13.942 15.6581 13.302 15.9981 13.055 16.8331ZM26.043 18.0021H26.053H26.043Z" fill="#9DC622"/>
<path d="M28.934 52H9.06601C8.78701 52 8.52201 51.884 8.33201 51.68C8.14301 51.475 8.04701 51.201 8.06901 50.923C8.31901 47.68 9.61901 46.333 11.124 44.773C11.327 44.562 11.538 44.344 11.755 44.112C13.011 42.77 14.786 42 16.624 42H21.375C23.214 42 24.988 42.77 26.244 44.112C26.461 44.344 26.673 44.563 26.876 44.774C28.38 46.334 29.68 47.68 29.931 50.922C29.952 51.199 29.857 51.474 29.668 51.679C29.478 51.884 29.212 52 28.934 52ZM10.205 50H27.796C27.456 48.255 26.649 47.419 25.438 46.163C25.227 45.944 25.009 45.719 24.784 45.477C23.905 44.539 22.663 44 21.375 44H16.624C15.337 44 14.095 44.538 13.216 45.478C12.992 45.717 12.774 45.944 12.564 46.162C11.352 47.418 10.544 48.254 10.205 50Z" fill="#9DC622"/>
<path d="M18.97 35C18.418 35 17.97 34.553 17.97 34V33C17.97 32.447 18.418 32 18.97 32C19.522 32 19.97 32.447 19.97 33V34C19.97 34.553 19.522 35 18.97 35Z" fill="#9DC622"/>
<path d="M18.97 40C18.418 40 17.97 39.553 17.97 39V38C17.97 37.447 18.418 37 18.97 37C19.522 37 19.97 37.447 19.97 38V39C19.97 39.553 19.522 40 18.97 40Z" fill="#9DC622"/>
</svg>
