<svg width="27" height="16" viewBox="0 0 27 16" fill="none" xmlns="http://www.w3.org/2000/svg">
<path fill-rule="evenodd" clip-rule="evenodd" d="M26.962 1.15704C26.962 1.15704 26.7652 0.573009 25.5421 0.733619L21.4936 0.76282C21.1843 0.719018 20.9594 0.850425 20.9594 0.850425C20.9594 0.850425 20.7204 0.981833 20.608 1.30305C19.9473 3.06976 19.1038 4.58824 19.1038 4.58824C17.3044 7.77123 16.5734 7.94644 16.2782 7.74203C15.5894 7.2894 15.7722 5.90232 15.7722 4.90946C15.7722 1.81408 16.222 0.529207 14.8865 0.193387C14.4508 0.0911809 14.1274 0.0181766 12.9888 0.00357572C11.5409 -0.0110251 10.3178 0.00357571 9.62903 0.353996C9.16513 0.58761 8.81369 1.11324 9.02456 1.14244C9.29165 1.18625 9.89612 1.31765 10.2194 1.77028C10.2194 1.77028 10.5709 2.36891 10.6271 3.68299C10.7817 7.31861 10.0648 7.77123 10.0648 7.77123C9.51657 8.07785 8.56066 7.56682 7.1549 4.55904C7.1549 4.55904 6.33957 3.06976 5.70698 1.43446C5.59452 1.12784 5.3696 0.967232 5.3696 0.967232C5.3696 0.967232 5.11656 0.76282 4.75107 0.704417L0.899304 0.733619C0.308888 0.733619 0.0980251 1.01103 0.0980251 1.01103C0.0980251 1.01103 -0.112838 1.24465 0.0839676 1.72648C3.09228 9.07071 6.52232 12.7501 6.52232 12.7501C6.52232 12.7501 9.65714 16.1521 13.2137 15.9185H14.8303C15.3223 15.8747 15.5754 15.5973 15.5754 15.5973C15.5754 15.5973 15.8003 15.3345 15.7862 14.8526C15.7581 12.6041 16.7703 12.2683 16.7703 12.2683C17.7543 11.9471 19.0195 14.4438 20.369 15.4075C20.369 15.4075 21.3952 16.1375 22.1683 15.9769L25.7671 15.9185C27.6648 15.9039 26.7652 14.2686 26.7652 14.2686C26.6949 14.1372 26.245 13.1297 24.0802 11.0418C21.831 8.8663 22.1262 9.21672 24.8533 5.4497C26.5121 3.15736 27.1728 1.75568 26.962 1.15704Z" fill="#9DC622"/>
</svg>
